Exo-BlackItalic.ufo
<glyph name="exclam" format="2">
  <advance width="277"/>
  <unicode hex="0021"/>
  <note>
GF Latin Plus glyph
</note>
  <outline>
    <contour>
      <point x="97" y="206" type="line"/>
      <point x="241" y="206" type="line"/>
      <point x="353" y="742" type="line"/>
      <point x="159" y="742" type="line"/>
    </contour>
    <component base="period" xOffset="10"/>
  </outline>
</glyph>
<glyph name="dollar" format="2">
  <advance width="609"/>
  <unicode hex="0024"/>
  <note>
GF Latin Plus glyph
</note>
  <outline>
    <contour>
      <point x="361" y="718" type="line"/>
      <point x="469" y="718" type="line"/>
      <point x="486" y="824" type="line"/>
      <point x="378" y="824" type="line"/>
    </contour>
    <contour>
      <point x="233" y="-90" type="line"/>
      <point x="341" y="-90" type="line"/>
      <point x="357" y="12" type="line"/>
      <point x="249" y="12" type="line"/>
    </contour>
    <component base="S"/>
  </outline>
</glyph>
<glyph name="percent" format="2">
  <advance width="968"/>
  <unicode hex="0025"/>
  <note>
GF Latin Plus glyph
</note>
  <outline>
    <contour>
      <point x="192" y="0" type="line"/>
      <point x="323" y="0" type="line"/>
      <point x="886" y="732" type="line"/>
      <point x="762" y="732" type="line"/>
    </contour>
    <contour>
      <point x="216" y="349" type="curve" smooth="yes"/>
      <point x="317" y="349" type="line" smooth="yes"/>
      <point x="418" y="349"/>
      <point x="464" y="399"/>
      <point x="478" y="484" type="curve" smooth="yes"/>
      <point x="496" y="597" type="line" smooth="yes"/>
      <point x="498" y="609"/>
      <point x="499" y="621"/>
      <point x="499" y="632" type="curve" smooth="yes"/>
      <point x="499" y="696"/>
      <point x="464" y="732"/>
      <point x="380" y="732" type="curve" smooth="yes"/>
      <point x="279" y="732" type="line" smooth="yes"/>
      <point x="178" y="732"/>
      <point x="132" y="682"/>
      <point x="119" y="597" type="curve" smooth="yes"/>
      <point x="101" y="484" type="line" smooth="yes"/>
      <point x="99" y="472"/>
      <point x="98" y="460"/>
      <point x="98" y="449" type="curve" smooth="yes"/>
      <point x="98" y="385"/>
      <point x="133" y="349"/>
    </contour>
    <contour>
      <point x="261" y="474" type="line" smooth="yes"/>
      <point x="236" y="474"/>
      <point x="229" y="485"/>
      <point x="229" y="500" type="curve" smooth="yes"/>
      <point x="229" y="504"/>
      <point x="230" y="509"/>
      <point x="230" y="514" type="curve" smooth="yes"/>
      <point x="239" y="567" type="line" smooth="yes"/>
      <point x="244" y="601"/>
      <point x="262" y="607"/>
      <point x="284" y="607" type="curve" smooth="yes"/>
      <point x="335" y="607" type="line" smooth="yes"/>
      <point x="356" y="607"/>
      <point x="367" y="602"/>
      <point x="367" y="581" type="curve" smooth="yes"/>
      <point x="367" y="577"/>
      <point x="367" y="572"/>
      <point x="366" y="567" type="curve" smooth="yes"/>
      <point x="357" y="514" type="line" smooth="yes"/>
      <point x="354" y="492"/>
      <point x="346" y="474"/>
      <point x="312" y="474" type="curve" smooth="yes"/>
    </contour>
    <contour>
      <point x="704" y="3" type="curve" smooth="yes"/>
      <point x="806" y="3" type="line" smooth="yes"/>
      <point x="907" y="3"/>
      <point x="953" y="53"/>
      <point x="967" y="138" type="curve" smooth="yes"/>
      <point x="985" y="251" type="line" smooth="yes"/>
      <point x="987" y="263"/>
      <point x="988" y="275"/>
      <point x="988" y="286" type="curve" smooth="yes"/>
      <point x="988" y="350"/>
      <point x="953" y="386"/>
      <point x="869" y="386" type="curve" smooth="yes"/>
      <point x="767" y="386" type="line" smooth="yes"/>
      <point x="666" y="386"/>
      <point x="621" y="336"/>
      <point x="608" y="251" type="curve" smooth="yes"/>
      <point x="590" y="138" type="line" smooth="yes"/>
      <point x="588" y="125"/>
      <point x="587" y="114"/>
      <point x="587" y="103" type="curve" smooth="yes"/>
      <point x="587" y="39"/>
      <point x="621" y="3"/>
    </contour>
    <contour>
      <point x="750" y="128" type="line" smooth="yes"/>
      <point x="725" y="128"/>
      <point x="718" y="139"/>
      <point x="718" y="154" type="curve" smooth="yes"/>
      <point x="718" y="158"/>
      <point x="719" y="163"/>
      <point x="720" y="168" type="curve" smooth="yes"/>
      <point x="728" y="221" type="line" smooth="yes"/>
      <point x="733" y="255"/>
      <point x="751" y="261"/>
      <point x="773" y="261" type="curve" smooth="yes"/>
      <point x="823" y="261" type="line" smooth="yes"/>
      <point x="844" y="261"/>
      <point x="856" y="256"/>
      <point x="856" y="235" type="curve" smooth="yes"/>
      <point x="856" y="231"/>
      <point x="856" y="226"/>
      <point x="855" y="221" type="curve" smooth="yes"/>
      <point x="847" y="168" type="line" smooth="yes"/>
      <point x="843" y="146"/>
      <point x="834" y="128"/>
      <point x="800" y="128" type="curve" smooth="yes"/>
    </contour>
  </outline>
</glyph>
<glyph name="ampersand" format="2">
  <advance width="715"/>
  <unicode hex="0026"/>
  <note>
GF Latin Plus glyph
</note>
  <outline>
    <contour>
      <point x="236" y="-6" type="curve" smooth="yes"/>
      <point x="304.807" y="-6"/>
      <point x="355.625" y="10.672"/>
      <point x="409" y="51" type="curve" smooth="yes"/>
      <point x="454" y="85" type="line"/>
      <point x="510" y="0" type="line"/>
      <point x="708" y="0" type="line"/>
      <point x="601" y="181" type="line"/>
      <point x="657" y="229" type="line"/>
      <point x="733" y="350" type="line"/>
      <point x="677" y="438" type="line"/>
      <point x="519" y="317" type="line"/>
      <point x="442" y="453" type="line" smooth="yes"/>
      <point x="421" y="490"/>
      <point x="409" y="513"/>
      <point x="409" y="530" type="curve" smooth="yes"/>
      <point x="409" y="548"/>
      <point x="420" y="568"/>
      <point x="457" y="568" type="curve" smooth="yes"/>
      <point x="609" y="568" type="line"/>
      <point x="631" y="710" type="line"/>
      <point x="595" y="722"/>
      <point x="515" y="739"/>
      <point x="446" y="739" type="curve" smooth="yes"/>
      <point x="284" y="739"/>
      <point x="217" y="649"/>
      <point x="217" y="552" type="curve" smooth="yes"/>
      <point x="217" y="524"/>
      <point x="220" y="490"/>
      <point x="243" y="445" type="curve" smooth="yes"/>
      <point x="251" y="429" type="line"/>
      <point x="179" y="388" type="line" smooth="yes"/>
      <point x="98.735" y="342.294"/>
      <point x="57" y="276"/>
      <point x="57" y="168" type="curve" smooth="yes"/>
      <point x="57" y="64"/>
      <point x="128.193" y="-6"/>
    </contour>
    <contour>
      <point x="296" y="171" type="curve" smooth="yes"/>
      <point x="271" y="171"/>
      <point x="254" y="190"/>
      <point x="254" y="217" type="curve" smooth="yes"/>
      <point x="254" y="242"/>
      <point x="263" y="265"/>
      <point x="296" y="283" type="curve" smooth="yes"/>
      <point x="322" y="297" type="line"/>
      <point x="374" y="213" type="line"/>
      <point x="350" y="192" type="line" smooth="yes"/>
      <point x="332" y="176"/>
      <point x="315" y="171"/>
    </contour>
  </outline>
</glyph>
<glyph name="quotesingle" format="2">
  <advance width="256"/>
  <unicode hex="0027"/>
  <note>
GF Latin Plus glyph
</note>
  <outline>
    <contour>
      <point x="120" y="491" type="line"/>
      <point x="284" y="491" type="line"/>
      <point x="326" y="692" type="line"/>
      <point x="336" y="759" type="line"/>
      <point x="151" y="759" type="line"/>
      <point x="141" y="692" type="line"/>
    </contour>
  </outline>
</glyph>
<glyph name="plus" format="2">
  <advance width="609"/>
  <unicode hex="002B"/>
  <note>
GF Latin Plus glyph
</note>
  <outline>
    <contour>
      <point x="248" y="132" type="line"/>
      <point x="402" y="132" type="line"/>
      <point x="472" y="580" type="line"/>
      <point x="318" y="580" type="line"/>
    </contour>
    <contour>
      <point x="124" y="279" type="line"/>
      <point x="572" y="279" type="line"/>
      <point x="596" y="433" type="line"/>
      <point x="148" y="433" type="line"/>
    </contour>
  </outline>
</glyph>
<glyph name="hyphen" format="2">
  <advance width="353"/>
  <unicode hex="002D"/>
  <note>
GF Latin Plus glyph
</note>
  <outline>
    <contour>
      <point x="54" y="213" type="line"/>
      <point x="368" y="213" type="line"/>
      <point x="392" y="367" type="line"/>
      <point x="78" y="367" type="line"/>
    </contour>
  </outline>
</glyph>
<glyph name="period" format="2">
  <advance width="257"/>
  <unicode hex="002E"/>
  <note>
GF Latin Plus glyph
</note>
  <outline>
    <contour>
      <point x="72" y="-2" type="curve" smooth="yes"/>
      <point x="185" y="-2" type="line" smooth="yes"/>
      <point x="199" y="-2"/>
      <point x="210" y="3"/>
      <point x="213" y="21" type="curve" smooth="yes"/>
      <point x="232" y="138" type="line" smooth="yes"/>
      <point x="232" y="140"/>
      <point x="232" y="143"/>
      <point x="232" y="145" type="curve" smooth="yes"/>
      <point x="232" y="157"/>
      <point x="226" y="163"/>
      <point x="211" y="163" type="curve" smooth="yes"/>
      <point x="98" y="163" type="line" smooth="yes"/>
      <point x="82" y="163"/>
      <point x="72" y="153"/>
      <point x="70" y="138" type="curve" smooth="yes"/>
      <point x="51" y="21" type="line" smooth="yes"/>
      <point x="51" y="20"/>
      <point x="51" y="18"/>
      <point x="51" y="17" type="curve" smooth="yes"/>
      <point x="51" y="5"/>
      <point x="59" y="-2"/>
    </contour>
  </outline>
</glyph>
<glyph name="slash" format="2">
  <advance width="502"/>
  <unicode hex="002F"/>
  <note>
GF Latin Plus glyph
</note>
  <outline>
    <contour>
      <point x="0" y="-72" type="line"/>
      <point x="199" y="-72" type="line"/>
      <point x="613" y="770" type="line"/>
      <point x="414" y="770" type="line"/>
    </contour>
  </outline>
</glyph>
<glyph name="one" format="2">
  <advance width="379"/>
  <unicode hex="0031"/>
  <note>
GF Latin Plus glyph
</note>
  <outline>
    <contour>
      <point x="140" y="0" type="line"/>
      <point x="334" y="0" type="line"/>
      <point x="452" y="743" type="line"/>
      <point x="280" y="743" type="line"/>
      <point x="130" y="683" type="line"/>
      <point x="111" y="559" type="line"/>
      <point x="230" y="569" type="line"/>
    </contour>
  </outline>
</glyph>
<glyph name="three" format="2">
  <advance width="575"/>
  <unicode hex="0033"/>
  <note>
GF Latin Plus glyph
</note>
  <outline>
    <contour>
      <point x="327" y="-6" type="curve" smooth="yes"/>
      <point x="461" y="-6"/>
      <point x="554" y="60"/>
      <point x="573" y="181" type="curve" smooth="yes"/>
      <point x="579.09" y="225.154"/>
      <point x="581" y="239"/>
      <point x="581" y="253" type="curve" smooth="yes"/>
      <point x="581" y="312"/>
      <point x="558" y="357"/>
      <point x="509" y="373" type="curve"/>
      <point x="574" y="395"/>
      <point x="604" y="442"/>
      <point x="615" y="510" type="curve" smooth="yes"/>
      <point x="625.391" y="574.943"/>
      <point x="626" y="589"/>
      <point x="626" y="601" type="curve" smooth="yes"/>
      <point x="626" y="718.647"/>
      <point x="551" y="749"/>
      <point x="428" y="749" type="curve" smooth="yes"/>
      <point x="335" y="749"/>
      <point x="241" y="735"/>
      <point x="158" y="721" type="curve"/>
      <point x="135" y="575" type="line"/>
      <point x="339" y="575" type="line" smooth="yes"/>
      <point x="387" y="575"/>
      <point x="424" y="567"/>
      <point x="424" y="526" type="curve" smooth="yes"/>
      <point x="424" y="522"/>
      <point x="423.455" y="518.098"/>
      <point x="422" y="505" type="curve" smooth="yes"/>
      <point x="417" y="474"/>
      <point x="389" y="457"/>
      <point x="336" y="454" type="curve" smooth="yes"/>
      <point x="165" y="443" type="line"/>
      <point x="143" y="303" type="line"/>
      <point x="295" y="296" type="line" smooth="yes"/>
      <point x="354" y="293"/>
      <point x="388" y="273"/>
      <point x="388" y="242" type="curve" smooth="yes"/>
      <point x="388" y="240"/>
      <point x="387.349" y="237.209"/>
      <point x="384" y="216" type="curve" smooth="yes"/>
      <point x="378" y="179"/>
      <point x="356" y="167"/>
      <point x="278" y="167" type="curve" smooth="yes"/>
      <point x="60" y="167" type="line"/>
      <point x="37" y="21" type="line"/>
      <point x="120" y="4"/>
      <point x="220" y="-6"/>
    </contour>
  </outline>
</glyph>
<glyph name="four" format="2">
  <advance width="635"/>
  <unicode hex="0034"/>
  <note>
GF Latin Plus glyph
</note>
  <outline>
    <contour>
      <point x="364" y="0" type="line"/>
      <point x="558" y="0" type="line"/>
      <point x="580" y="137" type="line"/>
      <point x="644" y="167" type="line"/>
      <point x="666" y="301" type="line"/>
      <point x="606" y="301" type="line"/>
      <point x="638" y="507" type="line"/>
      <point x="481" y="507" type="line"/>
      <point x="429" y="411" type="line"/>
      <point x="412" y="301" type="line"/>
      <point x="300" y="301" type="line"/>
      <point x="552" y="743" type="line"/>
      <point x="354" y="743" type="line"/>
      <point x="56" y="224" type="line"/>
      <point x="77" y="137" type="line"/>
      <point x="386" y="137" type="line"/>
    </contour>
  </outline>
</glyph>
<glyph name="five" format="2">
  <advance width="592"/>
  <unicode hex="0035"/>
  <note>
GF Latin Plus glyph
</note>
  <outline>
    <contour>
      <point x="297" y="-6" type="curve" smooth="yes"/>
      <point x="474" y="-6"/>
      <point x="568" y="49"/>
      <point x="589" y="186" type="curve" smooth="yes"/>
      <point x="607" y="295" type="line" smooth="yes"/>
      <point x="609" y="309"/>
      <point x="610" y="323"/>
      <point x="610" y="336" type="curve" smooth="yes"/>
      <point x="610" y="417"/>
      <point x="567" y="476"/>
      <point x="467" y="476" type="curve" smooth="yes"/>
      <point x="391" y="476" type="line" smooth="yes"/>
      <point x="368" y="476"/>
      <point x="343" y="470"/>
      <point x="320" y="456" type="curve"/>
      <point x="342" y="569" type="line"/>
      <point x="619" y="569" type="line"/>
      <point x="647" y="743" type="line"/>
      <point x="184" y="743" type="line"/>
      <point x="89" y="277" type="line"/>
      <point x="275" y="277" type="line"/>
      <point x="282" y="301"/>
      <point x="293" y="312"/>
      <point x="325" y="312" type="curve" smooth="yes"/>
      <point x="369" y="312" type="line" smooth="yes"/>
      <point x="399" y="312"/>
      <point x="409" y="299"/>
      <point x="409" y="277" type="curve" smooth="yes"/>
      <point x="409" y="271"/>
      <point x="408" y="265"/>
      <point x="407" y="259" type="curve" smooth="yes"/>
      <point x="402" y="228" type="line" smooth="yes"/>
      <point x="399" y="207"/>
      <point x="396" y="168"/>
      <point x="334" y="168" type="curve" smooth="yes"/>
      <point x="70" y="168" type="line"/>
      <point x="45" y="14" type="line"/>
      <point x="129" y="5"/>
      <point x="222" y="-6"/>
    </contour>
  </outline>
</glyph>
<glyph name="eight" format="2">
  <advance width="618"/>
  <unicode hex="0038"/>
  <note>
GF Latin Plus glyph
</note>
  <outline>
    <contour>
      <point x="237" y="-6" type="curve" smooth="yes"/>
      <point x="392" y="-6" type="line" smooth="yes"/>
      <point x="489" y="-6"/>
      <point x="579" y="19"/>
      <point x="602" y="165" type="curve" smooth="yes"/>
      <point x="618" y="264" type="line" smooth="yes"/>
      <point x="619" y="275"/>
      <point x="621" y="288"/>
      <point x="621" y="303" type="curve" smooth="yes"/>
      <point x="621" y="340"/>
      <point x="611" y="382"/>
      <point x="563" y="394" type="curve"/>
      <point x="617" y="401"/>
      <point x="637" y="483"/>
      <point x="642" y="510" type="curve" smooth="yes"/>
      <point x="655" y="594" type="line" smooth="yes"/>
      <point x="657" y="609"/>
      <point x="659" y="623"/>
      <point x="659" y="635" type="curve" smooth="yes"/>
      <point x="659" y="718"/>
      <point x="607" y="749"/>
      <point x="513" y="749" type="curve" smooth="yes"/>
      <point x="357" y="749" type="line" smooth="yes"/>
      <point x="261" y="749"/>
      <point x="171" y="720"/>
      <point x="151" y="596" type="curve" smooth="yes"/>
      <point x="138" y="510" type="line" smooth="yes"/>
      <point x="135" y="491"/>
      <point x="132" y="472"/>
      <point x="132" y="455" type="curve" smooth="yes"/>
      <point x="132" y="426"/>
      <point x="141" y="400"/>
      <point x="176" y="380" type="curve"/>
      <point x="118" y="367"/>
      <point x="91" y="311"/>
      <point x="84" y="264" type="curve" smooth="yes"/>
      <point x="67" y="159" type="line" smooth="yes"/>
      <point x="65" y="146"/>
      <point x="63" y="131"/>
      <point x="63" y="115" type="curve" smooth="yes"/>
      <point x="63" y="59"/>
      <point x="89" y="-6"/>
    </contour>
    <contour>
      <point x="308" y="158" type="line" smooth="yes"/>
      <point x="279" y="158"/>
      <point x="267" y="166"/>
      <point x="267" y="188" type="curve" smooth="yes"/>
      <point x="267" y="193"/>
      <point x="267" y="198"/>
      <point x="268" y="204" type="curve" smooth="yes"/>
      <point x="276" y="251" type="line" smooth="yes"/>
      <point x="280" y="278"/>
      <point x="298" y="298"/>
      <point x="330" y="298" type="curve" smooth="yes"/>
      <point x="384" y="298" type="line" smooth="yes"/>
      <point x="410" y="298"/>
      <point x="423" y="282"/>
      <point x="423" y="260" type="curve" smooth="yes"/>
      <point x="423" y="257"/>
      <point x="422" y="254"/>
      <point x="422" y="251" type="curve" smooth="yes"/>
      <point x="414" y="204" type="line" smooth="yes"/>
      <point x="410" y="176"/>
      <point x="404" y="158"/>
      <point x="360" y="158" type="curve" smooth="yes"/>
    </contour>
    <contour>
      <point x="356" y="462" type="line" smooth="yes"/>
      <point x="335" y="462"/>
      <point x="325" y="465"/>
      <point x="325" y="489" type="curve" smooth="yes"/>
      <point x="325" y="496"/>
      <point x="326" y="504"/>
      <point x="328" y="515" type="curve" smooth="yes"/>
      <point x="332" y="546" type="line" smooth="yes"/>
      <point x="338" y="583"/>
      <point x="352" y="585"/>
      <point x="376" y="585" type="curve" smooth="yes"/>
      <point x="428" y="585" type="line" smooth="yes"/>
      <point x="444" y="585"/>
      <point x="460" y="584"/>
      <point x="460" y="559" type="curve" smooth="yes"/>
      <point x="460" y="556"/>
      <point x="459" y="551"/>
      <point x="458" y="546" type="curve" smooth="yes"/>
      <point x="454" y="515" type="line" smooth="yes"/>
      <point x="448" y="478"/>
      <point x="443" y="462"/>
      <point x="408" y="462" type="curve" smooth="yes"/>
    </contour>
  </outline>
</glyph>
<glyph name="greater" format="2">
  <advance width="609"/>
  <unicode hex="003E"/>
  <note>
GF Latin Plus glyph
</note>
  <outline>
    <contour>
      <point x="113" y="130" type="line"/>
      <point x="550" y="266" type="line"/>
      <point x="577" y="436" type="line"/>
      <point x="183" y="566" type="line"/>
      <point x="156" y="396" type="line"/>
      <point x="374" y="353" type="line"/>
      <point x="140" y="300" type="line"/>
    </contour>
  </outline>
</glyph>
<glyph name="at" format="2">
  <advance width="942"/>
  <unicode hex="0040"/>
  <note>
GF Latin Plus glyph
</note>
  <outline>
    <contour>
      <point x="270" y="-199" type="curve" smooth="yes"/>
      <point x="358" y="-199" type="line" smooth="yes"/>
      <point x="484" y="-199"/>
      <point x="600" y="-182"/>
      <point x="650" y="-172" type="curve"/>
      <point x="667" y="-65" type="line"/>
      <point x="281" y="-65" type="line" smooth="yes"/>
      <point x="211" y="-65"/>
      <point x="192" y="-30"/>
      <point x="192" y="10" type="curve" smooth="yes"/>
      <point x="192" y="19"/>
      <point x="193" y="29"/>
      <point x="195" y="39" type="curve" smooth="yes"/>
      <point x="265" y="481" type="line" smooth="yes"/>
      <point x="274" y="538"/>
      <point x="292" y="604"/>
      <point x="387" y="604" type="curve" smooth="yes"/>
      <point x="729" y="604" type="line" smooth="yes"/>
      <point x="787" y="604"/>
      <point x="831" y="579"/>
      <point x="831" y="524" type="curve" smooth="yes"/>
      <point x="831" y="511"/>
      <point x="829" y="497"/>
      <point x="827" y="481" type="curve" smooth="yes"/>
      <point x="788" y="217" type="line" smooth="yes"/>
      <point x="776" y="136"/>
      <point x="749" y="127"/>
      <point x="701" y="127" type="curve"/>
      <point x="755" y="467" type="line"/>
      <point x="705" y="505"/>
      <point x="646" y="536"/>
      <point x="557" y="536" type="curve" smooth="yes"/>
      <point x="407.052" y="536"/>
      <point x="272" y="412.439"/>
      <point x="272" y="189" type="curve" smooth="yes"/>
      <point x="272" y="50.122"/>
      <point x="339.068" y="-6"/>
      <point x="416" y="-6" type="curve" smooth="yes"/>
      <point x="486.07" y="-6"/>
      <point x="531.926" y="30.891"/>
      <point x="547" y="53" type="curve"/>
      <point x="581" y="0" type="line"/>
      <point x="695" y="0" type="line" smooth="yes"/>
      <point x="829" y="0"/>
      <point x="912" y="57"/>
      <point x="933" y="198" type="curve" smooth="yes"/>
      <point x="972" y="461" type="line" smooth="yes"/>
      <point x="976" y="488"/>
      <point x="978" y="515"/>
      <point x="978" y="540" type="curve" smooth="yes"/>
      <point x="978" y="654"/>
      <point x="912" y="739"/>
      <point x="773" y="739" type="curve" smooth="yes"/>
      <point x="418" y="739" type="line" smooth="yes"/>
      <point x="263" y="739"/>
      <point x="153" y="708"/>
      <point x="123" y="521" type="curve" smooth="yes"/>
      <point x="49" y="59" type="line" smooth="yes"/>
      <point x="46" y="38"/>
      <point x="44" y="17"/>
      <point x="44" y="-4" type="curve" smooth="yes"/>
      <point x="44" y="-107"/>
      <point x="93" y="-199"/>
    </contour>
    <contour>
      <point x="470" y="140" type="curve" smooth="yes"/>
      <point x="428" y="140"/>
      <point x="418" y="174"/>
      <point x="418" y="211" type="curve" smooth="yes"/>
      <point x="418" y="318.115"/>
      <point x="464" y="393"/>
      <point x="544" y="393" type="curve" smooth="yes"/>
      <point x="553" y="393"/>
      <point x="573" y="391"/>
      <point x="595" y="388" type="curve"/>
      <point x="563" y="180" type="line"/>
      <point x="545" y="158"/>
      <point x="507" y="140"/>
    </contour>
  </outline>
</glyph>
<glyph name="A" format="2">
  <advance width="709"/>
  <unicode hex="0041"/>
  <note>
GF Latin Plus glyph
</note>
  <anchor x="328" y="-150" name="bottom"/>
  <anchor x="555" y="0" name="ogonek"/>
  <anchor x="480" y="810" name="top"/>
  <outline>
    <contour>
      <point x="15" y="0" type="line"/>
      <point x="214" y="0" type="line"/>
      <point x="262" y="118" type="line"/>
      <point x="485" y="118" type="line"/>
      <point x="496" y="0" type="line"/>
      <point x="697" y="0" type="line"/>
      <point x="595" y="743" type="line"/>
      <point x="353" y="743" type="line"/>
    </contour>
    <contour>
      <point x="334" y="292" type="line"/>
      <point x="446" y="578" type="line"/>
      <point x="467" y="292" type="line"/>
    </contour>
  </outline>
</glyph>
<glyph name="C" format="2">
  <advance width="592"/>
  <unicode hex="0043"/>
  <note>
GF Latin Plus glyph
</note>
  <anchor x="308" y="-150" name="bottom"/>
  <anchor x="460" y="810" name="top"/>
  <outline>
    <contour>
      <point x="348" y="-6" type="curve" smooth="yes"/>
      <point x="415" y="-6"/>
      <point x="492.963" y="-1.015"/>
      <point x="561" y="26" type="curve"/>
      <point x="585" y="179" type="line"/>
      <point x="528.996" y="173"/>
      <point x="484" y="168"/>
      <point x="400" y="168" type="curve" smooth="yes"/>
      <point x="308" y="168"/>
      <point x="278" y="195"/>
      <point x="278" y="256" type="curve" smooth="yes"/>
      <point x="278" y="284"/>
      <point x="283" y="320"/>
      <point x="290" y="366" type="curve" smooth="yes"/>
      <point x="321" y="562"/>
      <point x="370" y="575"/>
      <point x="456" y="575" type="curve" smooth="yes"/>
      <point x="516" y="575"/>
      <point x="589.975" y="562.007"/>
      <point x="643" y="546" type="curve"/>
      <point x="668" y="700" type="line"/>
      <point x="624.977" y="721.011"/>
      <point x="544" y="749"/>
      <point x="420" y="749" type="curve" smooth="yes"/>
      <point x="223" y="749"/>
      <point x="134" y="632"/>
      <point x="98" y="399" type="curve" smooth="yes"/>
      <point x="90" y="348"/>
      <point x="86" y="300"/>
      <point x="86" y="258" type="curve" smooth="yes"/>
      <point x="86" y="95"/>
      <point x="170" y="-6"/>
    </contour>
  </outline>
</glyph>
<glyph name="G" format="2">
  <advance width="666"/>
  <unicode hex="0047"/>
  <note>
GF Latin Plus glyph
</note>
  <anchor x="298" y="-150" name="bottom"/>
  <anchor x="450" y="810" name="top"/>
  <outline>
    <contour>
      <point x="275" y="-6" type="curve" smooth="yes"/>
      <point x="327" y="-6"/>
      <point x="417" y="24"/>
      <point x="457" y="49" type="curve"/>
      <point x="475" y="0" type="line"/>
      <point x="621" y="0" type="line"/>
      <point x="691" y="441" type="line"/>
      <point x="667.744" y="441.861"/>
      <point x="601.444" y="443"/>
      <point x="567" y="443" type="curve" smooth="yes"/>
      <point x="493.096" y="443"/>
      <point x="436.23" y="435.273"/>
      <point x="401" y="433" type="curve"/>
      <point x="376" y="279" type="line"/>
      <point x="479" y="279" type="line"/>
      <point x="464" y="183" type="line"/>
      <point x="441" y="178"/>
      <point x="386" y="173"/>
      <point x="345" y="173" type="curve" smooth="yes"/>
      <point x="297" y="173"/>
      <point x="278" y="203"/>
      <point x="278" y="250" type="curve" smooth="yes"/>
      <point x="278" y="279"/>
      <point x="282" y="317"/>
      <point x="290" y="368" type="curve" smooth="yes"/>
      <point x="315" y="531"/>
      <point x="343" y="576"/>
      <point x="457" y="576" type="curve" smooth="yes"/>
      <point x="568" y="576"/>
      <point x="637" y="568"/>
      <point x="673" y="561" type="curve"/>
      <point x="697" y="713" type="line"/>
      <point x="636" y="733"/>
      <point x="564" y="749"/>
      <point x="432" y="749" type="curve" smooth="yes"/>
      <point x="248" y="749"/>
      <point x="137" y="643"/>
      <point x="100" y="410" type="curve" smooth="yes"/>
      <point x="91.009" y="353.359"/>
      <point x="82" y="291"/>
      <point x="82" y="231" type="curve" smooth="yes"/>
      <point x="82" y="68"/>
      <point x="134" y="-6"/>
    </contour>
  </outline>
</glyph>
<glyph name="J" format="2">
  <advance width="417"/>
  <unicode hex="004A"/>
  <note>
GF Latin Plus glyph
</note>
  <anchor x="391" y="810" name="top"/>
  <outline>
    <contour>
      <point x="157" y="-6" type="curve" smooth="yes"/>
      <point x="302.178" y="-6"/>
      <point x="369" y="46"/>
      <point x="392" y="189" type="curve" smooth="yes"/>
      <point x="480" y="743" type="line"/>
      <point x="286" y="743" type="line"/>
      <point x="205" y="232" type="line" smooth="yes"/>
      <point x="198.801" y="192.894"/>
      <point x="179" y="170"/>
      <point x="123" y="170" type="curve" smooth="yes"/>
      <point x="102" y="170"/>
      <point x="80" y="170"/>
      <point x="59" y="170" type="curve"/>
      <point x="34" y="15" type="line"/>
      <point x="63" y="3"/>
      <point x="115" y="-6"/>
    </contour>
  </outline>
</glyph>
<glyph name="K" format="2">
  <advance width="671"/>
  <unicode hex="004B"/>
  <note>
GF Latin Plus glyph
</note>
  <anchor x="308" y="-150" name="bottom"/>
  <anchor x="460" y="810" name="top"/>
  <outline>
    <contour>
      <point x="55" y="0" type="line"/>
      <point x="249" y="0" type="line"/>
      <point x="294" y="286" type="line"/>
      <point x="381" y="286" type="line"/>
      <point x="479" y="0" type="line"/>
      <point x="671" y="0" type="line"/>
      <point x="540" y="369" type="line"/>
      <point x="769" y="743" type="line"/>
      <point x="572" y="743" type="line"/>
      <point x="398" y="460" type="line"/>
      <point x="322" y="460" type="line"/>
      <point x="367" y="743" type="line"/>
      <point x="173" y="743" type="line"/>
    </contour>
  </outline>
</glyph>
<glyph name="L" format="2">
  <advance width="537"/>
  <unicode hex="004C"/>
  <note>
GF Latin Plus glyph
</note>
  <anchor x="392" y="630" name="altcaron"/>
  <anchor x="248" y="-150" name="bottom"/>
  <anchor x="414" y="400" name="dot"/>
  <anchor x="280" y="810" name="top"/>
  <outline>
    <contour>
      <point x="243" y="0" type="curve" smooth="yes"/>
      <point x="517" y="0" type="line"/>
      <point x="545" y="174" type="line"/>
      <point x="331" y="174" type="line" smooth="yes"/>
      <point x="298" y="174"/>
      <point x="284" y="188"/>
      <point x="284" y="213" type="curve" smooth="yes"/>
      <point x="284" y="217"/>
      <point x="284" y="221"/>
      <point x="285" y="226" type="curve" smooth="yes"/>
      <point x="367" y="743" type="line"/>
      <point x="173" y="743" type="line"/>
      <point x="87" y="200" type="line" smooth="yes"/>
      <point x="84" y="182"/>
      <point x="83" y="166"/>
      <point x="83" y="150" type="curve" smooth="yes"/>
      <point x="83" y="48"/>
      <point x="145" y="0"/>
    </contour>
  </outline>
</glyph>
<glyph name="N" format="2">
  <advance width="709"/>
  <unicode hex="004E"/>
  <note>
GF Latin Plus glyph
</note>
  <anchor x="310" y="-150" name="bottom"/>
  <anchor x="462" y="810" name="top"/>
  <outline>
    <contour>
      <point x="55" y="0" type="line"/>
      <point x="249" y="0" type="line"/>
      <point x="315" y="414" type="line"/>
      <point x="510" y="0" type="line"/>
      <point x="664" y="0" type="line"/>
      <point x="782" y="743" type="line"/>
      <point x="588" y="743" type="line"/>
      <point x="522" y="329" type="line"/>
      <point x="327" y="743" type="line"/>
      <point x="173" y="743" type="line"/>
    </contour>
  </outline>
</glyph>
<glyph name="O" format="2">
  <advance width="704"/>
  <unicode hex="004F"/>
  <note>
GF Latin Plus glyph
</note>
  <anchor x="329" y="-150" name="bottom"/>
  <anchor x="444" y="0" name="ogonek"/>
  <anchor x="481" y="810" name="top"/>
  <outline>
    <contour>
      <point x="350" y="-6" type="curve" smooth="yes"/>
      <point x="577" y="-6"/>
      <point x="678" y="56"/>
      <point x="722" y="336" type="curve" smooth="yes"/>
      <point x="731" y="391"/>
      <point x="737" y="451"/>
      <point x="737" y="492" type="curve" smooth="yes"/>
      <point x="737" y="708"/>
      <point x="621" y="749"/>
      <point x="470" y="749" type="curve" smooth="yes"/>
      <point x="244" y="749"/>
      <point x="141" y="667"/>
      <point x="98" y="398" type="curve" smooth="yes"/>
      <point x="89" y="344"/>
      <point x="83" y="284"/>
      <point x="83" y="239" type="curve" smooth="yes"/>
      <point x="83" y="36"/>
      <point x="194" y="-6"/>
    </contour>
    <contour>
      <point x="380" y="169" type="curve" smooth="yes"/>
      <point x="305" y="169"/>
      <point x="277" y="188"/>
      <point x="277" y="249" type="curve" smooth="yes"/>
      <point x="277" y="276"/>
      <point x="283" y="325"/>
      <point x="291" y="373" type="curve" smooth="yes"/>
      <point x="316" y="532"/>
      <point x="349" y="575"/>
      <point x="443" y="575" type="curve" smooth="yes"/>
      <point x="514" y="575"/>
      <point x="543" y="559"/>
      <point x="543" y="490" type="curve" smooth="yes"/>
      <point x="543" y="462"/>
      <point x="537" y="411"/>
      <point x="529" y="361" type="curve" smooth="yes"/>
      <point x="509" y="233"/>
      <point x="479" y="169"/>
    </contour>
  </outline>
</glyph>
<glyph name="Q" format="2">
  <advance width="704"/>
  <unicode hex="0051"/>
  <note>
GF Latin Plus glyph
</note>
  <outline>
    <contour>
      <point x="500" y="-212" type="curve" smooth="yes"/>
      <point x="527" y="-212"/>
      <point x="545" y="-211"/>
      <point x="563" y="-208" type="curve"/>
      <point x="585" y="-68" type="line"/>
      <point x="559" y="-73"/>
      <point x="527" y="-78"/>
      <point x="499" y="-78" type="curve" smooth="yes"/>
      <point x="455" y="-78"/>
      <point x="436" y="-68"/>
      <point x="434" y="-41" type="curve"/>
      <point x="300" y="-41" type="line"/>
      <point x="300" y="-163.279"/>
      <point x="388" y="-212"/>
    </contour>
    <component base="O"/>
  </outline>
</glyph>
<glyph name="S" format="2">
  <advance width="576"/>
  <unicode hex="0053"/>
  <note>
GF Latin Plus glyph
</note>
  <anchor x="261" y="-150" name="bottom"/>
  <anchor x="413" y="810" name="top"/>
  <outline>
    <contour>
      <point x="309" y="-6" type="curve" smooth="yes"/>
      <point x="506" y="-6"/>
      <point x="570" y="59"/>
      <point x="589" y="179" type="curve" smooth="yes"/>
      <point x="600" y="249" type="line" smooth="yes"/>
      <point x="602" y="263"/>
      <point x="603" y="276"/>
      <point x="603" y="288" type="curve" smooth="yes"/>
      <point x="603" y="387"/>
      <point x="530" y="459"/>
      <point x="396" y="459" type="curve" smooth="yes"/>
      <point x="352" y="459" type="line" smooth="yes"/>
      <point x="316" y="459"/>
      <point x="301" y="473"/>
      <point x="301" y="500" type="curve" smooth="yes"/>
      <point x="301" y="505"/>
      <point x="302" y="511"/>
      <point x="303" y="517" type="curve" smooth="yes"/>
      <point x="305" y="528" type="line" smooth="yes"/>
      <point x="311" y="563"/>
      <point x="340" y="575"/>
      <point x="382" y="575" type="curve" smooth="yes"/>
      <point x="448" y="575"/>
      <point x="542" y="573"/>
      <point x="615" y="566" type="curve"/>
      <point x="639" y="720" type="line"/>
      <point x="556" y="741"/>
      <point x="480" y="749"/>
      <point x="407" y="749" type="curve" smooth="yes"/>
      <point x="248" y="749"/>
      <point x="147" y="694"/>
      <point x="124" y="551" type="curve" smooth="yes"/>
      <point x="115" y="494" type="line" smooth="yes"/>
      <point x="113" y="479"/>
      <point x="112" y="465"/>
      <point x="112" y="451" type="curve" smooth="yes"/>
      <point x="112" y="350"/>
      <point x="183" y="276"/>
      <point x="304" y="276" type="curve" smooth="yes"/>
      <point x="344" y="276" type="line" smooth="yes"/>
      <point x="393" y="276"/>
      <point x="414" y="267"/>
      <point x="414" y="240" type="curve" smooth="yes"/>
      <point x="414" y="236"/>
      <point x="414" y="232"/>
      <point x="413" y="227" type="curve" smooth="yes"/>
      <point x="411" y="216" type="line" smooth="yes"/>
      <point x="405" y="180"/>
      <point x="380" y="168"/>
      <point x="304" y="168" type="curve" smooth="yes"/>
      <point x="227" y="168"/>
      <point x="142" y="171"/>
      <point x="80" y="177" type="curve"/>
      <point x="56" y="23" type="line"/>
      <point x="107" y="9"/>
      <point x="190" y="-6"/>
    </contour>
  </outline>
</glyph>
<glyph name="V" format="2">
  <advance width="710"/>
  <unicode hex="0056"/>
  <note>
GF Latin Plus glyph
</note>
  <outline>
    <contour>
      <point x="234" y="0" type="line"/>
      <point x="476" y="0" type="line"/>
      <point x="814" y="743" type="line"/>
      <point x="615" y="743" type="line"/>
      <point x="389" y="211" type="line"/>
      <point x="333" y="743" type="line"/>
      <point x="132" y="743" type="line"/>
    </contour>
  </outline>
</glyph>
<glyph name="W" format="2">
  <advance width="1050"/>
  <unicode hex="0057"/>
  <note>
GF Latin Plus glyph
</note>
  <anchor x="649" y="810" name="top"/>
  <outline>
    <contour>
      <point x="185" y="0" type="line"/>
      <point x="379" y="0" type="line"/>
      <point x="578" y="454" type="line"/>
      <point x="632" y="0" type="line"/>
      <point x="826" y="0" type="line"/>
      <point x="1114" y="743" type="line"/>
      <point x="913" y="743" type="line"/>
      <point x="749" y="291" type="line"/>
      <point x="711" y="743" type="line"/>
      <point x="537" y="743" type="line"/>
      <point x="354" y="291" type="line"/>
      <point x="334" y="743" type="line"/>
      <point x="133" y="743" type="line"/>
    </contour>
  </outline>
</glyph>
<glyph name="X" format="2">
  <advance width="680"/>
  <unicode hex="0058"/>
  <note>
GF Latin Plus glyph
</note>
  <anchor x="310" y="-150" name="bottom"/>
  <anchor x="462" y="810" name="top"/>
  <outline>
    <contour>
      <point x="470" y="0" type="line"/>
      <point x="680" y="0" type="line"/>
      <point x="478" y="428" type="line"/>
      <point x="333" y="743" type="line"/>
      <point x="122" y="743" type="line"/>
      <point x="331" y="305" type="line"/>
    </contour>
    <contour>
      <point x="8" y="0" type="line"/>
      <point x="222" y="0" type="line"/>
      <point x="401" y="254" type="line"/>
      <point x="327" y="417" type="line"/>
    </contour>
    <contour>
      <point x="475" y="316" type="line"/>
      <point x="803" y="743" type="line"/>
      <point x="589" y="743" type="line"/>
      <point x="402" y="477" type="line"/>
    </contour>
  </outline>
</glyph>
<glyph name="Y" format="2">
  <advance width="660"/>
  <unicode hex="0059"/>
  <note>
GF Latin Plus glyph
</note>
  <anchor x="308" y="-150" name="bottom"/>
  <anchor x="460" y="810" name="top"/>
  <outline>
    <contour>
      <point x="227" y="0" type="line"/>
      <point x="421" y="0" type="line"/>
      <point x="453" y="200" type="line"/>
      <point x="768" y="743" type="line"/>
      <point x="549" y="743" type="line"/>
      <point x="388" y="408" type="line"/>
      <point x="339" y="743" type="line"/>
      <point x="128" y="743" type="line"/>
      <point x="259" y="200" type="line"/>
    </contour>
  </outline>
</glyph>
<glyph name="Z" format="2">
  <advance width="573"/>
  <unicode hex="005A"/>
  <note>
GF Latin Plus glyph
</note>
  <anchor x="268" y="-150" name="bottom"/>
  <anchor x="420" y="810" name="top"/>
  <outline>
    <contour>
      <point x="30" y="0" type="line"/>
      <point x="543" y="0" type="line"/>
      <point x="571" y="174" type="line"/>
      <point x="281" y="174" type="line"/>
      <point x="625" y="579" type="line"/>
      <point x="651" y="743" type="line"/>
      <point x="148" y="743" type="line"/>
      <point x="120" y="569" type="line"/>
      <point x="401" y="569" type="line"/>
      <point x="56" y="164" type="line"/>
    </contour>
  </outline>
</glyph>
<glyph name="bracketleft" format="2">
  <advance width="344"/>
  <unicode hex="005B"/>
  <note>
GF Latin Plus glyph
</note>
  <outline>
    <contour>
      <point x="211" y="-210" type="curve" smooth="yes"/>
      <point x="301" y="-210" type="line"/>
      <point x="325" y="-56" type="line"/>
      <point x="295" y="-56" type="line" smooth="yes"/>
      <point x="263" y="-56"/>
      <point x="243" y="-43"/>
      <point x="243" y="-4" type="curve" smooth="yes"/>
      <point x="243" y="4"/>
      <point x="244" y="12"/>
      <point x="245" y="22" type="curve" smooth="yes"/>
      <point x="339" y="610" type="line" smooth="yes"/>
      <point x="348" y="670"/>
      <point x="375" y="688"/>
      <point x="413" y="688" type="curve" smooth="yes"/>
      <point x="443" y="688" type="line"/>
      <point x="467" y="842" type="line"/>
      <point x="377" y="842" type="line" smooth="yes"/>
      <point x="238" y="842"/>
      <point x="170" y="772"/>
      <point x="149" y="640" type="curve" smooth="yes"/>
      <point x="50" y="12" type="line" smooth="yes"/>
      <point x="47" y="-8"/>
      <point x="44" y="-30"/>
      <point x="44" y="-51" type="curve" smooth="yes"/>
      <point x="44" y="-132"/>
      <point x="77" y="-210"/>
    </contour>
  </outline>
</glyph>
<glyph name="bracketright" format="2">
  <advance width="344"/>
  <unicode hex="005D"/>
  <note>
GF Latin Plus glyph
</note>
  <outline>
    <contour>
      <point x="-22" y="-210" type="line"/>
      <point x="68" y="-210" type="line" smooth="yes"/>
      <point x="237" y="-210"/>
      <point x="283" y="-86"/>
      <point x="299" y="12" type="curve" smooth="yes"/>
      <point x="398" y="640" type="line" smooth="yes"/>
      <point x="402" y="660"/>
      <point x="403" y="679"/>
      <point x="403" y="696" type="curve" smooth="yes"/>
      <point x="403" y="792"/>
      <point x="352" y="842"/>
      <point x="234" y="842" type="curve" smooth="yes"/>
      <point x="144" y="842" type="line"/>
      <point x="120" y="688" type="line"/>
      <point x="150" y="688" type="line" smooth="yes"/>
      <point x="182" y="688"/>
      <point x="202" y="675"/>
      <point x="202" y="636" type="curve" smooth="yes"/>
      <point x="202" y="628"/>
      <point x="201" y="620"/>
      <point x="200" y="610" type="curve" smooth="yes"/>
      <point x="106" y="22" type="line" smooth="yes"/>
      <point x="97" y="-38"/>
      <point x="70" y="-56"/>
      <point x="32" y="-56" type="curve" smooth="yes"/>
      <point x="2" y="-56" type="line"/>
    </contour>
  </outline>
</glyph>
<glyph name="asciicircum" format="2">
  <advance width="378"/>
  <unicode hex="005E"/>
  <note>
GF Latin Plus glyph
</note>
  <outline>
    <contour>
      <point x="112" y="531" type="line"/>
      <point x="224" y="531" type="line"/>
      <point x="282" y="582" type="line"/>
      <point x="323" y="531" type="line"/>
      <point x="434" y="531" type="line"/>
      <point x="365" y="671" type="line"/>
      <point x="234" y="671" type="line"/>
    </contour>
  </outline>
</glyph>
<glyph name="underscore" format="2">
  <advance width="609"/>
  <unicode hex="005F"/>
  <note>
GF Latin Plus glyph
</note>
  <outline>
    <contour>
      <point x="-33" y="-211" type="line"/>
      <point x="576" y="-211" type="line"/>
      <point x="600" y="-57" type="line"/>
      <point x="-9" y="-57" type="line"/>
    </contour>
  </outline>
</glyph>
<glyph name="b" format="2">
  <advance width="589"/>
  <unicode hex="0062"/>
  <note>
GF Latin Plus glyph
</note>
  <anchor x="276" y="-150" name="bottom"/>
  <anchor x="276" y="850" name="top"/>
  <outline>
    <contour>
      <point x="398" y="-6" type="curve" smooth="yes"/>
      <point x="498" y="-6"/>
      <point x="571" y="73"/>
      <point x="594" y="223" type="curve" smooth="yes"/>
      <point x="602" y="274"/>
      <point x="608" y="321"/>
      <point x="608" y="351" type="curve" smooth="yes"/>
      <point x="608" y="474"/>
      <point x="544" y="545"/>
      <point x="436" y="545" type="curve" smooth="yes"/>
      <point x="404" y="545"/>
      <point x="357" y="533"/>
      <point x="320" y="515" type="curve"/>
      <point x="359" y="763" type="line"/>
      <point x="165" y="763" type="line"/>
      <point x="44" y="0" type="line"/>
      <point x="218" y="0" type="line"/>
      <point x="247" y="49" type="line"/>
      <point x="282" y="15"/>
      <point x="337" y="-6"/>
    </contour>
    <contour>
      <point x="335" y="149" type="curve" smooth="yes"/>
      <point x="299" y="149"/>
      <point x="282" y="155"/>
      <point x="266" y="171" type="curve"/>
      <point x="298" y="375" type="line"/>
      <point x="316" y="385"/>
      <point x="347" y="390"/>
      <point x="369" y="390" type="curve" smooth="yes"/>
      <point x="394" y="390"/>
      <point x="414" y="375"/>
      <point x="414" y="320" type="curve" smooth="yes"/>
      <point x="414" y="308"/>
      <point x="412" y="292"/>
      <point x="410" y="273" type="curve" smooth="yes"/>
      <point x="397" y="175"/>
      <point x="371" y="149"/>
    </contour>
  </outline>
</glyph>
<glyph name="d" format="2">
  <advance width="580"/>
  <unicode hex="0064"/>
  <note>
GF Latin Plus glyph
</note>
  <anchor x="658" y="650" name="altcaron"/>
  <anchor x="267" y="-150" name="bottom"/>
  <anchor x="573" y="850" name="top"/>
  <outline>
    <contour>
      <point x="215" y="-6" type="curve" smooth="yes"/>
      <point x="265" y="-6"/>
      <point x="313" y="18"/>
      <point x="349" y="52" type="curve"/>
      <point x="361" y="0" type="line"/>
      <point x="535" y="0" type="line"/>
      <point x="656" y="763" type="line"/>
      <point x="462" y="763" type="line"/>
      <point x="427" y="541" type="line"/>
      <point x="405" y="544"/>
      <point x="378" y="545"/>
      <point x="351" y="545" type="curve" smooth="yes"/>
      <point x="166" y="545"/>
      <point x="110" y="454"/>
      <point x="80" y="303" type="curve" smooth="yes"/>
      <point x="72" y="262"/>
      <point x="68" y="221"/>
      <point x="68" y="186" type="curve" smooth="yes"/>
      <point x="68" y="67"/>
      <point x="114" y="-6"/>
    </contour>
    <contour>
      <point x="305" y="149" type="curve" smooth="yes"/>
      <point x="281.087" y="149"/>
      <point x="261" y="163.492"/>
      <point x="261" y="217" type="curve" smooth="yes"/>
      <point x="261" y="236"/>
      <point x="263" y="252"/>
      <point x="266" y="271" type="curve" smooth="yes"/>
      <point x="285.788" y="380.935"/>
      <point x="328.312" y="390"/>
      <point x="361" y="390" type="curve" smooth="yes"/>
      <point x="380" y="390"/>
      <point x="395" y="386"/>
      <point x="402" y="383" type="curve"/>
      <point x="369" y="178" type="line"/>
      <point x="354" y="163"/>
      <point x="335" y="149"/>
    </contour>
  </outline>
</glyph>
<glyph name="e" format="2">
  <advance width="548"/>
  <unicode hex="0065"/>
  <note>
GF Latin Plus glyph
</note>
  <anchor x="273" y="-150" name="bottom"/>
  <anchor x="508" y="22" name="ogonek"/>
  <anchor x="379" y="650" name="top"/>
  <outline>
    <contour>
      <point x="278" y="-6" type="curve" smooth="yes"/>
      <point x="373" y="-6"/>
      <point x="458" y="7"/>
      <point x="518" y="22" type="curve"/>
      <point x="536" y="135" type="line"/>
      <point x="357" y="135" type="line" smooth="yes"/>
      <point x="288.306" y="135"/>
      <point x="258" y="149"/>
      <point x="258" y="178" type="curve" smooth="yes"/>
      <point x="258" y="184"/>
      <point x="259" y="192"/>
      <point x="260" y="198" type="curve"/>
      <point x="282.44" y="192.9"/>
      <point x="316.583" y="190"/>
      <point x="357" y="190" type="curve" smooth="yes"/>
      <point x="480" y="190"/>
      <point x="578" y="220"/>
      <point x="578" y="376" type="curve" smooth="yes"/>
      <point x="578" y="516"/>
      <point x="465" y="545"/>
      <point x="364" y="545" type="curve" smooth="yes"/>
      <point x="209" y="545"/>
      <point x="106" y="482"/>
      <point x="77" y="299" type="curve" smooth="yes"/>
      <point x="72" y="269"/>
      <point x="68" y="237"/>
      <point x="68" y="203" type="curve" smooth="yes"/>
      <point x="68" y="72"/>
      <point x="121" y="-6"/>
    </contour>
    <contour>
      <point x="311" y="295" type="curve" smooth="yes"/>
      <point x="299" y="295"/>
      <point x="285" y="297"/>
      <point x="272" y="299" type="curve"/>
      <point x="284" y="364"/>
      <point x="307" y="398"/>
      <point x="351" y="398" type="curve" smooth="yes"/>
      <point x="383" y="398"/>
      <point x="398" y="381"/>
      <point x="398" y="355" type="curve" smooth="yes"/>
      <point x="398" y="318.077"/>
      <point x="384.849" y="295"/>
    </contour>
  </outline>
</glyph>
<glyph name="h" format="2">
  <advance width="600"/>
  <unicode hex="0068"/>
  <note>
GF Latin Plus glyph
</note>
  <anchor x="266" y="-150" name="bottom"/>
  <anchor x="362" y="850" name="top"/>
  <outline>
    <contour>
      <point x="44" y="0" type="line"/>
      <point x="238" y="0" type="line"/>
      <point x="291" y="334" type="line"/>
      <point x="312" y="356"/>
      <point x="340" y="371"/>
      <point x="374" y="371" type="curve" smooth="yes"/>
      <point x="396" y="371"/>
      <point x="415" y="363"/>
      <point x="415" y="333" type="curve" smooth="yes"/>
      <point x="415" y="328"/>
      <point x="415" y="323"/>
      <point x="414" y="318" type="curve" smooth="yes"/>
      <point x="364" y="0" type="line"/>
      <point x="558" y="0" type="line"/>
      <point x="612" y="340" type="line" smooth="yes"/>
      <point x="616" y="366"/>
      <point x="618" y="388"/>
      <point x="618" y="409" type="curve" smooth="yes"/>
      <point x="618" y="508"/>
      <point x="570" y="545"/>
      <point x="486" y="545" type="curve" smooth="yes"/>
      <point x="408" y="545"/>
      <point x="349" y="516"/>
      <point x="315" y="487" type="curve"/>
      <point x="359" y="763" type="line"/>
      <point x="165" y="763" type="line"/>
    </contour>
  </outline>
</glyph>
<glyph name="j" format="2">
  <advance width="280"/>
  <unicode hex="006A"/>
  <note>
GF Latin Plus glyph
</note>
  <outline>
    <contour>
      <point x="162" y="607" type="curve" smooth="yes"/>
      <point x="314" y="607" type="line" smooth="yes"/>
      <point x="328" y="607"/>
      <point x="337" y="615"/>
      <point x="340" y="630" type="curve" smooth="yes"/>
      <point x="357" y="741" type="line" smooth="yes"/>
      <point x="359" y="755"/>
      <point x="354" y="766"/>
      <point x="339" y="766" type="curve" smooth="yes"/>
      <point x="187" y="766" type="line" smooth="yes"/>
      <point x="171" y="766"/>
      <point x="162" y="756"/>
      <point x="159" y="741" type="curve" smooth="yes"/>
      <point x="142" y="630" type="line" smooth="yes"/>
      <point x="139" y="616"/>
      <point x="148" y="607"/>
    </contour>
    <component base="jdotless" xOffset="-1"/>
  </outline>
</glyph>
<glyph name="n" format="2">
  <advance width="600"/>
  <unicode hex="006E"/>
  <note>
GF Latin Plus glyph
</note>
  <anchor x="266" y="-150" name="bottom"/>
  <anchor x="392" y="650" name="top"/>
  <outline>
    <contour>
      <point x="44" y="0" type="line"/>
      <point x="238" y="0" type="line"/>
      <point x="291" y="334" type="line"/>
      <point x="311" y="355"/>
      <point x="340" y="371"/>
      <point x="370" y="371" type="curve" smooth="yes"/>
      <point x="402" y="371"/>
      <point x="415" y="358"/>
      <point x="415" y="334" type="curve" smooth="yes"/>
      <point x="415" y="327"/>
      <point x="414" y="317"/>
      <point x="411" y="298" type="curve" smooth="yes"/>
      <point x="364" y="0" type="line"/>
      <point x="558" y="0" type="line"/>
      <point x="606" y="304" type="line" smooth="yes"/>
      <point x="618" y="377"/>
      <point x="618" y="402"/>
      <point x="618" y="427" type="curve" smooth="yes"/>
      <point x="618" y="497"/>
      <point x="567" y="545"/>
      <point x="484" y="545" type="curve" smooth="yes"/>
      <point x="411" y="545"/>
      <point x="355" y="519"/>
      <point x="315" y="487" type="curve"/>
      <point x="291" y="539" type="line"/>
      <point x="129" y="539" type="line"/>
    </contour>
  </outline>
</glyph>
<glyph name="o" format="2">
  <advance width="579"/>
  <unicode hex="006F"/>
  <note>
GF Latin Plus glyph
</note>
  <anchor x="253" y="-150" name="bottom"/>
  <anchor x="373" y="0" name="ogonek"/>
  <anchor x="379" y="650" name="top"/>
  <outline>
    <contour>
      <point x="289" y="-6" type="curve" smooth="yes"/>
      <point x="466" y="-6"/>
      <point x="555" y="38"/>
      <point x="586" y="235" type="curve" smooth="yes"/>
      <point x="592.099" y="274.035"/>
      <point x="595" y="312.157"/>
      <point x="595" y="344" type="curve" smooth="yes"/>
      <point x="595" y="481.335"/>
      <point x="559" y="545"/>
      <point x="375" y="545" type="curve" smooth="yes"/>
      <point x="195" y="545"/>
      <point x="110" y="506"/>
      <point x="76" y="289" type="curve" smooth="yes"/>
      <point x="71.069" y="258.182"/>
      <point x="68" y="225.857"/>
      <point x="68" y="185" type="curve" smooth="yes"/>
      <point x="68" y="63.701"/>
      <point x="138" y="-6"/>
    </contour>
    <contour>
      <point x="309" y="149" type="curve" smooth="yes"/>
      <point x="273" y="149"/>
      <point x="260" y="160.25"/>
      <point x="260" y="194" type="curve" smooth="yes"/>
      <point x="260" y="213.684"/>
      <point x="261.981" y="234.873"/>
      <point x="266" y="262" type="curve" smooth="yes"/>
      <point x="280.997" y="369.976"/>
      <point x="294.337" y="394"/>
      <point x="350" y="394" type="curve" smooth="yes"/>
      <point x="386.593" y="394"/>
      <point x="402" y="385.395"/>
      <point x="402" y="353" type="curve" smooth="yes"/>
      <point x="402" y="328.02"/>
      <point x="398.099" y="299.736"/>
      <point x="393" y="262" type="curve" smooth="yes"/>
      <point x="378" y="170"/>
      <point x="365" y="149"/>
    </contour>
  </outline>
</glyph>
<glyph name="u" format="2">
  <advance width="600"/>
  <unicode hex="0075"/>
  <note>
GF Latin Plus glyph
</note>
  <anchor x="277" y="-150" name="bottom"/>
  <anchor x="546" y="0" name="ogonek"/>
  <anchor x="403" y="650" name="top"/>
  <outline>
    <contour>
      <point x="196" y="-6" type="curve" smooth="yes"/>
      <point x="277" y="-6"/>
      <point x="316" y="13"/>
      <point x="370" y="52" type="curve"/>
      <point x="382" y="0" type="line"/>
      <point x="556" y="0" type="line"/>
      <point x="641" y="539" type="line"/>
      <point x="447" y="539" type="line"/>
      <point x="394" y="205" type="line"/>
      <point x="374" y="185"/>
      <point x="347" y="168"/>
      <point x="312" y="168" type="curve" smooth="yes"/>
      <point x="292" y="168"/>
      <point x="270" y="174"/>
      <point x="270" y="203" type="curve" smooth="yes"/>
      <point x="270" y="209"/>
      <point x="270" y="213"/>
      <point x="271" y="218" type="curve" smooth="yes"/>
      <point x="321" y="539" type="line"/>
      <point x="127" y="539" type="line"/>
      <point x="72" y="191" type="line" smooth="yes"/>
      <point x="69" y="171"/>
      <point x="67" y="152"/>
      <point x="67" y="122" type="curve" smooth="yes"/>
      <point x="67" y="42"/>
      <point x="104" y="-6"/>
    </contour>
  </outline>
</glyph>
<glyph name="w" format="2">
  <advance width="869"/>
  <unicode hex="0077"/>
  <note>
GF Latin Plus glyph
</note>
  <anchor x="387" y="-150" name="bottom"/>
  <anchor x="513" y="650" name="top"/>
  <outline>
    <contour>
      <point x="152" y="0" type="line"/>
      <point x="357" y="0" type="line"/>
      <point x="456" y="222" type="line"/>
      <point x="501" y="0" type="line"/>
      <point x="706" y="0" type="line"/>
      <point x="856" y="326" type="line" smooth="yes"/>
      <point x="879" y="377"/>
      <point x="914" y="472"/>
      <point x="914" y="547" type="curve"/>
      <point x="722" y="547" type="line"/>
      <point x="718" y="497"/>
      <point x="696" y="425"/>
      <point x="687" y="395" type="curve" smooth="yes"/>
      <point x="626" y="179" type="line"/>
      <point x="563" y="539" type="line"/>
      <point x="440" y="539" type="line"/>
      <point x="299" y="179" type="line"/>
      <point x="275" y="539" type="line"/>
      <point x="75" y="539" type="line"/>
    </contour>
  </outline>
</glyph>
<glyph name="z" format="2">
  <advance width="502"/>
  <unicode hex="007A"/>
  <note>
GF Latin Plus glyph
</note>
  <anchor x="198" y="-150" name="bottom"/>
  <anchor x="324" y="650" name="top"/>
  <outline>
    <contour>
      <point x="31" y="0" type="line"/>
      <point x="472" y="0" type="line"/>
      <point x="472" y="0"/>
      <point x="497" y="153"/>
      <point x="496" y="154" type="curve"/>
      <point x="279" y="154" type="line"/>
      <point x="536" y="401" type="line"/>
      <point x="557" y="539" type="line"/>
      <point x="105" y="539" type="line"/>
      <point x="81" y="385" type="line"/>
      <point x="309" y="385" type="line"/>
      <point x="53" y="138" type="line"/>
    </contour>
  </outline>
</glyph>
<glyph name="braceleft" format="2">
  <advance width="322"/>
  <unicode hex="007B"/>
  <note>
GF Latin Plus glyph
</note>
  <outline>
    <contour>
      <point x="291" y="-210" type="curve"/>
      <point x="314" y="-66" type="line"/>
      <point x="285" y="-66"/>
      <point x="276" y="-52"/>
      <point x="276" y="-26" type="curve" smooth="yes"/>
      <point x="276" y="5"/>
      <point x="315" y="212"/>
      <point x="315" y="248" type="curve" smooth="yes"/>
      <point x="315" y="295"/>
      <point x="282" y="322"/>
      <point x="226" y="334" type="curve"/>
      <point x="292" y="339"/>
      <point x="337" y="366"/>
      <point x="348" y="440" type="curve" smooth="yes"/>
      <point x="375" y="614" type="line" smooth="yes"/>
      <point x="383" y="667"/>
      <point x="391" y="688"/>
      <point x="433" y="688" type="curve"/>
      <point x="458" y="842" type="line"/>
      <point x="294" y="842"/>
      <point x="212" y="806"/>
      <point x="188" y="656" type="curve" smooth="yes"/>
      <point x="159" y="475" type="line" smooth="yes"/>
      <point x="153" y="437"/>
      <point x="125" y="425"/>
      <point x="91" y="422" type="curve"/>
      <point x="63" y="245" type="line"/>
      <point x="102" y="245"/>
      <point x="115" y="233.412"/>
      <point x="115" y="204" type="curve" smooth="yes"/>
      <point x="115" y="179"/>
      <point x="74" y="-21"/>
      <point x="74" y="-80" type="curve" smooth="yes"/>
      <point x="74" y="-173"/>
      <point x="136" y="-210"/>
    </contour>
  </outline>
</glyph>
<glyph name="yen" format="2">
  <advance width="609"/>
  <unicode hex="00A5"/>
  <note>
GF Latin Plus glyph
</note>
  <outline>
    <contour>
      <point x="115" y="261" type="line"/>
      <point x="569" y="261" type="line"/>
      <point x="584" y="355" type="line"/>
      <point x="130" y="355" type="line"/>
    </contour>
    <contour>
      <point x="92" y="114" type="line"/>
      <point x="546" y="114" type="line"/>
      <point x="561" y="208" type="line"/>
      <point x="107" y="208" type="line"/>
    </contour>
    <component base="Y" xOffset="-23"/>
  </outline>
</glyph>
<glyph name="brokenbar" format="2">
  <advance width="250"/>
  <unicode hex="00A6"/>
  <note>
GF Latin Plus glyph
</note>
  <outline>
    <contour>
      <point x="116" y="429" type="line"/>
      <point x="270" y="429" type="line"/>
      <point x="324" y="770" type="line"/>
      <point x="170" y="770" type="line"/>
    </contour>
    <contour>
      <point x="37" y="-72" type="line"/>
      <point x="191" y="-72" type="line"/>
      <point x="243" y="256" type="line"/>
      <point x="89" y="256" type="line"/>
    </contour>
  </outline>
</glyph>
<glyph name="section" format="2">
  <advance width="532"/>
  <unicode hex="00A7"/>
  <note>
GF Latin Plus glyph
</note>
  <outline>
    <contour>
      <point x="313" y="-6" type="curve" smooth="yes"/>
      <point x="423" y="-6"/>
      <point x="503" y="31"/>
      <point x="523" y="160" type="curve" smooth="yes"/>
      <point x="530" y="203" type="line" smooth="yes"/>
      <point x="532" y="213"/>
      <point x="533" y="223"/>
      <point x="533" y="233" type="curve" smooth="yes"/>
      <point x="533" y="275"/>
      <point x="516" y="303"/>
      <point x="481" y="315" type="curve"/>
      <point x="534" y="336"/>
      <point x="563" y="379"/>
      <point x="569" y="418" type="curve" smooth="yes"/>
      <point x="574" y="450" type="line" smooth="yes"/>
      <point x="576" y="460"/>
      <point x="577" y="469"/>
      <point x="577" y="477" type="curve" smooth="yes"/>
      <point x="577" y="548"/>
      <point x="522" y="575"/>
      <point x="421" y="575" type="curve" smooth="yes"/>
      <point x="344" y="575" type="line" smooth="yes"/>
      <point x="323" y="575"/>
      <point x="319" y="582"/>
      <point x="319" y="591" type="curve" smooth="yes"/>
      <point x="319" y="593"/>
      <point x="319.671" y="598.027"/>
      <point x="321" y="606" type="curve" smooth="yes"/>
      <point x="323" y="620"/>
      <point x="332" y="630"/>
      <point x="361" y="630" type="curve" smooth="yes"/>
      <point x="565" y="630" type="line"/>
      <point x="586" y="764" type="line"/>
      <point x="529" y="779"/>
      <point x="423" y="784"/>
      <point x="355" y="784" type="curve" smooth="yes"/>
      <point x="217" y="784"/>
      <point x="155" y="718"/>
      <point x="142" y="638" type="curve" smooth="yes"/>
      <point x="134" y="590" type="line" smooth="yes"/>
      <point x="132" y="576"/>
      <point x="131" y="562"/>
      <point x="131" y="549" type="curve" smooth="yes"/>
      <point x="131" y="510"/>
      <point x="143" y="479"/>
      <point x="179" y="459" type="curve"/>
      <point x="122" y="438"/>
      <point x="97" y="411"/>
      <point x="88" y="355" type="curve" smooth="yes"/>
      <point x="83" y="323" type="line" smooth="yes"/>
      <point x="82" y="314"/>
      <point x="81" y="305"/>
      <point x="81" y="297" type="curve" smooth="yes"/>
      <point x="81" y="222"/>
      <point x="142" y="200"/>
      <point x="233" y="200" type="curve" smooth="yes"/>
      <point x="313" y="200" type="line" smooth="yes"/>
      <point x="331" y="200"/>
      <point x="338" y="196"/>
      <point x="338" y="188" type="curve" smooth="yes"/>
      <point x="338" y="186"/>
      <point x="337" y="177"/>
      <point x="335" y="167" type="curve" smooth="yes"/>
      <point x="332" y="153"/>
      <point x="325" y="148"/>
      <point x="295" y="148" type="curve" smooth="yes"/>
      <point x="91" y="148" type="line"/>
      <point x="70" y="11" type="line"/>
      <point x="141" y="-3"/>
      <point x="233" y="-6"/>
    </contour>
    <contour>
      <point x="305" y="344" type="line" smooth="yes"/>
      <point x="287" y="344"/>
      <point x="275" y="352"/>
      <point x="275" y="368" type="curve" smooth="yes"/>
      <point x="275" y="369"/>
      <point x="275" y="371"/>
      <point x="275" y="373" type="curve" smooth="yes"/>
      <point x="280" y="401" type="line" smooth="yes"/>
      <point x="282" y="419"/>
      <point x="294" y="430"/>
      <point x="319" y="430" type="curve" smooth="yes"/>
      <point x="349" y="430" type="line" smooth="yes"/>
      <point x="372" y="430"/>
      <point x="383" y="423"/>
      <point x="383" y="408" type="curve" smooth="yes"/>
      <point x="383" y="407"/>
      <point x="383" y="405"/>
      <point x="383" y="403" type="curve" smooth="yes"/>
      <point x="378" y="374" type="line" smooth="yes"/>
      <point x="374" y="348"/>
      <point x="360" y="344"/>
      <point x="335" y="344" type="curve" smooth="yes"/>
    </contour>
  </outline>
</glyph>
<glyph name="ordfeminine" format="2">
  <advance width="412"/>
  <unicode hex="00AA"/>
  <note>
GF Latin Plus glyph
</note>
  <outline>
    <contour>
      <point x="60" y="248" type="line"/>
      <point x="432" y="248" type="line"/>
      <point x="446" y="336" type="line"/>
      <point x="74" y="336" type="line"/>
    </contour>
    <component base="a.superior" yOffset="80"/>
  </outline>
</glyph>
<glyph name="logicalnot" format="2">
  <advance width="609"/>
  <unicode hex="00AC"/>
  <note>
GF Latin Plus glyph
</note>
  <outline>
    <contour>
      <point x="399" y="159" type="line"/>
      <point x="553" y="159" type="line"/>
      <point x="602" y="467" type="line"/>
      <point x="448" y="467" type="line"/>
    </contour>
    <component base="minus" xOffset="19" yOffset="120"/>
  </outline>
</glyph>
<glyph name="registered" format="2">
  <advance width="792"/>
  <unicode hex="00AE"/>
  <note>
GF Latin Plus glyph
</note>
  <outline>
    <contour>
      <point x="338" y="0" type="curve" smooth="yes"/>
      <point x="508" y="0" type="line" smooth="yes"/>
      <point x="698" y="0"/>
      <point x="833" y="245"/>
      <point x="833" y="504" type="curve" smooth="yes"/>
      <point x="833" y="643"/>
      <point x="751" y="732"/>
      <point x="594" y="732" type="curve" smooth="yes"/>
      <point x="424" y="732" type="line" smooth="yes"/>
      <point x="149" y="732"/>
      <point x="80" y="462"/>
      <point x="80" y="258" type="curve" smooth="yes"/>
      <point x="80" y="100"/>
      <point x="179" y="0"/>
    </contour>
    <contour>
      <point x="261" y="153" type="line"/>
      <point x="375" y="153" type="line"/>
      <point x="401" y="315" type="line"/>
      <point x="437" y="315" type="line"/>
      <point x="488" y="153" type="line"/>
      <point x="602" y="153" type="line"/>
      <point x="543" y="311" type="line"/>
      <point x="599" y="330"/>
      <point x="631" y="406"/>
      <point x="631" y="477" type="curve" smooth="yes"/>
      <point x="631" y="559"/>
      <point x="574" y="580"/>
      <point x="516" y="580" type="curve" smooth="yes"/>
      <point x="329" y="580" type="line"/>
    </contour>
    <contour>
      <point x="324" y="104" type="line" smooth="yes"/>
      <point x="234" y="104"/>
      <point x="185" y="170"/>
      <point x="185" y="276" type="curve" smooth="yes"/>
      <point x="185" y="463"/>
      <point x="263" y="628"/>
      <point x="407" y="628" type="curve" smooth="yes"/>
      <point x="607" y="628" type="line" smooth="yes"/>
      <point x="695" y="628"/>
      <point x="728" y="565"/>
      <point x="728" y="488" type="curve" smooth="yes"/>
      <point x="728" y="253"/>
      <point x="622" y="104"/>
      <point x="514" y="104" type="curve" smooth="yes"/>
    </contour>
    <contour>
      <point x="414" y="399" type="line"/>
      <point x="426" y="476" type="line"/>
      <point x="495" y="476" type="line" smooth="yes"/>
      <point x="507" y="476"/>
      <point x="515" y="471"/>
      <point x="515" y="454" type="curve" smooth="yes"/>
      <point x="515" y="429"/>
      <point x="500" y="399"/>
      <point x="483" y="399" type="curve" smooth="yes"/>
    </contour>
  </outline>
</glyph>
<glyph name="macron" format="2">
  <advance width="348"/>
  <unicode hex="00AF"/>
  <note>
GF Latin Plus glyph
</note>
  <outline>
    <contour>
      <point x="128" y="631" type="line"/>
      <point x="420" y="631" type="line"/>
      <point x="438" y="745" type="line"/>
      <point x="146" y="745" type="line"/>
    </contour>
  </outline>
</glyph>
<glyph name="degree" format="2">
  <advance width="311"/>
  <unicode hex="00B0"/>
  <note>
GF Latin Plus glyph
</note>
  <outline>
    <contour>
      <point x="230" y="470" type="curve" smooth="yes"/>
      <point x="356" y="470"/>
      <point x="408" y="554.11"/>
      <point x="408" y="642" type="curve" smooth="yes"/>
      <point x="408" y="722.016"/>
      <point x="359" y="775"/>
      <point x="279" y="775" type="curve" smooth="yes"/>
      <point x="156" y="775"/>
      <point x="100" y="689.028"/>
      <point x="100" y="604" type="curve" smooth="yes"/>
      <point x="100" y="522.952"/>
      <point x="153" y="470"/>
    </contour>
    <contour>
      <point x="244" y="557" type="curve" smooth="yes"/>
      <point x="210" y="557"/>
      <point x="188" y="577"/>
      <point x="188" y="609" type="curve" smooth="yes"/>
      <point x="188" y="656"/>
      <point x="219" y="688"/>
      <point x="265" y="688" type="curve" smooth="yes"/>
      <point x="299" y="688"/>
      <point x="320" y="668"/>
      <point x="320" y="636" type="curve" smooth="yes"/>
      <point x="320" y="587"/>
      <point x="289" y="557"/>
    </contour>
  </outline>
</glyph>
<glyph name="twosuperior" format="2">
  <advance width="414"/>
  <unicode hex="00B2"/>
  <note>
GF Latin Plus glyph
</note>
  <outline>
    <contour>
      <point x="95" y="355" type="line"/>
      <point x="434" y="355" type="line"/>
      <point x="456" y="490" type="line"/>
      <point x="319" y="490" type="line"/>
      <point x="377" y="547" type="line" smooth="yes"/>
      <point x="455" y="622"/>
      <point x="481" y="676"/>
      <point x="481" y="745" type="curve" smooth="yes"/>
      <point x="481" y="812"/>
      <point x="444" y="846"/>
      <point x="344" y="846" type="curve" smooth="yes"/>
      <point x="271" y="846"/>
      <point x="218" y="833"/>
      <point x="174" y="823" type="curve"/>
      <point x="155" y="703" type="line"/>
      <point x="291" y="703" type="line" smooth="yes"/>
      <point x="308" y="703"/>
      <point x="317" y="700"/>
      <point x="317" y="686" type="curve" smooth="yes"/>
      <point x="317" y="677"/>
      <point x="298" y="651"/>
      <point x="271" y="623" type="curve" smooth="yes"/>
      <point x="114" y="474" type="line"/>
    </contour>
  </outline>
</glyph>
<glyph name="acute" format="2">
  <advance width="244"/>
  <unicode hex="00B4"/>
  <note>
GF Latin Plus glyph
</note>
  <outline>
    <contour>
      <point x="111" y="631" type="line"/>
      <point x="235" y="631" type="line"/>
      <point x="356" y="774" type="line"/>
      <point x="192" y="774" type="line"/>
    </contour>
  </outline>
</glyph>
<glyph name="paragraph" format="2">
  <advance width="574"/>
  <unicode hex="00B6"/>
  <note>
GF Latin Plus glyph
</note>
  <outline>
    <contour>
      <point x="189" y="-270" type="line"/>
      <point x="313" y="-270" type="line"/>
      <point x="454" y="619" type="line"/>
      <point x="508" y="619" type="line"/>
      <point x="410" y="0" type="line"/>
      <point x="534" y="0" type="line"/>
      <point x="632" y="617" type="line"/>
      <point x="682" y="617" type="line"/>
      <point x="702" y="743" type="line"/>
      <point x="296" y="743" type="line" smooth="yes"/>
      <point x="202" y="743"/>
      <point x="133" y="698"/>
      <point x="118" y="603" type="curve" smooth="yes"/>
      <point x="96" y="465" type="line" smooth="yes"/>
      <point x="91" y="435"/>
      <point x="90" y="425"/>
      <point x="90" y="415" type="curve" smooth="yes"/>
      <point x="90" y="351"/>
      <point x="125" y="302"/>
      <point x="212" y="302" type="curve" smooth="yes"/>
      <point x="247" y="302"/>
      <point x="271" y="312"/>
      <point x="283" y="319" type="curve"/>
    </contour>
    <contour>
      <point x="255" y="426" type="line" smooth="yes"/>
      <point x="232" y="426"/>
      <point x="218" y="430"/>
      <point x="218" y="450" type="curve" smooth="yes"/>
      <point x="218" y="455"/>
      <point x="219" y="465"/>
      <point x="222" y="482" type="curve" smooth="yes"/>
      <point x="236" y="569" type="line" smooth="yes"/>
      <point x="242" y="609"/>
      <point x="250" y="619"/>
      <point x="286" y="619" type="curve" smooth="yes"/>
      <point x="330" y="619" type="line"/>
      <point x="299" y="426" type="line"/>
    </contour>
  </outline>
</glyph>
<glyph name="onesuperior" format="2">
  <advance width="414"/>
  <unicode hex="00B9"/>
  <note>
GF Latin Plus glyph
</note>
  <outline>
    <contour>
      <point x="195" y="355" type="line"/>
      <point x="349" y="355" type="line"/>
      <point x="427" y="846" type="line"/>
      <point x="290" y="846" type="line"/>
      <point x="182" y="808" type="line"/>
      <point x="167" y="712" type="line"/>
      <point x="252" y="712" type="line"/>
    </contour>
    <contour>
      <point x="103" y="355" type="line"/>
      <point x="440" y="355" type="line"/>
      <point x="462" y="490" type="line"/>
      <point x="125" y="490" type="line"/>
    </contour>
  </outline>
</glyph>
<glyph name="ordmasculine" format="2">
  <advance width="424"/>
  <unicode hex="00BA"/>
  <note>
GF Latin Plus glyph
</note>
  <outline>
    <contour>
      <point x="60" y="248" type="line"/>
      <point x="432" y="248" type="line"/>
      <point x="446" y="336" type="line"/>
      <point x="74" y="336" type="line"/>
    </contour>
    <component base="o.superior" yOffset="80"/>
  </outline>
</glyph>
<glyph name="AE" format="2">
  <advance width="1011.12"/>
  <unicode hex="00C6"/>
  <note>
GF Latin Plus glyph
</note>
  <anchor x="680" y="810" name="top"/>
  <outline>
    <contour>
      <point x="655" y="-6" type="curve" smooth="yes"/>
      <point x="655" y="-6"/>
      <point x="854" y="0"/>
      <point x="959" y="14" type="curve"/>
      <point x="985" y="176" type="line"/>
      <point x="737" y="176" type="line" smooth="yes"/>
      <point x="708" y="176"/>
      <point x="665" y="175"/>
      <point x="674" y="228" type="curve" smooth="yes"/>
      <point x="683" y="284" type="line"/>
      <point x="954" y="294" type="line"/>
      <point x="978" y="448" type="line"/>
      <point x="710" y="458" type="line"/>
      <point x="716" y="496" type="line" smooth="yes"/>
      <point x="724" y="548"/>
      <point x="735" y="564"/>
      <point x="787" y="564" type="curve" smooth="yes"/>
      <point x="1046" y="564" type="line"/>
      <point x="1072" y="727" type="line"/>
      <point x="958" y="738"/>
      <point x="845" y="743"/>
      <point x="775" y="743" type="curve" smooth="yes"/>
      <point x="637" y="743"/>
      <point x="485" y="715"/>
      <point x="376" y="552" type="curve" smooth="yes"/>
      <point x="6" y="0" type="line"/>
      <point x="195" y="0" type="line"/>
      <point x="281" y="118" type="line"/>
      <point x="483" y="118" type="line"/>
      <point x="483" y="103" type="line" smooth="yes"/>
      <point x="483" y="22"/>
      <point x="537" y="-6"/>
    </contour>
    <contour>
      <point x="392" y="282" type="line"/>
      <point x="547" y="527" type="line"/>
      <point x="509" y="282" type="line"/>
    </contour>
  </outline>
</glyph>
<glyph name="Oslash" format="2">
  <advance width="708"/>
  <unicode hex="00D8"/>
  <note>
GF Latin Plus glyph
</note>
  <anchor x="464" y="810" name="top"/>
  <outline>
    <contour>
      <point x="35" y="0" type="line"/>
      <point x="140" y="0" type="line"/>
      <point x="790" y="743" type="line"/>
      <point x="685" y="743" type="line"/>
    </contour>
    <component base="O"/>
  </outline>
</glyph>
<glyph name="germandbls" format="2">
  <advance width="620"/>
  <unicode hex="00DF"/>
  <note>
GF Latin Plus glyph
</note>
  <outline>
    <contour>
      <point x="410" y="-6" type="curve" smooth="yes"/>
      <point x="480" y="-6"/>
      <point x="596" y="12"/>
      <point x="616" y="142" type="curve" smooth="yes"/>
      <point x="624.677" y="194.059"/>
      <point x="625" y="204"/>
      <point x="625" y="213" type="curve" smooth="yes"/>
      <point x="625" y="301.566"/>
      <point x="546" y="341.139"/>
      <point x="546" y="376" type="curve" smooth="yes"/>
      <point x="546" y="423.844"/>
      <point x="639" y="474.838"/>
      <point x="639" y="583" type="curve" smooth="yes"/>
      <point x="639" y="677"/>
      <point x="576" y="769"/>
      <point x="408" y="769" type="curve" smooth="yes"/>
      <point x="234" y="769"/>
      <point x="139" y="667"/>
      <point x="121" y="551" type="curve" smooth="yes"/>
      <point x="34" y="0" type="line"/>
      <point x="228" y="0" type="line"/>
      <point x="301" y="461" type="line" smooth="yes"/>
      <point x="316.989" y="561.974"/>
      <point x="340" y="598"/>
      <point x="391" y="598" type="curve" smooth="yes"/>
      <point x="436" y="598"/>
      <point x="462" y="581"/>
      <point x="462" y="550" type="curve" smooth="yes"/>
      <point x="462" y="488.916"/>
      <point x="353" y="415.614"/>
      <point x="353" y="316" type="curve" smooth="yes"/>
      <point x="353" y="224"/>
      <point x="436" y="202"/>
      <point x="436" y="167" type="curve" smooth="yes"/>
      <point x="436" y="166"/>
      <point x="436" y="162"/>
      <point x="435" y="156" type="curve" smooth="yes"/>
      <point x="433" y="143"/>
      <point x="423" y="138"/>
      <point x="381" y="138" type="curve" smooth="yes"/>
      <point x="357" y="138"/>
      <point x="333" y="138"/>
      <point x="292" y="141" type="curve"/>
      <point x="272" y="10" type="line"/>
      <point x="300" y="0"/>
      <point x="353" y="-6"/>
    </contour>
  </outline>
</glyph>
<glyph name="eth" format="2">
  <advance width="579"/>
  <unicode hex="00F0"/>
  <note>
GF Latin Plus glyph
</note>
  <outline>
    <contour>
      <point x="106.942" y="485.63"/>
      <point x="73" y="269" type="curve" smooth="yes"/>
      <point x="68.982" y="244.089"/>
      <point x="68" y="218.115"/>
      <point x="68" y="185" type="curve" smooth="yes"/>
      <point x="68" y="64"/>
      <point x="138" y="-6"/>
      <point x="289" y="-6" type="curve" smooth="yes"/>
      <point x="466" y="-6"/>
      <point x="557" y="38"/>
      <point x="586" y="235" type="curve"/>
      <point x="562" y="281"/>
      <point x="539" y="328"/>
      <point x="515" y="374" type="curve"/>
      <point x="515" y="459.928"/>
      <point x="425.643" y="525"/>
      <point x="324" y="525" type="curve" smooth="yes"/>
      <point x="183.218" y="525"/>
    </contour>
    <contour>
      <point x="260.192" y="223.043"/>
      <point x="263" y="242" type="curve" smooth="yes"/>
      <point x="278" y="350"/>
      <point x="291" y="374"/>
      <point x="347" y="374" type="curve" smooth="yes"/>
      <point x="385.423" y="374"/>
      <point x="401" y="366.143"/>
      <point x="401" y="341" type="curve" smooth="yes"/>
      <point x="401" y="319.297"/>
      <point x="397.342" y="295.003"/>
      <point x="393" y="262" type="curve" smooth="yes"/>
      <point x="378" y="170"/>
      <point x="365" y="149"/>
      <point x="309" y="149" type="curve" smooth="yes"/>
      <point x="273" y="149"/>
      <point x="260" y="160"/>
      <point x="260" y="194" type="curve" smooth="yes"/>
      <point x="260" y="208.118"/>
    </contour>
    <contour>
      <point x="212" y="763" type="curve"/>
      <point x="192" y="639" type="line"/>
      <point x="376" y="639"/>
      <point x="450" y="604"/>
      <point x="450" y="463" type="curve" smooth="yes"/>
      <point x="450" y="429"/>
      <point x="446" y="390"/>
      <point x="439" y="345" type="curve"/>
      <point x="586" y="235" type="line"/>
      <point x="599" y="318"/>
      <point x="607" y="388.852"/>
      <point x="607" y="452" type="curve" smooth="yes"/>
      <point x="607" y="680"/>
      <point x="488" y="763"/>
    </contour>
    <contour>
      <point x="602" y="762" type="line"/>
      <point x="206" y="601" type="line"/>
      <point x="223" y="542" type="line"/>
      <point x="618" y="703" type="line"/>
    </contour>
  </outline>
</glyph>
<glyph name="divide" format="2">
  <advance width="609"/>
  <unicode hex="00F7"/>
  <note>
GF Latin Plus glyph
</note>
  <outline>
    <contour>
      <point x="263" y="74" type="curve" smooth="yes"/>
      <point x="375" y="74" type="line" smooth="yes"/>
      <point x="389" y="74"/>
      <point x="401" y="79"/>
      <point x="404" y="97" type="curve" smooth="yes"/>
      <point x="419" y="194" type="line" smooth="yes"/>
      <point x="422" y="210"/>
      <point x="416" y="219"/>
      <point x="398" y="219" type="curve" smooth="yes"/>
      <point x="286" y="219" type="line" smooth="yes"/>
      <point x="270" y="219"/>
      <point x="261" y="209"/>
      <point x="258" y="194" type="curve" smooth="yes"/>
      <point x="243" y="97" type="line" smooth="yes"/>
      <point x="241" y="83"/>
      <point x="249" y="74"/>
    </contour>
    <contour>
      <point x="330" y="493" type="curve" smooth="yes"/>
      <point x="442" y="493" type="line" smooth="yes"/>
      <point x="456" y="493"/>
      <point x="467" y="498"/>
      <point x="470" y="516" type="curve" smooth="yes"/>
      <point x="486" y="613" type="line" smooth="yes"/>
      <point x="488" y="629"/>
      <point x="483" y="638"/>
      <point x="465" y="638" type="curve" smooth="yes"/>
      <point x="353" y="638" type="line" smooth="yes"/>
      <point x="337" y="638"/>
      <point x="327" y="628"/>
      <point x="325" y="613" type="curve" smooth="yes"/>
      <point x="309" y="516" type="line" smooth="yes"/>
      <point x="307" y="502"/>
      <point x="316" y="493"/>
    </contour>
    <component base="minus"/>
  </outline>
</glyph>
<glyph name="oslash" format="2">
  <advance width="574"/>
  <unicode hex="00F8"/>
  <note>
GF Latin Plus glyph
</note>
  <anchor x="347" y="650" name="top"/>
  <outline>
    <contour>
      <point x="15" y="0" type="line"/>
      <point x="101" y="0" type="line"/>
      <point x="644" y="539" type="line"/>
      <point x="558" y="539" type="line"/>
    </contour>
    <component base="o"/>
  </outline>
</glyph>
<glyph name="thorn" format="2">
  <advance width="581"/>
  <unicode hex="00FE"/>
  <note>
GF Latin Plus glyph
</note>
  <outline>
    <contour>
      <point x="5" y="-237" type="line"/>
      <point x="200" y="-237" type="line"/>
      <point x="239" y="9" type="line"/>
      <point x="256.135" y="-1.079"/>
      <point x="295.596" y="-6"/>
      <point x="334" y="-6" type="curve" smooth="yes"/>
      <point x="451.53" y="-6"/>
      <point x="556.003" y="64.017"/>
      <point x="584" y="238" type="curve" smooth="yes"/>
      <point x="590" y="278"/>
      <point x="594" y="315"/>
      <point x="594" y="348" type="curve" smooth="yes"/>
      <point x="594" y="477"/>
      <point x="549.247" y="545"/>
      <point x="413" y="545" type="curve" smooth="yes"/>
      <point x="382.659" y="545"/>
      <point x="352.315" y="544.034"/>
      <point x="324" y="541" type="curve"/>
      <point x="359" y="763" type="line"/>
      <point x="164" y="763" type="line"/>
    </contour>
    <contour>
      <point x="308" y="158" type="curve" smooth="yes"/>
      <point x="288" y="158"/>
      <point x="271" y="161"/>
      <point x="263" y="165" type="curve"/>
      <point x="299" y="390" type="line"/>
      <point x="355" y="390" type="line" smooth="yes"/>
      <point x="389.56" y="390"/>
      <point x="403" y="365"/>
      <point x="403" y="313" type="curve" smooth="yes"/>
      <point x="403" y="301"/>
      <point x="401" y="288"/>
      <point x="399" y="274" type="curve" smooth="yes"/>
      <point x="384.004" y="185.027"/>
      <point x="353.5" y="158"/>
    </contour>
  </outline>
</glyph>
<glyph name="Hbar" format="2">
  <advance width="708"/>
  <unicode hex="0126"/>
  <note>
GF Latin Plus glyph
</note>
  <outline>
    <contour>
      <point x="91" y="513" type="line"/>
      <point x="789" y="513" type="line"/>
      <point x="804" y="607" type="line"/>
      <point x="106" y="607" type="line"/>
    </contour>
    <component base="H"/>
  </outline>
</glyph>
<glyph name="Lslash" format="2">
  <advance width="537"/>
  <unicode hex="0141"/>
  <note>
GF Latin Plus glyph
</note>
  <outline>
    <contour>
      <point x="47" y="297" type="line"/>
      <point x="136" y="333" type="line"/>
      <point x="294" y="375" type="line"/>
      <point x="448" y="438" type="line"/>
      <point x="464" y="539" type="line"/>
      <point x="310" y="476" type="line"/>
      <point x="152" y="434" type="line"/>
      <point x="63" y="398" type="line"/>
    </contour>
    <component base="L"/>
  </outline>
</glyph>
<glyph name="lslash" format="2">
  <advance width="342"/>
  <unicode hex="0142"/>
  <note>
GF Latin Plus glyph
</note>
  <outline>
    <contour>
      <point x="45" y="326" type="line"/>
      <point x="103" y="349" type="line"/>
      <point x="303" y="412" type="line"/>
      <point x="388" y="446" type="line"/>
      <point x="404" y="547" type="line"/>
      <point x="319" y="513" type="line"/>
      <point x="119" y="450" type="line"/>
      <point x="61" y="427" type="line"/>
    </contour>
    <component base="l"/>
  </outline>
</glyph>
<glyph name="Eng" format="2">
  <advance width="709"/>
  <unicode hex="014A"/>
  <note>
GF Latin Plus glyph
</note>
  <outline>
    <contour>
      <point x="417" y="-243" type="curve" smooth="yes"/>
      <point x="569" y="-243"/>
      <point x="638" y="-167"/>
      <point x="658" y="-39" type="curve" smooth="yes"/>
      <point x="677" y="83" type="line"/>
      <point x="483" y="79" type="line"/>
      <point x="469" y="-9" type="line" smooth="yes"/>
      <point x="463" y="-45"/>
      <point x="445" y="-69"/>
      <point x="406" y="-69" type="curve" smooth="yes"/>
      <point x="377" y="-69"/>
      <point x="347" y="-69"/>
      <point x="318" y="-69" type="curve"/>
      <point x="293" y="-225" type="line"/>
      <point x="322" y="-234"/>
      <point x="369" y="-243"/>
    </contour>
    <component base="N"/>
  </outline>
</glyph>
<glyph name="oe" format="2">
  <advance width="869.887"/>
  <unicode hex="0153"/>
  <note>
GF Latin Plus glyph
</note>
  <outline>
    <contour>
      <point x="279" y="-6" type="curve" smooth="yes"/>
      <point x="358.435" y="-6"/>
      <point x="416" y="16"/>
      <point x="469" y="45" type="curve"/>
      <point x="506" y="13"/>
      <point x="549" y="-6"/>
      <point x="634" y="-6" type="curve" smooth="yes"/>
      <point x="701" y="-6"/>
      <point x="782.35" y="7.587"/>
      <point x="840" y="22" type="curve"/>
      <point x="858" y="135" type="line"/>
      <point x="679" y="135" type="line" smooth="yes"/>
      <point x="614" y="135"/>
      <point x="580" y="148"/>
      <point x="580" y="178" type="curve" smooth="yes"/>
      <point x="580" y="184"/>
      <point x="581.088" y="192.53"/>
      <point x="582" y="198" type="curve"/>
      <point x="604" y="193"/>
      <point x="638" y="190"/>
      <point x="678" y="190" type="curve" smooth="yes"/>
      <point x="801.557" y="190"/>
      <point x="900" y="220.279"/>
      <point x="900" y="376" type="curve" smooth="yes"/>
      <point x="900" y="516"/>
      <point x="792.28" y="545"/>
      <point x="696" y="545" type="curve" smooth="yes"/>
      <point x="628.121" y="545"/>
      <point x="576" y="522"/>
      <point x="528" y="477" type="curve"/>
      <point x="485" y="524"/>
      <point x="428" y="545"/>
      <point x="365" y="545" type="curve" smooth="yes"/>
      <point x="191" y="545"/>
      <point x="109.973" y="505.829"/>
      <point x="76" y="289" type="curve" smooth="yes"/>
      <point x="71" y="258"/>
      <point x="68" y="226"/>
      <point x="68" y="185" type="curve" smooth="yes"/>
      <point x="68" y="64"/>
      <point x="134.833" y="-6"/>
    </contour>
    <contour>
      <point x="309" y="149" type="curve" smooth="yes"/>
      <point x="273" y="149"/>
      <point x="260" y="160"/>
      <point x="260" y="194" type="curve" smooth="yes"/>
      <point x="260" y="214"/>
      <point x="262" y="235"/>
      <point x="266" y="262" type="curve" smooth="yes"/>
      <point x="281" y="370"/>
      <point x="294" y="394"/>
      <point x="350" y="394" type="curve" smooth="yes"/>
      <point x="387" y="394"/>
      <point x="402" y="385"/>
      <point x="402" y="353" type="curve" smooth="yes"/>
      <point x="402" y="328"/>
      <point x="398" y="300"/>
      <point x="393" y="262" type="curve" smooth="yes"/>
      <point x="378" y="170"/>
      <point x="365" y="149"/>
    </contour>
    <contour>
      <point x="633" y="295" type="curve" smooth="yes"/>
      <point x="621" y="295"/>
      <point x="607" y="297"/>
      <point x="594" y="299" type="curve"/>
      <point x="606" y="364"/>
      <point x="629" y="398"/>
      <point x="673" y="398" type="curve" smooth="yes"/>
      <point x="705" y="398"/>
      <point x="720" y="381"/>
      <point x="720" y="355" type="curve" smooth="yes"/>
      <point x="720" y="318"/>
      <point x="707" y="295"/>
    </contour>
  </outline>
</glyph>
<glyph name="Tbar" format="2">
  <advance width="600"/>
  <unicode hex="0166"/>
  <note>
GF Latin Plus glyph
</note>
  <outline>
    <contour>
      <point x="96" y="333" type="line"/>
      <point x="611" y="333" type="line"/>
      <point x="626" y="427" type="line"/>
      <point x="111" y="427" type="line"/>
    </contour>
    <component base="T"/>
  </outline>
</glyph>
<glyph name="tbar" format="2">
  <advance width="403"/>
  <unicode hex="0167"/>
  <note>
GF Latin Plus glyph
</note>
  <outline>
    <contour>
      <point x="38" y="246" type="line"/>
      <point x="416" y="246" type="line"/>
      <point x="428" y="320" type="line"/>
      <point x="50" y="320" type="line"/>
    </contour>
    <component base="t"/>
  </outline>
</glyph>
<glyph name="florin" format="2">
  <advance width="609"/>
  <unicode hex="0192"/>
  <note>
GF Latin Plus glyph
</note>
  <outline>
    <contour>
      <point x="104" y="-204" type="curve" smooth="yes"/>
      <point x="236" y="-204"/>
      <point x="313" y="-98"/>
      <point x="375" y="88" type="curve" smooth="yes"/>
      <point x="465" y="357" type="line"/>
      <point x="555" y="357" type="line"/>
      <point x="597" y="491" type="line"/>
      <point x="502" y="491" type="line"/>
      <point x="532" y="575" type="line" smooth="yes"/>
      <point x="548" y="620"/>
      <point x="572" y="656"/>
      <point x="631" y="656" type="curve" smooth="yes"/>
      <point x="669" y="656" type="line"/>
      <point x="706" y="775" type="line"/>
      <point x="690" y="784"/>
      <point x="657" y="800"/>
      <point x="583" y="800" type="curve" smooth="yes"/>
      <point x="458" y="800"/>
      <point x="387" y="713"/>
      <point x="358" y="632" type="curve" smooth="yes"/>
      <point x="308" y="491" type="line"/>
      <point x="234" y="491" type="line"/>
      <point x="192" y="357" type="line"/>
      <point x="271" y="357" type="line"/>
      <point x="165" y="37" type="line" smooth="yes"/>
      <point x="142" y="-32"/>
      <point x="114" y="-60"/>
      <point x="60" y="-60" type="curve" smooth="yes"/>
      <point x="20" y="-60" type="line"/>
      <point x="-17" y="-179" type="line"/>
      <point x="0" y="-190"/>
      <point x="43" y="-204"/>
    </contour>
  </outline>
</glyph>
<glyph name="jdotless" format="2">
  <advance width="281"/>
  <unicode hex="0237"/>
  <note>
GF Latin Plus glyph
</note>
  <anchor x="243" y="650" name="top"/>
  <outline>
    <contour>
      <point x="7" y="-237" type="line"/>
      <point x="151" y="-237" type="line"/>
      <point x="185.797" y="-172.759"/>
      <point x="224.66" y="-88.228"/>
      <point x="238" y="-4" type="curve" smooth="yes"/>
      <point x="324" y="539" type="line"/>
      <point x="130" y="539" type="line"/>
    </contour>
  </outline>
</glyph>
<glyph name="circumflex" format="2">
  <advance width="378"/>
  <unicode hex="02C6"/>
  <note>
GF Latin Plus glyph
</note>
  <outline>
    <contour>
      <point x="128" y="631" type="line"/>
      <point x="240" y="631" type="line"/>
      <point x="300" y="692" type="line"/>
      <point x="339" y="631" type="line"/>
      <point x="450" y="631" type="line"/>
      <point x="382" y="777" type="line"/>
      <point x="251" y="777" type="line"/>
    </contour>
  </outline>
</glyph>
<glyph name="caron" format="2">
  <advance width="378"/>
  <unicode hex="02C7"/>
  <note>
GF Latin Plus glyph
</note>
  <outline>
    <contour>
      <point x="219" y="631" type="line"/>
      <point x="350" y="631" type="line"/>
      <point x="473" y="777" type="line"/>
      <point x="361" y="777" type="line"/>
      <point x="301" y="716" type="line"/>
      <point x="262" y="777" type="line"/>
      <point x="151" y="777" type="line"/>
    </contour>
  </outline>
</glyph>
<glyph name="breve" format="2">
  <advance width="346"/>
  <unicode hex="02D8"/>
  <note>
GF Latin Plus glyph
</note>
  <outline>
    <contour>
      <point x="270" y="620" type="curve" smooth="yes"/>
      <point x="367" y="620"/>
      <point x="425" y="673"/>
      <point x="441" y="777" type="curve"/>
      <point x="350" y="777" type="line"/>
      <point x="342" y="725"/>
      <point x="317" y="707"/>
      <point x="284" y="707" type="curve" smooth="yes"/>
      <point x="261" y="707"/>
      <point x="238" y="719"/>
      <point x="238" y="757" type="curve" smooth="yes"/>
      <point x="238" y="763"/>
      <point x="239" y="770"/>
      <point x="240" y="777" type="curve"/>
      <point x="151" y="777" type="line"/>
      <point x="149" y="762"/>
      <point x="147" y="748"/>
      <point x="147" y="735" type="curve" smooth="yes"/>
      <point x="147" y="659"/>
      <point x="189" y="620"/>
    </contour>
  </outline>
</glyph>
<glyph name="ogonek" format="2">
  <advance width="197"/>
  <unicode hex="02DB"/>
  <note>
GF Latin Plus glyph
</note>
  <outline>
    <contour>
      <point x="103" y="-196" type="curve" smooth="yes"/>
      <point x="119" y="-196"/>
      <point x="133" y="-194"/>
      <point x="140" y="-191" type="curve"/>
      <point x="154" y="-101" type="line"/>
      <point x="144" y="-101" type="line" smooth="yes"/>
      <point x="124" y="-101"/>
      <point x="108" y="-88"/>
      <point x="108" y="-66" type="curve" smooth="yes"/>
      <point x="108" y="-51"/>
      <point x="119" y="-24"/>
      <point x="157" y="0" type="curve"/>
      <point x="88" y="0" type="line"/>
      <point x="43" y="-24"/>
      <point x="9" y="-64"/>
      <point x="9" y="-120" type="curve" smooth="yes"/>
      <point x="9" y="-157"/>
      <point x="31" y="-196"/>
    </contour>
  </outline>
</glyph>
<glyph name="tilde" format="2">
  <advance width="404"/>
  <unicode hex="02DC"/>
  <note>
GF Latin Plus glyph
</note>
  <outline>
    <contour>
      <point x="117" y="625" type="curve"/>
      <point x="213" y="625" type="line"/>
      <point x="218" y="638"/>
      <point x="228" y="656"/>
      <point x="249" y="656" type="curve" smooth="yes"/>
      <point x="276" y="656"/>
      <point x="330" y="627"/>
      <point x="387" y="627" type="curve" smooth="yes"/>
      <point x="452" y="627"/>
      <point x="491" y="666"/>
      <point x="518" y="769" type="curve"/>
      <point x="422" y="769" type="line"/>
      <point x="418" y="747"/>
      <point x="407" y="733"/>
      <point x="387" y="733" type="curve" smooth="yes"/>
      <point x="352" y="733"/>
      <point x="310" y="762"/>
      <point x="250" y="762" type="curve" smooth="yes"/>
      <point x="192" y="762"/>
      <point x="143" y="729"/>
    </contour>
  </outline>
</glyph>
<glyph name="dieresiscomb" format="2">
  <unicode hex="0308"/>
  <note>
GF Latin Plus glyph
</note>
  <anchor x="-269" y="650" name="_top"/>
  <outline>
    <contour>
      <point x="-214" y="627" type="curve" smooth="yes"/>
      <point x="-124" y="627" type="line" smooth="yes"/>
      <point x="-110" y="627"/>
      <point x="-99" y="635"/>
      <point x="-97" y="650" type="curve" smooth="yes"/>
      <point x="-79" y="763"/>
      <point x="-79" y="765"/>
      <point x="-79" y="766" type="curve" smooth="yes"/>
      <point x="-79" y="778"/>
      <point x="-85" y="786"/>
      <point x="-99" y="786" type="curve" smooth="yes"/>
      <point x="-189" y="786" type="line" smooth="yes"/>
      <point x="-205" y="786"/>
      <point x="-213" y="776"/>
      <point x="-215" y="761" type="curve" smooth="yes"/>
      <point x="-233" y="649"/>
      <point x="-234" y="647"/>
      <point x="-234" y="646" type="curve" smooth="yes"/>
      <point x="-234" y="634"/>
      <point x="-226" y="627"/>
    </contour>
    <contour>
      <point x="-411" y="627" type="curve" smooth="yes"/>
      <point x="-321" y="627" type="line" smooth="yes"/>
      <point x="-307" y="627"/>
      <point x="-296" y="635"/>
      <point x="-294" y="650" type="curve" smooth="yes"/>
      <point x="-276" y="763"/>
      <point x="-276" y="765"/>
      <point x="-276" y="766" type="curve" smooth="yes"/>
      <point x="-276" y="778"/>
      <point x="-282" y="786"/>
      <point x="-296" y="786" type="curve" smooth="yes"/>
      <point x="-386" y="786" type="line" smooth="yes"/>
      <point x="-402" y="786"/>
      <point x="-410" y="776"/>
      <point x="-412" y="761" type="curve" smooth="yes"/>
      <point x="-430" y="649"/>
      <point x="-431" y="647"/>
      <point x="-431" y="646" type="curve" smooth="yes"/>
      <point x="-431" y="634"/>
      <point x="-423" y="627"/>
    </contour>
  </outline>
</glyph>
<glyph name="Omega" format="2">
  <advance width="751"/>
  <unicode hex="03A9"/>
  <outline>
    <contour>
      <point x="32" y="0" type="line"/>
      <point x="320" y="0" type="line"/>
      <point x="347" y="168" type="line"/>
      <point x="306" y="219"/>
      <point x="287" y="272"/>
      <point x="287" y="334" type="curve" smooth="yes"/>
      <point x="287" y="436"/>
      <point x="309" y="565"/>
      <point x="457" y="565" type="curve" smooth="yes"/>
      <point x="560" y="565"/>
      <point x="582" y="500"/>
      <point x="582" y="440" type="curve" smooth="yes"/>
      <point x="582" y="334"/>
      <point x="539" y="241"/>
      <point x="464" y="168" type="curve"/>
      <point x="437" y="0" type="line"/>
      <point x="725" y="0" type="line"/>
      <point x="750" y="157" type="line"/>
      <point x="640" y="167" type="line"/>
      <point x="711" y="240"/>
      <point x="780" y="346"/>
      <point x="780" y="481" type="curve" smooth="yes"/>
      <point x="780" y="627"/>
      <point x="704" y="739"/>
      <point x="483" y="739" type="curve" smooth="yes"/>
      <point x="185" y="739"/>
      <point x="96" y="517"/>
      <point x="96" y="361" type="curve" smooth="yes"/>
      <point x="96" y="265"/>
      <point x="127" y="203"/>
      <point x="170" y="168" type="curve"/>
      <point x="57" y="158" type="line"/>
    </contour>
  </outline>
</glyph>
<glyph name="mu" format="2">
  <advance width="600"/>
  <unicode hex="03BC"/>
  <note>
GF Latin Plus glyph
</note>
  <outline>
    <contour>
      <point x="265" y="-6" type="curve" smooth="yes"/>
      <point x="317" y="-6"/>
      <point x="350" y="15"/>
      <point x="380" y="52" type="curve"/>
      <point x="394" y="0" type="line"/>
      <point x="556" y="0" type="line"/>
      <point x="641" y="539" type="line"/>
      <point x="447" y="539" type="line"/>
      <point x="393" y="196" type="line"/>
      <point x="375" y="178"/>
      <point x="345" y="165"/>
      <point x="315" y="165" type="curve" smooth="yes"/>
      <point x="288" y="165"/>
      <point x="269" y="173"/>
      <point x="269" y="202" type="curve" smooth="yes"/>
      <point x="269" y="207"/>
      <point x="270" y="212"/>
      <point x="270" y="217" type="curve" smooth="yes"/>
      <point x="321" y="539" type="line"/>
      <point x="127" y="539" type="line"/>
      <point x="72" y="191" type="line" smooth="yes"/>
      <point x="71" y="181"/>
      <point x="70" y="172"/>
      <point x="70" y="162" type="curve" smooth="yes"/>
      <point x="70" y="50"/>
      <point x="184" y="-6"/>
    </contour>
    <contour>
      <point x="-1" y="-270" type="line"/>
      <point x="193" y="-270" type="line"/>
      <point x="276" y="255" type="line"/>
      <point x="82" y="255" type="line"/>
    </contour>
  </outline>
</glyph>
<glyph name="pi" format="2">
  <advance width="650"/>
  <unicode hex="03C0"/>
  <outline>
    <contour>
      <point x="490" y="-6" type="curve" smooth="yes"/>
      <point x="551" y="-6"/>
      <point x="588" y="10"/>
      <point x="613" y="26" type="curve"/>
      <point x="631" y="140" type="line"/>
      <point x="593" y="140" type="line" smooth="yes"/>
      <point x="570" y="140"/>
      <point x="559" y="143"/>
      <point x="559" y="163" type="curve" smooth="yes"/>
      <point x="559" y="166"/>
      <point x="559" y="171"/>
      <point x="560" y="176" type="curve" smooth="yes"/>
      <point x="590" y="365" type="line"/>
      <point x="659" y="365" type="line"/>
      <point x="686" y="539" type="line"/>
      <point x="96" y="539" type="line"/>
      <point x="69" y="365" type="line"/>
      <point x="135" y="365" type="line"/>
      <point x="77" y="0" type="line"/>
      <point x="271" y="0" type="line"/>
      <point x="329" y="365" type="line"/>
      <point x="396" y="365" type="line"/>
      <point x="364" y="166" type="line" smooth="yes"/>
      <point x="362" y="150"/>
      <point x="360" y="134"/>
      <point x="360" y="120" type="curve" smooth="yes"/>
      <point x="360" y="38"/>
      <point x="405" y="-6"/>
    </contour>
  </outline>
</glyph>
<glyph name="Germandbls" format="2">
  <advance width="757"/>
  <unicode hex="1E9E"/>
  <note>
GF Latin Plus glyph
</note>
  <outline>
    <contour>
      <point x="55" y="0" type="line"/>
      <point x="249" y="0" type="line"/>
      <point x="332" y="522" type="line" smooth="yes"/>
      <point x="336" y="548"/>
      <point x="355" y="569"/>
      <point x="396" y="569" type="curve" smooth="yes"/>
      <point x="648" y="569" type="line"/>
      <point x="769" y="730" type="line"/>
      <point x="674.961" y="735.532"/>
      <point x="568.997" y="743"/>
      <point x="416" y="743" type="curve" smooth="yes"/>
      <point x="284" y="743"/>
      <point x="163" y="683"/>
      <point x="137" y="519" type="curve" smooth="yes"/>
    </contour>
    <contour>
      <point x="477" y="-6" type="curve" smooth="yes"/>
      <point x="627" y="-6"/>
      <point x="722" y="28"/>
      <point x="754" y="195" type="curve" smooth="yes"/>
      <point x="762" y="236"/>
      <point x="765" y="261.825"/>
      <point x="765" y="276" type="curve" smooth="yes"/>
      <point x="765" y="384.319"/>
      <point x="678.439" y="424"/>
      <point x="568" y="424" type="curve" smooth="yes"/>
      <point x="399" y="424" type="line"/>
      <point x="375" y="270" type="line"/>
      <point x="508" y="270" type="line" smooth="yes"/>
      <point x="548" y="270"/>
      <point x="563" y="257"/>
      <point x="563" y="234" type="curve" smooth="yes"/>
      <point x="563" y="229"/>
      <point x="562" y="224"/>
      <point x="561" y="218" type="curve" smooth="yes"/>
      <point x="555" y="180"/>
      <point x="528" y="168"/>
      <point x="475" y="168" type="curve" smooth="yes"/>
      <point x="433" y="168"/>
      <point x="379" y="179"/>
      <point x="339" y="189" type="curve"/>
      <point x="311" y="15" type="line"/>
      <point x="358" y="2"/>
      <point x="424" y="-6"/>
    </contour>
    <contour>
      <point x="565" y="376" type="line"/>
      <point x="745" y="579" type="line"/>
      <point x="769" y="730" type="line"/>
      <point x="529" y="574" type="line"/>
      <point x="399" y="424" type="line"/>
    </contour>
  </outline>
</glyph>
<glyph name="endash" format="2">
  <advance width="513"/>
  <unicode hex="2013"/>
  <note>
GF Latin Plus glyph
</note>
  <outline>
    <contour>
      <point x="54" y="212" type="line"/>
      <point x="527" y="212" type="line"/>
      <point x="551" y="367" type="line"/>
      <point x="78" y="367" type="line"/>
    </contour>
  </outline>
</glyph>
<glyph name="emdash" format="2">
  <advance width="736"/>
  <unicode hex="2014"/>
  <note>
GF Latin Plus glyph
</note>
  <outline>
    <contour>
      <point x="54" y="212" type="line"/>
      <point x="750" y="212" type="line"/>
      <point x="774" y="367" type="line"/>
      <point x="78" y="367" type="line"/>
    </contour>
  </outline>
</glyph>
<glyph name="quoteright" format="2">
  <advance width="250"/>
  <unicode hex="2019"/>
  <note>
GF Latin Plus glyph
</note>
  <outline>
    <contour>
      <point x="158" y="472" type="curve" smooth="yes"/>
      <point x="208" y="472"/>
      <point x="282" y="487"/>
      <point x="296" y="573" type="curve" smooth="yes"/>
      <point x="321" y="733" type="line" smooth="yes"/>
      <point x="321" y="736"/>
      <point x="322" y="738"/>
      <point x="322" y="740" type="curve" smooth="yes"/>
      <point x="322" y="752"/>
      <point x="316" y="760"/>
      <point x="301" y="760" type="curve" smooth="yes"/>
      <point x="180" y="760" type="line" smooth="yes"/>
      <point x="164" y="760"/>
      <point x="154" y="751"/>
      <point x="151" y="733" type="curve" smooth="yes"/>
      <point x="133" y="619" type="line" smooth="yes"/>
      <point x="133" y="617"/>
      <point x="133" y="615"/>
      <point x="133" y="614" type="curve" smooth="yes"/>
      <point x="133" y="600"/>
      <point x="142" y="594"/>
      <point x="154" y="594" type="curve" smooth="yes"/>
      <point x="165" y="594" type="line"/>
      <point x="163" y="579" type="line" smooth="yes"/>
      <point x="161" y="569"/>
      <point x="157" y="548"/>
      <point x="127" y="548" type="curve"/>
      <point x="115" y="476" type="line"/>
      <point x="125" y="473"/>
      <point x="134" y="472"/>
    </contour>
  </outline>
</glyph>
<glyph name="dagger" format="2">
  <advance width="486"/>
  <unicode hex="2020"/>
  <note>
GF Latin Plus glyph
</note>
  <outline>
    <contour>
      <point x="145" y="-72" type="line"/>
      <point x="318" y="-72" type="line"/>
      <point x="408" y="409" type="line"/>
      <point x="542" y="424" type="line"/>
      <point x="566" y="573" type="line"/>
      <point x="436" y="588" type="line"/>
      <point x="452" y="770" type="line"/>
      <point x="279" y="770" type="line"/>
      <point x="237" y="588" type="line"/>
      <point x="102" y="573" type="line"/>
      <point x="78" y="424" type="line"/>
      <point x="209" y="409" type="line"/>
    </contour>
  </outline>
</glyph>
<glyph name="daggerdbl" format="2">
  <advance width="497"/>
  <unicode hex="2021"/>
  <note>
GF Latin Plus glyph
</note>
  <outline>
    <contour>
      <point x="144" y="-72" type="line"/>
      <point x="317" y="-72" type="line"/>
      <point x="358" y="107" type="line"/>
      <point x="495" y="124" type="line"/>
      <point x="518" y="273" type="line"/>
      <point x="389" y="291" type="line"/>
      <point x="408" y="409" type="line"/>
      <point x="542" y="424" type="line"/>
      <point x="566" y="573" type="line"/>
      <point x="436" y="588" type="line"/>
      <point x="452" y="770" type="line"/>
      <point x="279" y="770" type="line"/>
      <point x="237" y="588" type="line"/>
      <point x="102" y="573" type="line"/>
      <point x="78" y="424" type="line"/>
      <point x="209" y="409" type="line"/>
      <point x="190" y="292" type="line"/>
      <point x="54" y="273" type="line"/>
      <point x="31" y="124" type="line"/>
      <point x="159" y="105" type="line"/>
    </contour>
  </outline>
</glyph>
<glyph name="bullet" format="2">
  <advance width="306"/>
  <unicode hex="2022"/>
  <note>
GF Latin Plus glyph
</note>
  <outline>
    <contour>
      <point x="123" y="274" type="curve" smooth="yes"/>
      <point x="267" y="274" type="line" smooth="yes"/>
      <point x="287" y="274"/>
      <point x="304" y="282"/>
      <point x="308" y="306" type="curve" smooth="yes"/>
      <point x="332" y="456" type="line" smooth="yes"/>
      <point x="336" y="478"/>
      <point x="328" y="491"/>
      <point x="303" y="491" type="curve" smooth="yes"/>
      <point x="159" y="491" type="line" smooth="yes"/>
      <point x="137" y="491"/>
      <point x="123" y="477"/>
      <point x="120" y="456" type="curve" smooth="yes"/>
      <point x="96" y="306" type="line" smooth="yes"/>
      <point x="93" y="286"/>
      <point x="103" y="274"/>
    </contour>
  </outline>
</glyph>
<glyph name="ellipsis" format="2">
  <advance width="816"/>
  <unicode hex="2026"/>
  <note>
GF Latin Plus glyph
</note>
  <outline>
    <contour>
      <point x="623" y="0" type="curve" smooth="yes"/>
      <point x="736" y="0" type="line" smooth="yes"/>
      <point x="750" y="0"/>
      <point x="762" y="5"/>
      <point x="765" y="23" type="curve" smooth="yes"/>
      <point x="783" y="140" type="line" smooth="yes"/>
      <point x="784" y="142"/>
      <point x="784" y="145"/>
      <point x="784" y="147" type="curve" smooth="yes"/>
      <point x="784" y="159"/>
      <point x="777" y="165"/>
      <point x="762" y="165" type="curve" smooth="yes"/>
      <point x="649" y="165" type="line" smooth="yes"/>
      <point x="633" y="165"/>
      <point x="624" y="155"/>
      <point x="621" y="140" type="curve" smooth="yes"/>
      <point x="603" y="23" type="line" smooth="yes"/>
      <point x="602" y="22"/>
      <point x="602" y="20"/>
      <point x="602" y="19" type="curve" smooth="yes"/>
      <point x="602" y="7"/>
      <point x="610" y="0"/>
    </contour>
    <contour>
      <point x="79" y="0" type="curve" smooth="yes"/>
      <point x="192" y="0" type="line" smooth="yes"/>
      <point x="206" y="0"/>
      <point x="218" y="5"/>
      <point x="221" y="23" type="curve" smooth="yes"/>
      <point x="239" y="140" type="line" smooth="yes"/>
      <point x="240" y="142"/>
      <point x="240" y="145"/>
      <point x="240" y="147" type="curve" smooth="yes"/>
      <point x="240" y="159"/>
      <point x="233" y="165"/>
      <point x="218" y="165" type="curve" smooth="yes"/>
      <point x="105" y="165" type="line" smooth="yes"/>
      <point x="89" y="165"/>
      <point x="80" y="155"/>
      <point x="77" y="140" type="curve" smooth="yes"/>
      <point x="59" y="23" type="line" smooth="yes"/>
      <point x="58" y="22"/>
      <point x="58" y="20"/>
      <point x="58" y="19" type="curve" smooth="yes"/>
      <point x="58" y="7"/>
      <point x="66" y="0"/>
    </contour>
    <contour>
      <point x="351" y="0" type="curve" smooth="yes"/>
      <point x="464" y="0" type="line" smooth="yes"/>
      <point x="478" y="0"/>
      <point x="490" y="5"/>
      <point x="493" y="23" type="curve" smooth="yes"/>
      <point x="511" y="140" type="line" smooth="yes"/>
      <point x="512" y="142"/>
      <point x="512" y="145"/>
      <point x="512" y="147" type="curve" smooth="yes"/>
      <point x="512" y="159"/>
      <point x="505" y="165"/>
      <point x="490" y="165" type="curve" smooth="yes"/>
      <point x="377" y="165" type="line" smooth="yes"/>
      <point x="361" y="165"/>
      <point x="352" y="155"/>
      <point x="349" y="140" type="curve" smooth="yes"/>
      <point x="331" y="23" type="line" smooth="yes"/>
      <point x="330" y="22"/>
      <point x="330" y="20"/>
      <point x="330" y="19" type="curve" smooth="yes"/>
      <point x="330" y="7"/>
      <point x="338" y="0"/>
    </contour>
  </outline>
</glyph>
<glyph name="perthousand" format="2">
  <advance width="1378"/>
  <unicode hex="2030"/>
  <note>
GF Latin Plus glyph
</note>
  <outline>
    <contour>
      <point x="192" y="0" type="line"/>
      <point x="323" y="0" type="line"/>
      <point x="886" y="732" type="line"/>
      <point x="762" y="732" type="line"/>
    </contour>
    <contour>
      <point x="216" y="349" type="curve" smooth="yes"/>
      <point x="317" y="349" type="line" smooth="yes"/>
      <point x="418" y="349"/>
      <point x="464" y="399"/>
      <point x="478" y="484" type="curve" smooth="yes"/>
      <point x="496" y="597" type="line" smooth="yes"/>
      <point x="498" y="609"/>
      <point x="499" y="621"/>
      <point x="499" y="632" type="curve" smooth="yes"/>
      <point x="499" y="696"/>
      <point x="464" y="732"/>
      <point x="380" y="732" type="curve" smooth="yes"/>
      <point x="279" y="732" type="line" smooth="yes"/>
      <point x="178" y="732"/>
      <point x="132" y="682"/>
      <point x="119" y="597" type="curve" smooth="yes"/>
      <point x="101" y="484" type="line" smooth="yes"/>
      <point x="99" y="472"/>
      <point x="98" y="460"/>
      <point x="98" y="449" type="curve" smooth="yes"/>
      <point x="98" y="385"/>
      <point x="133" y="349"/>
    </contour>
    <contour>
      <point x="261" y="474" type="line" smooth="yes"/>
      <point x="236" y="474"/>
      <point x="229" y="485"/>
      <point x="229" y="500" type="curve" smooth="yes"/>
      <point x="229" y="504"/>
      <point x="230" y="509"/>
      <point x="230" y="514" type="curve" smooth="yes"/>
      <point x="239" y="567" type="line" smooth="yes"/>
      <point x="244" y="601"/>
      <point x="262" y="607"/>
      <point x="284" y="607" type="curve" smooth="yes"/>
      <point x="335" y="607" type="line" smooth="yes"/>
      <point x="356" y="607"/>
      <point x="367" y="602"/>
      <point x="367" y="581" type="curve" smooth="yes"/>
      <point x="367" y="577"/>
      <point x="367" y="572"/>
      <point x="366" y="567" type="curve" smooth="yes"/>
      <point x="357" y="514" type="line" smooth="yes"/>
      <point x="354" y="492"/>
      <point x="346" y="474"/>
      <point x="312" y="474" type="curve" smooth="yes"/>
    </contour>
    <contour>
      <point x="704" y="3" type="curve" smooth="yes"/>
      <point x="806" y="3" type="line" smooth="yes"/>
      <point x="907" y="3"/>
      <point x="953" y="53"/>
      <point x="967" y="138" type="curve" smooth="yes"/>
      <point x="985" y="251" type="line" smooth="yes"/>
      <point x="987" y="263"/>
      <point x="988" y="275"/>
      <point x="988" y="286" type="curve" smooth="yes"/>
      <point x="988" y="350"/>
      <point x="953" y="386"/>
      <point x="869" y="386" type="curve" smooth="yes"/>
      <point x="767" y="386" type="line" smooth="yes"/>
      <point x="666" y="386"/>
      <point x="621" y="336"/>
      <point x="608" y="251" type="curve" smooth="yes"/>
      <point x="590" y="138" type="line" smooth="yes"/>
      <point x="588" y="125"/>
      <point x="587" y="114"/>
      <point x="587" y="103" type="curve" smooth="yes"/>
      <point x="587" y="39"/>
      <point x="621" y="3"/>
    </contour>
    <contour>
      <point x="750" y="128" type="line" smooth="yes"/>
      <point x="725" y="128"/>
      <point x="718" y="139"/>
      <point x="718" y="154" type="curve" smooth="yes"/>
      <point x="718" y="158"/>
      <point x="719" y="163"/>
      <point x="720" y="168" type="curve" smooth="yes"/>
      <point x="728" y="221" type="line" smooth="yes"/>
      <point x="733" y="255"/>
      <point x="751" y="261"/>
      <point x="773" y="261" type="curve" smooth="yes"/>
      <point x="823" y="261" type="line" smooth="yes"/>
      <point x="844" y="261"/>
      <point x="856" y="256"/>
      <point x="856" y="235" type="curve" smooth="yes"/>
      <point x="856" y="231"/>
      <point x="856" y="226"/>
      <point x="855" y="221" type="curve" smooth="yes"/>
      <point x="847" y="168" type="line" smooth="yes"/>
      <point x="843" y="146"/>
      <point x="834" y="128"/>
      <point x="800" y="128" type="curve" smooth="yes"/>
    </contour>
    <contour>
      <point x="1115" y="3" type="curve" smooth="yes"/>
      <point x="1216" y="3" type="line" smooth="yes"/>
      <point x="1317" y="3"/>
      <point x="1363" y="53"/>
      <point x="1377" y="138" type="curve" smooth="yes"/>
      <point x="1395" y="251" type="line" smooth="yes"/>
      <point x="1397" y="263"/>
      <point x="1398" y="275"/>
      <point x="1398" y="286" type="curve" smooth="yes"/>
      <point x="1398" y="350"/>
      <point x="1363" y="386"/>
      <point x="1279" y="386" type="curve" smooth="yes"/>
      <point x="1178" y="386" type="line" smooth="yes"/>
      <point x="1077" y="386"/>
      <point x="1031" y="336"/>
      <point x="1018" y="251" type="curve" smooth="yes"/>
      <point x="1000" y="138" type="line" smooth="yes"/>
      <point x="998" y="126"/>
      <point x="997" y="114"/>
      <point x="997" y="103" type="curve" smooth="yes"/>
      <point x="997" y="39"/>
      <point x="1032" y="3"/>
    </contour>
    <contour>
      <point x="1160" y="128" type="line" smooth="yes"/>
      <point x="1135" y="128"/>
      <point x="1128" y="139"/>
      <point x="1128" y="154" type="curve" smooth="yes"/>
      <point x="1128" y="158"/>
      <point x="1129" y="163"/>
      <point x="1130" y="168" type="curve" smooth="yes"/>
      <point x="1138" y="221" type="line" smooth="yes"/>
      <point x="1143" y="255"/>
      <point x="1161" y="261"/>
      <point x="1183" y="261" type="curve" smooth="yes"/>
      <point x="1234" y="261" type="line" smooth="yes"/>
      <point x="1255" y="261"/>
      <point x="1266" y="256"/>
      <point x="1266" y="235" type="curve" smooth="yes"/>
      <point x="1266" y="231"/>
      <point x="1266" y="226"/>
      <point x="1265" y="221" type="curve" smooth="yes"/>
      <point x="1257" y="168" type="line" smooth="yes"/>
      <point x="1253" y="146"/>
      <point x="1245" y="128"/>
      <point x="1211" y="128" type="curve" smooth="yes"/>
    </contour>
  </outline>
</glyph>
<glyph name="guilsinglleft" format="2">
  <advance width="376"/>
  <unicode hex="2039"/>
  <note>
GF Latin Plus glyph
</note>
  <outline>
    <contour>
      <point x="259" y="56" type="line"/>
      <point x="368" y="154" type="line"/>
      <point x="257" y="284" type="line"/>
      <point x="407" y="412" type="line"/>
      <point x="325" y="507" type="line"/>
      <point x="64" y="284" type="line"/>
    </contour>
  </outline>
</glyph>
<glyph name="guilsinglright" format="2">
  <advance width="376"/>
  <unicode hex="203A"/>
  <note>
GF Latin Plus glyph
</note>
  <outline>
    <contour>
      <point x="131" y="56" type="line"/>
      <point x="398" y="284" type="line"/>
      <point x="207" y="507" type="line"/>
      <point x="95" y="412" type="line"/>
      <point x="205" y="284" type="line"/>
      <point x="54" y="154" type="line"/>
    </contour>
  </outline>
</glyph>
<glyph name="sixsuperior" format="2">
  <advance width="414"/>
  <unicode hex="2076"/>
  <note>
GF Latin Plus glyph
</note>
  <outline>
    <contour>
      <point x="245" y="350" type="curve" smooth="yes"/>
      <point x="311" y="350" type="line" smooth="yes"/>
      <point x="393" y="350"/>
      <point x="449" y="388"/>
      <point x="462" y="476" type="curve" smooth="yes"/>
      <point x="474" y="547" type="line" smooth="yes"/>
      <point x="476" y="559"/>
      <point x="477" y="571"/>
      <point x="477" y="582" type="curve" smooth="yes"/>
      <point x="477" y="629"/>
      <point x="458" y="670"/>
      <point x="369" y="670" type="curve" smooth="yes"/>
      <point x="316" y="670"/>
      <point x="306" y="667"/>
      <point x="284" y="654" type="curve"/>
      <point x="289" y="688"/>
      <point x="302" y="711"/>
      <point x="358" y="711" type="curve" smooth="yes"/>
      <point x="470" y="711" type="line"/>
      <point x="489" y="831" type="line"/>
      <point x="455" y="842"/>
      <point x="413" y="846"/>
      <point x="362" y="846" type="curve" smooth="yes"/>
      <point x="196" y="846"/>
      <point x="109" y="733"/>
      <point x="110" y="487" type="curve" smooth="yes"/>
      <point x="111" y="382"/>
      <point x="156" y="350"/>
    </contour>
    <contour>
      <point x="290" y="486" type="line" smooth="yes"/>
      <point x="269" y="486"/>
      <point x="263" y="493"/>
      <point x="263" y="515" type="curve" smooth="yes"/>
      <point x="263" y="522"/>
      <point x="265" y="533"/>
      <point x="267" y="543" type="curve"/>
      <point x="303" y="543" type="line" smooth="yes"/>
      <point x="311" y="543"/>
      <point x="316" y="539"/>
      <point x="316" y="530" type="curve" smooth="yes"/>
      <point x="316" y="526"/>
      <point x="316" y="522"/>
      <point x="315" y="517" type="curve" smooth="yes"/>
      <point x="313" y="504" type="line" smooth="yes"/>
      <point x="311" y="493"/>
      <point x="306" y="486"/>
      <point x="293" y="486" type="curve" smooth="yes"/>
    </contour>
  </outline>
</glyph>
<glyph name="sevensuperior" format="2">
  <advance width="414"/>
  <unicode hex="2077"/>
  <note>
GF Latin Plus glyph
</note>
  <outline>
    <contour>
      <point x="131" y="355" type="line"/>
      <point x="299" y="355" type="line"/>
      <point x="511" y="783" type="line"/>
      <point x="485" y="842" type="line"/>
      <point x="156" y="842" type="line"/>
      <point x="132" y="691" type="line"/>
      <point x="300" y="691" type="line"/>
    </contour>
  </outline>
</glyph>
<glyph name="eightsuperior" format="2">
  <advance width="414"/>
  <unicode hex="2078"/>
  <note>
GF Latin Plus glyph
</note>
  <outline>
    <contour>
      <point x="222" y="350" type="curve" smooth="yes"/>
      <point x="312" y="350" type="line" smooth="yes"/>
      <point x="380" y="350"/>
      <point x="448" y="363"/>
      <point x="465" y="467" type="curve" smooth="yes"/>
      <point x="475" y="529" type="line" smooth="yes"/>
      <point x="475" y="537"/>
      <point x="477" y="546"/>
      <point x="477" y="557" type="curve" smooth="yes"/>
      <point x="477" y="579"/>
      <point x="472" y="607"/>
      <point x="441" y="615" type="curve"/>
      <point x="478" y="618"/>
      <point x="487" y="676"/>
      <point x="490" y="690" type="curve" smooth="yes"/>
      <point x="498" y="745" type="line" smooth="yes"/>
      <point x="500" y="751"/>
      <point x="500" y="757"/>
      <point x="500" y="763" type="curve" smooth="yes"/>
      <point x="500" y="824"/>
      <point x="446" y="846"/>
      <point x="388" y="846" type="curve" smooth="yes"/>
      <point x="292" y="846" type="line" smooth="yes"/>
      <point x="228" y="846"/>
      <point x="163" y="820"/>
      <point x="151" y="745" type="curve" smooth="yes"/>
      <point x="145" y="707" type="line" smooth="yes"/>
      <point x="140" y="678"/>
      <point x="138" y="663"/>
      <point x="138" y="650" type="curve" smooth="yes"/>
      <point x="138" y="633"/>
      <point x="143" y="618"/>
      <point x="164" y="605" type="curve"/>
      <point x="129" y="596"/>
      <point x="111" y="558"/>
      <point x="109" y="545" type="curve" smooth="yes"/>
      <point x="97" y="467" type="line" smooth="yes"/>
      <point x="95" y="457"/>
      <point x="95" y="448"/>
      <point x="95" y="439" type="curve" smooth="yes"/>
      <point x="95" y="361"/>
      <point x="161" y="350"/>
    </contour>
    <contour>
      <point x="270" y="478" type="line" smooth="yes"/>
      <point x="261" y="478"/>
      <point x="255" y="480"/>
      <point x="255" y="489" type="curve" smooth="yes"/>
      <point x="255" y="492"/>
      <point x="256" y="499"/>
      <point x="257" y="505" type="curve" smooth="yes"/>
      <point x="260" y="520" type="line" smooth="yes"/>
      <point x="263" y="534"/>
      <point x="268" y="541"/>
      <point x="280" y="541" type="curve" smooth="yes"/>
      <point x="305" y="541" type="line" smooth="yes"/>
      <point x="314" y="541"/>
      <point x="320" y="538"/>
      <point x="320" y="529" type="curve" smooth="yes"/>
      <point x="320" y="528"/>
      <point x="320" y="526"/>
      <point x="319" y="520" type="curve" smooth="yes"/>
      <point x="316" y="499" type="line" smooth="yes"/>
      <point x="314" y="487"/>
      <point x="308" y="478"/>
      <point x="293" y="478" type="curve" smooth="yes"/>
    </contour>
    <contour>
      <point x="301" y="668" type="line" smooth="yes"/>
      <point x="296" y="668"/>
      <point x="291" y="670"/>
      <point x="291" y="676" type="curve" smooth="yes"/>
      <point x="291" y="681"/>
      <point x="292" y="687"/>
      <point x="293" y="694" type="curve" smooth="yes"/>
      <point x="295" y="707" type="line" smooth="yes"/>
      <point x="297" y="717"/>
      <point x="301" y="719"/>
      <point x="309" y="719" type="curve" smooth="yes"/>
      <point x="331" y="719" type="line" smooth="yes"/>
      <point x="339" y="719"/>
      <point x="343" y="716"/>
      <point x="343" y="711" type="curve" smooth="yes"/>
      <point x="343" y="710"/>
      <point x="342" y="703"/>
      <point x="342" y="702" type="curve" smooth="yes"/>
      <point x="340" y="689" type="line" smooth="yes"/>
      <point x="338" y="675"/>
      <point x="334" y="668"/>
      <point x="324" y="668" type="curve" smooth="yes"/>
    </contour>
  </outline>
</glyph>
<glyph name="colonsign" format="2">
  <advance width="609"/>
  <unicode hex="20A1"/>
  <note>
GF Latin Plus glyph
</note>
  <outline>
    <contour>
      <point x="224" y="-110" type="line"/>
      <point x="308" y="-110" type="line"/>
      <point x="780" y="793" type="line"/>
      <point x="696" y="793" type="line"/>
    </contour>
    <contour>
      <point x="84" y="-110" type="line"/>
      <point x="168" y="-110" type="line"/>
      <point x="640" y="793" type="line"/>
      <point x="556" y="793" type="line"/>
    </contour>
    <contour>
      <point x="318" y="-6" type="curve" smooth="yes"/>
      <point x="436" y="-6"/>
      <point x="507" y="7"/>
      <point x="559" y="26" type="curve"/>
      <point x="589" y="157" type="line"/>
      <point x="552" y="152"/>
      <point x="494" y="148"/>
      <point x="398" y="148" type="curve" smooth="yes"/>
      <point x="309" y="148"/>
      <point x="275" y="180"/>
      <point x="275" y="284" type="curve" smooth="yes"/>
      <point x="275" y="427"/>
      <point x="352" y="596"/>
      <point x="508" y="596" type="curve" smooth="yes"/>
      <point x="555" y="596"/>
      <point x="596" y="593"/>
      <point x="628" y="589" type="curve"/>
      <point x="715" y="710" type="line"/>
      <point x="681" y="726"/>
      <point x="613" y="750"/>
      <point x="500" y="750" type="curve" smooth="yes"/>
      <point x="286" y="750"/>
      <point x="97" y="565"/>
      <point x="97" y="256" type="curve" smooth="yes"/>
      <point x="97" y="60"/>
      <point x="184" y="-6"/>
    </contour>
  </outline>
</glyph>
<glyph name="naira" format="2">
  <advance width="609"/>
  <unicode hex="20A6"/>
  <note>
GF Latin Plus glyph
</note>
  <outline>
    <contour>
      <point x="75" y="0" type="line"/>
      <point x="229" y="0" type="line"/>
      <point x="288" y="374" type="line"/>
      <point x="410" y="0" type="line"/>
      <point x="534" y="0" type="line"/>
      <point x="652" y="743" type="line"/>
      <point x="498" y="743" type="line"/>
      <point x="438" y="369" type="line"/>
      <point x="317" y="743" type="line"/>
      <point x="193" y="743" type="line"/>
    </contour>
    <contour>
      <point x="59" y="180" type="line"/>
      <point x="460" y="180" type="line"/>
      <point x="415" y="274" type="line"/>
      <point x="73" y="274" type="line"/>
    </contour>
    <contour>
      <point x="104" y="469" type="line"/>
      <point x="221" y="469" type="line"/>
      <point x="236" y="563" type="line"/>
      <point x="119" y="563" type="line"/>
    </contour>
    <contour>
      <point x="521" y="180" type="line"/>
      <point x="608" y="180" type="line"/>
      <point x="622" y="274" type="line"/>
      <point x="535" y="274" type="line"/>
    </contour>
    <contour>
      <point x="331" y="469" type="line"/>
      <point x="653" y="469" type="line"/>
      <point x="668" y="563" type="line"/>
      <point x="296" y="563" type="line"/>
    </contour>
  </outline>
</glyph>
<glyph name="peseta" format="2">
  <advance width="609"/>
  <unicode hex="20A7"/>
  <note>
GF Latin Plus glyph
</note>
  <outline>
    <contour>
      <point x="55" y="0" type="line"/>
      <point x="249" y="0" type="line"/>
      <point x="275" y="164" type="line"/>
      <point x="302" y="159"/>
      <point x="328" y="144"/>
      <point x="375" y="144" type="curve" smooth="yes"/>
      <point x="481" y="144"/>
      <point x="637" y="227"/>
      <point x="637" y="549" type="curve" smooth="yes"/>
      <point x="637" y="720"/>
      <point x="542" y="743"/>
      <point x="459" y="743" type="curve" smooth="yes"/>
      <point x="173" y="743" type="line"/>
    </contour>
    <contour>
      <point x="72" y="391" type="line"/>
      <point x="239" y="391" type="line"/>
      <point x="254" y="485" type="line"/>
      <point x="87" y="485" type="line"/>
    </contour>
    <contour>
      <point x="299" y="318" type="line"/>
      <point x="339" y="569" type="line"/>
      <point x="411" y="569" type="line" smooth="yes"/>
      <point x="431" y="569"/>
      <point x="440" y="550"/>
      <point x="440" y="514" type="curve" smooth="yes"/>
      <point x="440" y="368"/>
      <point x="414" y="318"/>
      <point x="362" y="318" type="curve" smooth="yes"/>
    </contour>
    <contour>
      <point x="250" y="391" type="line"/>
      <point x="661" y="391" type="line"/>
      <point x="676" y="485" type="line"/>
      <point x="265" y="485" type="line"/>
    </contour>
  </outline>
</glyph>
<glyph name="won" format="2">
  <advance width="609"/>
  <unicode hex="20A9"/>
  <note>
GF Latin Plus glyph
</note>
  <outline>
    <contour>
      <point x="75" y="0" type="line"/>
      <point x="246" y="0" type="line"/>
      <point x="342" y="298" type="line"/>
      <point x="364" y="0" type="line"/>
      <point x="534" y="0" type="line"/>
      <point x="687" y="743" type="line"/>
      <point x="518" y="743" type="line"/>
      <point x="446" y="371" type="line"/>
      <point x="437" y="603" type="line"/>
      <point x="360" y="603" type="line"/>
      <point x="276" y="371" type="line"/>
      <point x="323" y="743" type="line"/>
      <point x="153" y="743" type="line"/>
    </contour>
    <contour>
      <point x="34" y="180" type="line"/>
      <point x="214" y="180" type="line"/>
      <point x="199" y="274" type="line"/>
      <point x="48" y="274" type="line"/>
    </contour>
    <contour>
      <point x="79" y="469" type="line"/>
      <point x="196" y="469" type="line"/>
      <point x="211" y="563" type="line"/>
      <point x="94" y="563" type="line"/>
    </contour>
    <contour>
      <point x="476" y="180" type="line"/>
      <point x="633" y="180" type="line"/>
      <point x="647" y="274" type="line"/>
      <point x="490" y="274" type="line"/>
    </contour>
    <contour>
      <point x="584" y="469" type="line"/>
      <point x="678" y="469" type="line"/>
      <point x="693" y="563" type="line"/>
      <point x="589" y="563" type="line"/>
    </contour>
  </outline>
</glyph>
<glyph name="dong" format="2">
  <advance width="609"/>
  <unicode hex="20AB"/>
  <note>
GF Latin Plus glyph
</note>
  <outline>
    <contour>
      <point x="246" y="154" type="curve" smooth="yes"/>
      <point x="295" y="154"/>
      <point x="342" y="175"/>
      <point x="385" y="209" type="curve"/>
      <point x="407" y="160" type="line"/>
      <point x="571" y="160" type="line"/>
      <point x="670" y="783" type="line"/>
      <point x="476" y="783" type="line"/>
      <point x="442" y="567" type="line"/>
      <point x="410" y="579"/>
      <point x="367" y="588"/>
      <point x="325" y="588" type="curve" smooth="yes"/>
      <point x="139" y="588"/>
      <point x="82" y="425"/>
      <point x="82" y="301" type="curve" smooth="yes"/>
      <point x="82" y="193"/>
      <point x="142" y="154"/>
    </contour>
    <contour>
      <point x="52" y="-51" type="line"/>
      <point x="550" y="-51" type="line"/>
      <point x="574" y="103" type="line"/>
      <point x="76" y="103" type="line"/>
    </contour>
    <contour>
      <point x="342" y="309" type="curve" smooth="yes"/>
      <point x="302" y="309"/>
      <point x="281" y="314"/>
      <point x="281" y="350" type="curve" smooth="yes"/>
      <point x="281" y="394"/>
      <point x="308" y="444"/>
      <point x="368" y="444" type="curve" smooth="yes"/>
      <point x="387" y="444"/>
      <point x="409" y="434"/>
      <point x="420" y="427" type="curve"/>
      <point x="404" y="329" type="line"/>
      <point x="392" y="320"/>
      <point x="369" y="309"/>
    </contour>
    <contour>
      <point x="352" y="646" type="line"/>
      <point x="700" y="646" type="line"/>
      <point x="712" y="720" type="line"/>
      <point x="364" y="720" type="line"/>
    </contour>
  </outline>
</glyph>
<glyph name="euro" format="2">
  <advance width="609"/>
  <unicode hex="20AC"/>
  <note>
GF Latin Plus glyph
</note>
  <outline>
    <contour>
      <point x="149" y="379" type="line"/>
      <point x="304" y="379" type="line"/>
      <point x="569" y="387" type="line"/>
      <point x="582" y="473" type="line"/>
      <point x="320" y="481" type="line"/>
      <point x="176" y="481" type="line"/>
      <point x="90" y="471" type="line"/>
      <point x="77" y="388" type="line"/>
    </contour>
    <contour>
      <point x="137" y="237" type="line"/>
      <point x="281" y="237" type="line"/>
      <point x="546" y="245" type="line"/>
      <point x="560" y="332" type="line"/>
      <point x="298" y="340" type="line"/>
      <point x="143" y="340" type="line"/>
      <point x="68" y="332" type="line"/>
      <point x="54" y="245" type="line"/>
    </contour>
    <component base="C" xOffset="39"/>
  </outline>
</glyph>
<glyph name="kip" format="2">
  <advance width="609"/>
  <unicode hex="20AD"/>
  <note>
GF Latin Plus glyph
</note>
  <outline>
    <contour>
      <point x="55" y="0" type="line"/>
      <point x="249" y="0" type="line"/>
      <point x="293" y="280" type="line"/>
      <point x="347" y="280" type="line"/>
      <point x="401" y="0" type="line"/>
      <point x="604" y="0" type="line"/>
      <point x="512" y="369" type="line"/>
      <point x="713" y="743" type="line"/>
      <point x="510" y="743" type="line"/>
      <point x="375" y="454" type="line"/>
      <point x="321" y="454" type="line"/>
      <point x="367" y="743" type="line"/>
      <point x="173" y="743" type="line"/>
    </contour>
    <contour>
      <point x="54" y="275" type="line"/>
      <point x="623" y="275" type="line"/>
      <point x="652" y="459" type="line"/>
      <point x="83" y="459" type="line"/>
    </contour>
  </outline>
</glyph>
<glyph name="peso" format="2">
  <advance width="609"/>
  <unicode hex="20B1"/>
  <note>
GF Latin Plus glyph
</note>
  <outline>
    <contour>
      <point x="75" y="0" type="line"/>
      <point x="249" y="0" type="line"/>
      <point x="284" y="224" type="line"/>
      <point x="304" y="217"/>
      <point x="341" y="204"/>
      <point x="374" y="204" type="curve" smooth="yes"/>
      <point x="510" y="204"/>
      <point x="620" y="298"/>
      <point x="620" y="565" type="curve" smooth="yes"/>
      <point x="620" y="722"/>
      <point x="529" y="743"/>
      <point x="449" y="743" type="curve" smooth="yes"/>
      <point x="193" y="743" type="line"/>
    </contour>
    <contour>
      <point x="61" y="320" type="line"/>
      <point x="212" y="320" type="line"/>
      <point x="227" y="414" type="line"/>
      <point x="76" y="414" type="line"/>
    </contour>
    <contour>
      <point x="89" y="499" type="line"/>
      <point x="236" y="499" type="line"/>
      <point x="251" y="593" type="line"/>
      <point x="104" y="593" type="line"/>
    </contour>
    <contour>
      <point x="309" y="378" type="line"/>
      <point x="339" y="569" type="line"/>
      <point x="401" y="569" type="line" smooth="yes"/>
      <point x="429" y="569"/>
      <point x="442" y="550"/>
      <point x="442" y="514" type="curve" smooth="yes"/>
      <point x="442" y="434"/>
      <point x="420" y="378"/>
      <point x="371" y="378" type="curve" smooth="yes"/>
    </contour>
    <contour>
      <point x="483" y="320" type="line"/>
      <point x="650" y="320" type="line"/>
      <point x="665" y="414" type="line"/>
      <point x="528" y="414" type="line"/>
    </contour>
    <contour>
      <point x="536" y="499" type="line"/>
      <point x="678" y="499" type="line"/>
      <point x="693" y="593" type="line"/>
      <point x="551" y="593" type="line"/>
    </contour>
  </outline>
</glyph>
<glyph name="cedi" format="2">
  <advance width="609"/>
  <unicode hex="20B5"/>
  <note>
GF Latin Plus glyph
</note>
  <outline>
    <contour>
      <point x="326" y="-6" type="curve" smooth="yes"/>
      <point x="444" y="-6"/>
      <point x="514" y="7"/>
      <point x="565" y="26" type="curve"/>
      <point x="587" y="167" type="line"/>
      <point x="551" y="162"/>
      <point x="493" y="158"/>
      <point x="397" y="158" type="curve" smooth="yes"/>
      <point x="300" y="158"/>
      <point x="265" y="178"/>
      <point x="265" y="259" type="curve" smooth="yes"/>
      <point x="265" y="406"/>
      <point x="325.816" y="576"/>
      <point x="481" y="576" type="curve" smooth="yes"/>
      <point x="525.389" y="576"/>
      <point x="601.871" y="572.779"/>
      <point x="651" y="569" type="curve"/>
      <point x="673" y="710" type="line"/>
      <point x="638" y="721"/>
      <point x="567" y="740"/>
      <point x="454" y="740" type="curve" smooth="yes"/>
      <point x="250" y="740"/>
      <point x="89" y="547"/>
      <point x="89" y="244" type="curve" smooth="yes"/>
      <point x="89" y="37"/>
      <point x="183" y="-6"/>
    </contour>
    <contour>
      <point x="320" y="-80" type="line"/>
      <point x="403" y="-80" type="line"/>
      <point x="542" y="793" type="line"/>
      <point x="459" y="793" type="line"/>
    </contour>
  </outline>
</glyph>
<glyph name="rupeeIndian" format="2">
  <advance width="609"/>
  <unicode hex="20B9"/>
  <note>
GF Latin Plus glyph
</note>
  <outline>
    <contour>
      <point x="283" y="0" type="line"/>
      <point x="494" y="0" type="line"/>
      <point x="404" y="228" type="line"/>
      <point x="478" y="266"/>
      <point x="547" y="381"/>
      <point x="547" y="536" type="curve" smooth="yes"/>
      <point x="547" y="696"/>
      <point x="450" y="743"/>
      <point x="360" y="743" type="curve" smooth="yes"/>
      <point x="167" y="743" type="line"/>
      <point x="139" y="569" type="line"/>
      <point x="297" y="569" type="line" smooth="yes"/>
      <point x="332" y="569"/>
      <point x="350" y="552"/>
      <point x="350" y="509" type="curve" smooth="yes"/>
      <point x="350" y="410"/>
      <point x="304" y="370"/>
      <point x="266" y="370" type="curve" smooth="yes"/>
      <point x="108" y="370" type="line"/>
      <point x="82" y="206" type="line"/>
      <point x="124" y="206"/>
      <point x="165" y="206"/>
      <point x="207" y="206" type="curve"/>
    </contour>
    <contour>
      <point x="116" y="424" type="line"/>
      <point x="646" y="424" type="line"/>
      <point x="661" y="518" type="line"/>
      <point x="131" y="518" type="line"/>
    </contour>
    <contour>
      <point x="330" y="649" type="line"/>
      <point x="682" y="649" type="line"/>
      <point x="697" y="743" type="line"/>
      <point x="345" y="743" type="line"/>
    </contour>
  </outline>
</glyph>
<glyph name="liraTurkish" format="2">
  <advance width="609"/>
  <unicode hex="20BA"/>
  <note>
GF Latin Plus glyph
</note>
  <outline>
    <contour>
      <point x="75" y="0" type="line"/>
      <point x="269" y="0" type="line" smooth="yes"/>
      <point x="451" y="0"/>
      <point x="605" y="71"/>
      <point x="654" y="377" type="curve"/>
      <point x="480" y="377" type="line"/>
      <point x="459" y="244"/>
      <point x="395" y="174"/>
      <point x="297" y="174" type="curve"/>
      <point x="387" y="743" type="line"/>
      <point x="193" y="743" type="line"/>
    </contour>
    <contour>
      <point x="47" y="235" type="line"/>
      <point x="533" y="465" type="line"/>
      <point x="548" y="559" type="line"/>
      <point x="62" y="329" type="line"/>
    </contour>
    <contour>
      <point x="71" y="385" type="line"/>
      <point x="556" y="615" type="line"/>
      <point x="571" y="709" type="line"/>
      <point x="86" y="479" type="line"/>
    </contour>
  </outline>
</glyph>
<glyph name="estimated" format="2">
  <advance width="890"/>
  <unicode hex="212E"/>
  <outline>
    <contour>
      <point x="488" y="-41" type="curve" smooth="yes"/>
      <point x="572" y="-41"/>
      <point x="613" y="-32"/>
      <point x="670" y="-10" type="curve" smooth="yes"/>
      <point x="724" y="12"/>
      <point x="770" y="50"/>
      <point x="821" y="105" type="curve"/>
      <point x="746" y="105" type="line"/>
      <point x="688" y="39"/>
      <point x="591" y="-13"/>
      <point x="488" y="-13" type="curve" smooth="yes"/>
      <point x="334" y="-13"/>
      <point x="232" y="80"/>
      <point x="232" y="117" type="curve" smooth="yes"/>
      <point x="232" y="301" type="line" smooth="yes"/>
      <point x="232" y="318"/>
      <point x="238" y="317"/>
      <point x="248" y="317" type="curve" smooth="yes"/>
      <point x="894" y="317" type="line"/>
      <point x="889" y="439"/>
      <point x="847" y="542"/>
      <point x="769" y="604" type="curve" smooth="yes"/>
      <point x="690" y="666"/>
      <point x="608" y="698"/>
      <point x="488" y="698" type="curve" smooth="yes"/>
      <point x="357" y="698"/>
      <point x="270" y="661"/>
      <point x="195" y="591" type="curve" smooth="yes"/>
      <point x="120" y="521"/>
      <point x="84" y="434"/>
      <point x="84" y="327" type="curve" smooth="yes"/>
      <point x="84" y="219"/>
      <point x="121" y="132"/>
      <point x="195" y="62" type="curve" smooth="yes"/>
      <point x="269" y="-8"/>
      <point x="362" y="-41"/>
    </contour>
    <contour>
      <point x="244" y="340" type="line" smooth="yes"/>
      <point x="237" y="340"/>
      <point x="232" y="340"/>
      <point x="232" y="353" type="curve" smooth="yes"/>
      <point x="232" y="540" type="line" smooth="yes"/>
      <point x="232" y="572"/>
      <point x="341" y="673"/>
      <point x="487" y="673" type="curve" smooth="yes"/>
      <point x="603" y="673"/>
      <point x="745" y="594"/>
      <point x="745" y="536" type="curve" smooth="yes"/>
      <point x="745" y="350" type="line" smooth="yes"/>
      <point x="745" y="336"/>
      <point x="744" y="340"/>
      <point x="727" y="340" type="curve" smooth="yes"/>
    </contour>
  </outline>
</glyph>
<glyph name="divisionslash" format="2">
  <advance width="609"/>
  <unicode hex="2215"/>
  <note>
GF Latin Plus glyph
</note>
  <outline>
    <contour>
      <point x="62" y="0" type="line"/>
      <point x="187" y="0" type="line"/>
      <point x="660" y="712" type="line"/>
      <point x="535" y="712" type="line"/>
    </contour>
  </outline>
</glyph>
<glyph name="infinity" format="2">
  <advance width="656"/>
  <unicode hex="221E"/>
  <outline>
    <contour>
      <point x="178" y="169" type="curve" smooth="yes"/>
      <point x="252" y="169"/>
      <point x="303" y="179"/>
      <point x="363" y="255" type="curve"/>
      <point x="409" y="179"/>
      <point x="469" y="169"/>
      <point x="532" y="169" type="curve" smooth="yes"/>
      <point x="659" y="169"/>
      <point x="711" y="229"/>
      <point x="726" y="321" type="curve" smooth="yes"/>
      <point x="740" y="408"/>
      <point x="725" y="514"/>
      <point x="587" y="514" type="curve" smooth="yes"/>
      <point x="511" y="514"/>
      <point x="440" y="493"/>
      <point x="392" y="427" type="curve"/>
      <point x="355" y="487"/>
      <point x="309" y="514"/>
      <point x="233" y="514" type="curve" smooth="yes"/>
      <point x="95" y="514"/>
      <point x="54" y="448"/>
      <point x="40" y="361" type="curve" smooth="yes"/>
      <point x="25" y="269"/>
      <point x="51" y="169"/>
    </contour>
    <contour>
      <point x="211" y="292" type="curve" smooth="yes"/>
      <point x="173" y="292"/>
      <point x="169" y="313"/>
      <point x="173" y="341" type="curve" smooth="yes"/>
      <point x="177" y="369"/>
      <point x="183" y="391"/>
      <point x="227" y="391" type="curve" smooth="yes"/>
      <point x="255" y="391"/>
      <point x="280" y="366"/>
      <point x="292" y="341" type="curve"/>
      <point x="272" y="317"/>
      <point x="245" y="292"/>
    </contour>
    <contour>
      <point x="537" y="292" type="curve" smooth="yes"/>
      <point x="503" y="292"/>
      <point x="481" y="316"/>
      <point x="469" y="340" type="curve"/>
      <point x="489" y="365"/>
      <point x="515" y="391"/>
      <point x="553" y="391" type="curve" smooth="yes"/>
      <point x="596" y="391"/>
      <point x="597" y="369"/>
      <point x="593" y="341" type="curve" smooth="yes"/>
      <point x="589" y="313"/>
      <point x="573" y="292"/>
    </contour>
  </outline>
</glyph>
<glyph name="integral" format="2">
  <advance width="444"/>
  <unicode hex="222B"/>
  <outline>
    <contour>
      <point x="103" y="-204" type="curve" smooth="yes"/>
      <point x="240" y="-204"/>
      <point x="296" y="-138"/>
      <point x="315" y="-21" type="curve" smooth="yes"/>
      <point x="402" y="528" type="line" smooth="yes"/>
      <point x="412" y="593"/>
      <point x="429" y="656"/>
      <point x="498" y="656" type="curve" smooth="yes"/>
      <point x="536" y="656" type="line"/>
      <point x="555" y="775" type="line"/>
      <point x="538" y="782"/>
      <point x="502" y="800"/>
      <point x="438" y="800" type="curve" smooth="yes"/>
      <point x="303" y="800"/>
      <point x="239" y="726"/>
      <point x="220" y="604" type="curve" smooth="yes"/>
      <point x="134" y="62" type="line" smooth="yes"/>
      <point x="127" y="18"/>
      <point x="112" y="-60"/>
      <point x="42" y="-60" type="curve" smooth="yes"/>
      <point x="1" y="-60" type="line"/>
      <point x="-17" y="-179" type="line"/>
      <point x="9" y="-193"/>
      <point x="47" y="-204"/>
    </contour>
  </outline>
</glyph>
<glyph name="approxequal" format="2">
  <advance width="609"/>
  <unicode hex="2248"/>
  <note>
GF Latin Plus glyph
</note>
  <outline>
    <contour>
      <point x="138" y="369" type="line"/>
      <point x="172" y="395"/>
      <point x="214" y="409"/>
      <point x="254" y="409" type="curve" smooth="yes"/>
      <point x="332" y="409"/>
      <point x="394" y="369"/>
      <point x="486" y="369" type="curve" smooth="yes"/>
      <point x="543" y="369"/>
      <point x="570" y="391"/>
      <point x="592" y="409" type="curve"/>
      <point x="616" y="563" type="line"/>
      <point x="592" y="543"/>
      <point x="555" y="523"/>
      <point x="500" y="523" type="curve" smooth="yes"/>
      <point x="408" y="523"/>
      <point x="357" y="563"/>
      <point x="268" y="563" type="curve" smooth="yes"/>
      <point x="228" y="563"/>
      <point x="194" y="549"/>
      <point x="162" y="523" type="curve"/>
    </contour>
    <contour>
      <point x="100" y="129" type="line"/>
      <point x="134" y="155"/>
      <point x="176" y="169"/>
      <point x="216" y="169" type="curve" smooth="yes"/>
      <point x="294" y="169"/>
      <point x="356" y="129"/>
      <point x="448" y="129" type="curve" smooth="yes"/>
      <point x="505" y="129"/>
      <point x="532" y="151"/>
      <point x="554" y="169" type="curve"/>
      <point x="578" y="323" type="line"/>
      <point x="554" y="303"/>
      <point x="517" y="283"/>
      <point x="462" y="283" type="curve" smooth="yes"/>
      <point x="370" y="283"/>
      <point x="319" y="323"/>
      <point x="230" y="323" type="curve" smooth="yes"/>
      <point x="190" y="323"/>
      <point x="156" y="309"/>
      <point x="124" y="283" type="curve"/>
    </contour>
  </outline>
</glyph>
<glyph name="greaterequal" format="2">
  <advance width="609"/>
  <unicode hex="2265"/>
  <note>
GF Latin Plus glyph
</note>
  <outline>
    <contour>
      <point x="117" y="230" type="line"/>
      <point x="550" y="346" type="line"/>
      <point x="577" y="516" type="line"/>
      <point x="179" y="626" type="line"/>
      <point x="152" y="456" type="line"/>
      <point x="374" y="433" type="line"/>
      <point x="144" y="400" type="line"/>
    </contour>
    <component base="minus" xOffset="-40" yOffset="-250"/>
  </outline>
</glyph>
<glyph name="fi" format="2">
  <advance width="681"/>
  <unicode hex="FB01"/>
  <note>
GF Latin Plus glyph
</note>
  <outline>
    <contour>
      <point x="80" y="0" type="line"/>
      <point x="274" y="0" type="line"/>
      <point x="335" y="385" type="line"/>
      <point x="604" y="385" type="line"/>
      <point x="628" y="539" type="line"/>
      <point x="359" y="539" type="line"/>
      <point x="361" y="560" type="line" smooth="yes"/>
      <point x="365" y="605"/>
      <point x="387" y="615"/>
      <point x="430" y="615" type="curve" smooth="yes"/>
      <point x="493" y="615" type="line"/>
      <point x="516" y="758" type="line"/>
      <point x="487" y="764"/>
      <point x="442" y="769"/>
      <point x="392" y="769" type="curve" smooth="yes"/>
      <point x="271" y="769"/>
      <point x="198" y="736"/>
      <point x="178" y="616" type="curve" smooth="yes"/>
      <point x="165" y="539" type="line"/>
      <point x="90" y="509" type="line"/>
      <point x="70" y="385" type="line"/>
      <point x="141" y="385" type="line"/>
    </contour>
    <component base="i" xOffset="401"/>
  </outline>
</glyph>
<glyph name="M.salt" format="2">
  <advance width="906"/>
  <anchor x="423" y="-150" name="bottom"/>
  <anchor x="575" y="810" name="top"/>
  <outline>
    <contour>
      <point x="35" y="0" type="line"/>
      <point x="222" y="0" type="line"/>
      <point x="333" y="541" type="line" smooth="yes"/>
      <point x="337" y="561"/>
      <point x="343" y="566"/>
      <point x="352" y="566" type="curve" smooth="yes"/>
      <point x="359.059" y="566"/>
      <point x="361" y="560"/>
      <point x="361" y="548" type="curve" smooth="yes"/>
      <point x="357" y="253" type="line" smooth="yes"/>
      <point x="356" y="177"/>
      <point x="402.882" y="127"/>
      <point x="477" y="127" type="curve" smooth="yes"/>
      <point x="541" y="127"/>
      <point x="609" y="157"/>
      <point x="638" y="253" type="curve" smooth="yes"/>
      <point x="728" y="546" type="line" smooth="yes"/>
      <point x="734" y="563"/>
      <point x="739" y="567"/>
      <point x="745" y="567" type="curve" smooth="yes"/>
      <point x="751" y="567"/>
      <point x="755" y="564"/>
      <point x="755" y="554" type="curve" smooth="yes"/>
      <point x="755" y="551"/>
      <point x="755" y="549"/>
      <point x="754" y="546" type="curve" smooth="yes"/>
      <point x="693" y="0" type="line"/>
      <point x="880" y="0" type="line"/>
      <point x="942" y="593" type="line" smooth="yes"/>
      <point x="943" y="603"/>
      <point x="944" y="613"/>
      <point x="944" y="623" type="curve" smooth="yes"/>
      <point x="944" y="729"/>
      <point x="875" y="759"/>
      <point x="798" y="759" type="curve" smooth="yes"/>
      <point x="713" y="759"/>
      <point x="639" y="729"/>
      <point x="601" y="594" type="curve" smooth="yes"/>
      <point x="533" y="355" type="line" smooth="yes"/>
      <point x="528" y="337"/>
      <point x="520" y="331"/>
      <point x="511" y="331" type="curve" smooth="yes"/>
      <point x="503" y="331"/>
      <point x="497" y="336"/>
      <point x="497" y="355" type="curve" smooth="yes"/>
      <point x="503" y="594" type="line" smooth="yes"/>
      <point x="506" y="697"/>
      <point x="459" y="760"/>
      <point x="359" y="760" type="curve" smooth="yes"/>
      <point x="275" y="760"/>
      <point x="186" y="723"/>
      <point x="159" y="591" type="curve" smooth="yes"/>
    </contour>
  </outline>
</glyph>
<glyph name="N.salt" format="2">
  <advance width="826"/>
  <anchor x="407" y="-150" name="bottom"/>
  <anchor x="579" y="810" name="top"/>
  <outline>
    <contour>
      <point x="581" y="-6" type="curve" smooth="yes"/>
      <point x="693" y="-6"/>
      <point x="777" y="38"/>
      <point x="799" y="175" type="curve" smooth="yes"/>
      <point x="889" y="743" type="line"/>
      <point x="695" y="743" type="line"/>
      <point x="609" y="202" type="line" smooth="yes"/>
      <point x="607" y="190"/>
      <point x="603" y="188"/>
      <point x="598" y="188" type="curve" smooth="yes"/>
      <point x="594" y="188"/>
      <point x="591" y="191"/>
      <point x="590" y="199" type="curve" smooth="yes"/>
      <point x="530" y="583" type="line" smooth="yes"/>
      <point x="516" y="677"/>
      <point x="476" y="749"/>
      <point x="361" y="749" type="curve" smooth="yes"/>
      <point x="249" y="749"/>
      <point x="166" y="702"/>
      <point x="144" y="559" type="curve" smooth="yes"/>
      <point x="55" y="0" type="line"/>
      <point x="249" y="0" type="line"/>
      <point x="334" y="539" type="line" smooth="yes"/>
      <point x="337" y="554"/>
      <point x="343" y="555"/>
      <point x="347" y="555" type="curve" smooth="yes"/>
      <point x="352" y="555"/>
      <point x="354" y="552"/>
      <point x="355" y="546" type="curve" smooth="yes"/>
      <point x="417" y="153" type="line" smooth="yes"/>
      <point x="434" y="49"/>
      <point x="481" y="-6"/>
    </contour>
  </outline>
</glyph>
<glyph name="W.salt.smcp" format="2">
  <advance width="871"/>
  <anchor x="545" y="650" name="top"/>
  <outline>
    <contour>
      <point x="148" y="0" type="line"/>
      <point x="387" y="0" type="line"/>
      <point x="467" y="176" type="line"/>
      <point x="495" y="0" type="line"/>
      <point x="733" y="0" type="line"/>
      <point x="952" y="560" type="line"/>
      <point x="763" y="560" type="line"/>
      <point x="633" y="198" type="line"/>
      <point x="594" y="418" type="line"/>
      <point x="646" y="560" type="line"/>
      <point x="457" y="560" type="line"/>
      <point x="315" y="198" type="line"/>
      <point x="288" y="560" type="line"/>
      <point x="97" y="560" type="line"/>
    </contour>
  </outline>
</glyph>
<glyph name=".notdef" format="2">
  <advance width="659"/>
  <note>

</note>
  <outline>
    <contour>
      <point x="80" y="-10" type="line"/>
      <point x="639" y="-10" type="line"/>
      <point x="639" y="549" type="line"/>
      <point x="80" y="549" type="line"/>
    </contour>
    <contour>
      <point x="164" y="74" type="line"/>
      <point x="164" y="465" type="line"/>
      <point x="555" y="465" type="line"/>
      <point x="555" y="74" type="line"/>
    </contour>
    <contour>
      <point x="270" y="102" type="line"/>
      <point x="360" y="192" type="line"/>
      <point x="450" y="102" type="line"/>
      <point x="527" y="179" type="line"/>
      <point x="437" y="269" type="line"/>
      <point x="527" y="359" type="line"/>
      <point x="450" y="436" type="line"/>
      <point x="360" y="346" type="line"/>
      <point x="270" y="436" type="line"/>
      <point x="193" y="359" type="line"/>
      <point x="283" y="269" type="line"/>
      <point x="193" y="179" type="line"/>
    </contour>
  </outline>
</glyph>
<glyph name="a.smcp" format="2">
  <advance width="597"/>
  <note>
GF Latin Plus glyph
</note>
  <anchor x="274" y="-150" name="bottom"/>
  <anchor x="450" y="0" name="ogonek"/>
  <anchor x="397" y="650" name="top"/>
  <outline>
    <contour>
      <point x="19" y="0" type="line"/>
      <point x="207" y="0" type="line"/>
      <point x="230" y="66" type="line"/>
      <point x="388" y="66" type="line"/>
      <point x="391" y="0" type="line"/>
      <point x="581" y="0" type="line"/>
      <point x="502" y="560" type="line"/>
      <point x="273" y="560" type="line"/>
    </contour>
    <contour>
      <point x="296" y="222" type="line"/>
      <point x="363" y="413" type="line"/>
      <point x="370" y="222" type="line"/>
    </contour>
  </outline>
</glyph>
<glyph name="a.superior" format="2">
  <advance width="427"/>
  <note>
GF Latin Plus glyph
</note>
  <anchor x="232" y="171" name="bottom"/>
  <anchor x="436" y="280" name="ogonek"/>
  <anchor x="323" y="751" name="top"/>
  <outline>
    <contour>
      <point x="189" y="276" type="curve" smooth="yes"/>
      <point x="229" y="276"/>
      <point x="269" y="296"/>
      <point x="289" y="317" type="curve"/>
      <point x="300" y="280" type="line"/>
      <point x="444" y="280" type="line"/>
      <point x="499" y="627" type="line"/>
      <point x="462" y="652"/>
      <point x="395" y="676"/>
      <point x="314" y="676" type="curve" smooth="yes"/>
      <point x="184" y="676"/>
      <point x="116" y="616"/>
      <point x="98" y="501" type="curve" smooth="yes"/>
      <point x="95" y="482"/>
      <point x="89" y="445"/>
      <point x="89" y="414" type="curve" smooth="yes"/>
      <point x="89" y="317"/>
      <point x="136" y="276"/>
    </contour>
    <contour>
      <point x="272" y="408" type="curve" smooth="yes"/>
      <point x="251" y="408"/>
      <point x="249" y="429"/>
      <point x="249" y="441" type="curve" smooth="yes"/>
      <point x="249" y="453"/>
      <point x="252" y="474"/>
      <point x="257" y="493" type="curve" smooth="yes"/>
      <point x="264" y="519"/>
      <point x="277" y="544"/>
      <point x="306" y="544" type="curve" smooth="yes"/>
      <point x="313" y="544"/>
      <point x="321" y="544"/>
      <point x="325" y="544" type="curve"/>
      <point x="305" y="424" type="line"/>
      <point x="300" y="417"/>
      <point x="288" y="408"/>
    </contour>
  </outline>
</glyph>
<glyph name="asterisk.smcp" format="2">
  <advance width="345"/>
  <note>
GF Latin Plus glyph
</note>
  <outline>
    <contour>
      <point x="305" y="374" type="line"/>
      <point x="394" y="442" type="line"/>
      <point x="363" y="493" type="line"/>
      <point x="262" y="421" type="line"/>
    </contour>
    <contour>
      <point x="289" y="290" type="line"/>
      <point x="335" y="340" type="line"/>
      <point x="250" y="398" type="line"/>
      <point x="205" y="336" type="line"/>
    </contour>
    <contour>
      <point x="173" y="297" type="line"/>
      <point x="221" y="403" type="line"/>
      <point x="148" y="413" type="line"/>
      <point x="113" y="316" type="line"/>
    </contour>
    <contour>
      <point x="97" y="421" type="line"/>
      <point x="213" y="427" type="line"/>
      <point x="213" y="498" type="line"/>
      <point x="107" y="483" type="line"/>
    </contour>
    <contour>
      <point x="238" y="437" type="line"/>
      <point x="311" y="474" type="line"/>
      <point x="283" y="562" type="line"/>
      <point x="218" y="542" type="line"/>
    </contour>
  </outline>
</glyph>
<glyph name="at.smcp" format="2">
  <advance width="781"/>
  <note>
GF Latin Plus glyph
</note>
  <outline>
    <contour>
      <point x="239" y="-153" type="curve" smooth="yes"/>
      <point x="307" y="-153" type="line" smooth="yes"/>
      <point x="407" y="-153"/>
      <point x="500" y="-138"/>
      <point x="540" y="-130" type="curve"/>
      <point x="555" y="-34" type="line"/>
      <point x="247" y="-34" type="line" smooth="yes"/>
      <point x="193" y="-34"/>
      <point x="184" y="-9"/>
      <point x="183" y="11" type="curve" smooth="yes"/>
      <point x="183" y="20"/>
      <point x="185" y="32"/>
      <point x="188" y="51" type="curve" smooth="yes"/>
      <point x="236" y="355" type="line" smooth="yes"/>
      <point x="242" y="393"/>
      <point x="251" y="442"/>
      <point x="322" y="442" type="curve" smooth="yes"/>
      <point x="586" y="442" type="line" smooth="yes"/>
      <point x="630" y="442"/>
      <point x="664" y="423"/>
      <point x="664" y="387" type="curve" smooth="yes"/>
      <point x="664" y="377"/>
      <point x="663" y="367"/>
      <point x="661" y="355" type="curve" smooth="yes"/>
      <point x="634" y="181" type="line" smooth="yes"/>
      <point x="626.874" y="135.079"/>
      <point x="620.269" y="123"/>
      <point x="583" y="123" type="curve"/>
      <point x="621" y="358" type="line"/>
      <point x="580" y="388"/>
      <point x="535" y="410"/>
      <point x="459" y="410" type="curve" smooth="yes"/>
      <point x="332" y="410"/>
      <point x="233" y="312"/>
      <point x="234" y="145" type="curve" smooth="yes"/>
      <point x="235" y="53"/>
      <point x="279" y="5"/>
      <point x="347" y="5" type="curve" smooth="yes"/>
      <point x="403" y="5"/>
      <point x="430" y="45"/>
      <point x="439" y="58" type="curve"/>
      <point x="470" y="10" type="line"/>
      <point x="576" y="10" type="line" smooth="yes"/>
      <point x="679.934" y="10"/>
      <point x="754.012" y="38.862"/>
      <point x="771" y="154" type="curve" smooth="yes"/>
      <point x="798" y="337" type="line" smooth="yes"/>
      <point x="801" y="359"/>
      <point x="803" y="381"/>
      <point x="803" y="402" type="curve" smooth="yes"/>
      <point x="802" y="492"/>
      <point x="745" y="562"/>
      <point x="627" y="562" type="curve" smooth="yes"/>
      <point x="351" y="562" type="line" smooth="yes"/>
      <point x="225" y="562"/>
      <point x="127" y="547"/>
      <point x="102" y="391" type="curve" smooth="yes"/>
      <point x="48" y="53" type="line" smooth="yes"/>
      <point x="46" y="35"/>
      <point x="44" y="18"/>
      <point x="44" y="1" type="curve" smooth="yes"/>
      <point x="45" y="-79"/>
      <point x="83" y="-153"/>
    </contour>
    <contour>
      <point x="399" y="135" type="curve" smooth="yes"/>
      <point x="380" y="135"/>
      <point x="371" y="152"/>
      <point x="371" y="174" type="curve" smooth="yes"/>
      <point x="371" y="236.603"/>
      <point x="399.237" y="290"/>
      <point x="445" y="290" type="curve" smooth="yes"/>
      <point x="452" y="290"/>
      <point x="462" y="288"/>
      <point x="470" y="286" type="curve"/>
      <point x="451" y="162" type="line"/>
      <point x="443" y="151"/>
      <point x="424" y="135"/>
    </contour>
  </outline>
</glyph>
<glyph name="b.salt" format="2">
  <advance width="580"/>
  <anchor x="276" y="850" name="top"/>
  <outline>
    <contour>
      <point x="292" y="-6" type="curve" smooth="yes"/>
      <point x="513.505" y="-6"/>
      <point x="608" y="139.342"/>
      <point x="608" y="343" type="curve" smooth="yes"/>
      <point x="608" y="482.564"/>
      <point x="542" y="545"/>
      <point x="432" y="545" type="curve" smooth="yes"/>
      <point x="390" y="545"/>
      <point x="349.844" y="529.441"/>
      <point x="320" y="515" type="curve"/>
      <point x="359" y="763" type="line"/>
      <point x="165" y="763" type="line"/>
      <point x="50" y="40" type="line"/>
      <point x="120" y="13"/>
      <point x="214" y="-6"/>
    </contour>
    <contour>
      <point x="263" y="151" type="line"/>
      <point x="298" y="374" type="line"/>
      <point x="307.709" y="380.796"/>
      <point x="337.188" y="390"/>
      <point x="364" y="390" type="curve" smooth="yes"/>
      <point x="385.698" y="390"/>
      <point x="414" y="385.562"/>
      <point x="414" y="319" type="curve" smooth="yes"/>
      <point x="414" y="218.011"/>
      <point x="370.436" y="151"/>
      <point x="314" y="151" type="curve" smooth="yes"/>
    </contour>
  </outline>
</glyph>
<glyph name="b.superior" format="2">
  <advance width="439"/>
  <note>
GF Latin Plus glyph
</note>
  <anchor x="250" y="171" name="bottom"/>
  <outline>
    <contour>
      <point x="348" y="276" type="curve" smooth="yes"/>
      <point x="418" y="276"/>
      <point x="471" y="329"/>
      <point x="488" y="437" type="curve" smooth="yes"/>
      <point x="494" y="475"/>
      <point x="498" y="511"/>
      <point x="498" y="532" type="curve" smooth="yes"/>
      <point x="498" y="622"/>
      <point x="451" y="676"/>
      <point x="369" y="676" type="curve" smooth="yes"/>
      <point x="348" y="676"/>
      <point x="317" y="669"/>
      <point x="293" y="660" type="curve"/>
      <point x="321" y="833" type="line"/>
      <point x="161" y="833" type="line"/>
      <point x="73" y="280" type="line"/>
      <point x="217" y="280" type="line"/>
      <point x="240" y="314" type="line"/>
      <point x="267" y="289"/>
      <point x="303" y="276"/>
    </contour>
    <contour>
      <point x="292" y="408" type="curve" smooth="yes"/>
      <point x="273" y="408"/>
      <point x="263" y="415"/>
      <point x="256" y="419" type="curve"/>
      <point x="275" y="540" type="line"/>
      <point x="289" y="543"/>
      <point x="301" y="544"/>
      <point x="313" y="544" type="curve" smooth="yes"/>
      <point x="326" y="544"/>
      <point x="338" y="537"/>
      <point x="338" y="505" type="curve" smooth="yes"/>
      <point x="338" y="499"/>
      <point x="337" y="490"/>
      <point x="336" y="480" type="curve" smooth="yes"/>
      <point x="330" y="421"/>
      <point x="314" y="408"/>
    </contour>
  </outline>
</glyph>
<glyph name="braceleft.smcp" format="2">
  <advance width="284"/>
  <note>
GF Latin Plus glyph
</note>
  <outline>
    <contour>
      <point x="249" y="-158" type="curve"/>
      <point x="270" y="-30" type="line"/>
      <point x="255" y="-30"/>
      <point x="253" y="-21"/>
      <point x="253" y="-10" type="curve" smooth="yes"/>
      <point x="253" y="13"/>
      <point x="280" y="156"/>
      <point x="280" y="185" type="curve" smooth="yes"/>
      <point x="279" y="222"/>
      <point x="251" y="241"/>
      <point x="205" y="251" type="curve"/>
      <point x="261" y="255"/>
      <point x="297" y="274"/>
      <point x="306" y="334" type="curve" smooth="yes"/>
      <point x="325" y="454" type="line" smooth="yes"/>
      <point x="328" y="479"/>
      <point x="327" y="495"/>
      <point x="352" y="495" type="curve"/>
      <point x="375" y="633" type="line"/>
      <point x="239" y="633"/>
      <point x="166" y="611"/>
      <point x="147" y="493" type="curve" smooth="yes"/>
      <point x="127" y="366" type="line" smooth="yes"/>
      <point x="123" y="341"/>
      <point x="106" y="332"/>
      <point x="79" y="329" type="curve"/>
      <point x="54" y="172" type="line"/>
      <point x="82" y="172"/>
      <point x="90" y="164"/>
      <point x="91" y="145" type="curve" smooth="yes"/>
      <point x="91" y="128"/>
      <point x="62" y="-12"/>
      <point x="62" y="-58" type="curve" smooth="yes"/>
      <point x="63" y="-133"/>
      <point x="119" y="-158"/>
    </contour>
  </outline>
</glyph>
<glyph name="brevecomb_tildecomb" format="2">
  <anchor x="-284" y="650" name="_top"/>
  <outline>
    <contour>
      <point x="-298" y="600" type="curve" smooth="yes"/>
      <point x="-201" y="600"/>
      <point x="-146" y="643"/>
      <point x="-132" y="727" type="curve"/>
      <point x="-223" y="727" type="line"/>
      <point x="-229" y="690"/>
      <point x="-253" y="677"/>
      <point x="-286" y="677" type="curve" smooth="yes"/>
      <point x="-310" y="677"/>
      <point x="-334" y="686"/>
      <point x="-334" y="715" type="curve" smooth="yes"/>
      <point x="-334" y="719"/>
      <point x="-334" y="723"/>
      <point x="-333" y="727" type="curve"/>
      <point x="-422" y="727" type="line"/>
      <point x="-424" y="717"/>
      <point x="-425" y="707"/>
      <point x="-425" y="698" type="curve" smooth="yes"/>
      <point x="-425" y="633"/>
      <point x="-381" y="600"/>
    </contour>
    <contour>
      <point x="-443" y="765" type="curve"/>
      <point x="-347" y="765" type="line"/>
      <point x="-344" y="774"/>
      <point x="-334" y="786"/>
      <point x="-313" y="786" type="curve" smooth="yes"/>
      <point x="-294" y="786"/>
      <point x="-254" y="767"/>
      <point x="-213" y="767" type="curve" smooth="yes"/>
      <point x="-148" y="767"/>
      <point x="-111" y="788"/>
      <point x="-87" y="884" type="curve"/>
      <point x="-183" y="884" type="line"/>
      <point x="-185" y="868"/>
      <point x="-196" y="858"/>
      <point x="-216" y="858" type="curve" smooth="yes"/>
      <point x="-241" y="858"/>
      <point x="-272" y="877"/>
      <point x="-315" y="877" type="curve" smooth="yes"/>
      <point x="-373" y="877"/>
      <point x="-419" y="861"/>
    </contour>
  </outline>
</glyph>
<glyph name="bullet.smcp" format="2">
  <advance width="262"/>
  <note>
GF Latin Plus glyph
</note>
  <outline>
    <contour>
      <point x="101" y="196" type="curve" smooth="yes"/>
      <point x="236" y="196" type="line" smooth="yes"/>
      <point x="252" y="196"/>
      <point x="265" y="202"/>
      <point x="268" y="220" type="curve" smooth="yes"/>
      <point x="290" y="352" type="line" smooth="yes"/>
      <point x="293" y="369"/>
      <point x="286" y="379"/>
      <point x="266" y="379" type="curve" smooth="yes"/>
      <point x="131" y="379" type="line" smooth="yes"/>
      <point x="113" y="379"/>
      <point x="102" y="368"/>
      <point x="100" y="352" type="curve" smooth="yes"/>
      <point x="79" y="220" type="line" smooth="yes"/>
      <point x="77" y="205"/>
      <point x="85" y="196"/>
    </contour>
  </outline>
</glyph>
<glyph name="c.smcp" format="2">
  <advance width="496"/>
  <note>
GF Latin Plus glyph
</note>
  <anchor x="256" y="-150" name="bottom"/>
  <anchor x="378" y="650" name="top"/>
  <outline>
    <contour>
      <point x="297" y="-5" type="curve" smooth="yes"/>
      <point x="350" y="-5"/>
      <point x="411" y="-1"/>
      <point x="466" y="21" type="curve"/>
      <point x="488" y="159" type="line"/>
      <point x="444" y="155"/>
      <point x="408" y="151"/>
      <point x="345" y="151" type="curve" smooth="yes"/>
      <point x="277" y="151"/>
      <point x="256" y="166"/>
      <point x="256" y="205" type="curve" smooth="yes"/>
      <point x="256" y="220"/>
      <point x="259" y="241"/>
      <point x="264" y="275" type="curve" smooth="yes"/>
      <point x="282" y="387"/>
      <point x="321" y="409"/>
      <point x="378" y="409" type="curve" smooth="yes"/>
      <point x="422" y="409"/>
      <point x="483" y="398"/>
      <point x="523" y="385" type="curve"/>
      <point x="545" y="523" type="line"/>
      <point x="513" y="541"/>
      <point x="445" y="565"/>
      <point x="341" y="565" type="curve" smooth="yes"/>
      <point x="180" y="565"/>
      <point x="108" y="479"/>
      <point x="82" y="304" type="curve" smooth="yes"/>
      <point x="76" y="265"/>
      <point x="73" y="231"/>
      <point x="74" y="202" type="curve" smooth="yes"/>
      <point x="75" y="76"/>
      <point x="148" y="-5"/>
    </contour>
  </outline>
</glyph>
<glyph name="c.superior" format="2">
  <advance width="347"/>
  <note>
GF Latin Plus glyph
</note>
  <anchor x="218" y="171" name="bottom"/>
  <anchor x="309" y="751" name="top"/>
  <outline>
    <contour>
      <point x="243" y="276" type="curve" smooth="yes"/>
      <point x="304" y="276"/>
      <point x="342" y="288"/>
      <point x="378" y="306" type="curve"/>
      <point x="393" y="399" type="line"/>
      <point x="297" y="399" type="line" smooth="yes"/>
      <point x="267" y="399"/>
      <point x="252" y="419"/>
      <point x="252" y="448" type="curve" smooth="yes"/>
      <point x="252" y="450"/>
      <point x="252" y="459"/>
      <point x="255" y="477" type="curve" smooth="yes"/>
      <point x="261" y="513"/>
      <point x="270" y="551"/>
      <point x="323" y="551" type="curve" smooth="yes"/>
      <point x="412" y="551" type="line"/>
      <point x="427" y="646" type="line"/>
      <point x="379" y="663"/>
      <point x="332" y="676"/>
      <point x="284" y="676" type="curve" smooth="yes"/>
      <point x="191" y="676"/>
      <point x="121" y="632"/>
      <point x="100" y="502" type="curve" smooth="yes"/>
      <point x="96" y="475"/>
      <point x="92" y="448"/>
      <point x="92" y="431" type="curve" smooth="yes"/>
      <point x="93" y="317"/>
      <point x="149" y="276"/>
    </contour>
  </outline>
</glyph>
<glyph name="c_h" format="2">
  <advance width="1051"/>
  <outline>
    <contour>
      <point x="350" y="-6" type="curve" smooth="yes"/>
      <point x="522" y="-6"/>
      <point x="695" y="41"/>
      <point x="720" y="198" type="curve" smooth="yes"/>
      <point x="742" y="334" type="line"/>
      <point x="763" y="356"/>
      <point x="791" y="371"/>
      <point x="825" y="371" type="curve" smooth="yes"/>
      <point x="847" y="371"/>
      <point x="866" y="363"/>
      <point x="866" y="333" type="curve" smooth="yes"/>
      <point x="866" y="328"/>
      <point x="866" y="323"/>
      <point x="865" y="318" type="curve" smooth="yes"/>
      <point x="815" y="0" type="line"/>
      <point x="1009" y="0" type="line"/>
      <point x="1063" y="340" type="line" smooth="yes"/>
      <point x="1067" y="366"/>
      <point x="1069" y="388"/>
      <point x="1069" y="409" type="curve" smooth="yes"/>
      <point x="1069" y="508"/>
      <point x="1021" y="545"/>
      <point x="937" y="545" type="curve" smooth="yes"/>
      <point x="859" y="545"/>
      <point x="800" y="516"/>
      <point x="766" y="487" type="curve"/>
      <point x="810" y="763" type="line"/>
      <point x="616" y="763" type="line"/>
      <point x="530" y="224" type="line" smooth="yes"/>
      <point x="519" y="156"/>
      <point x="473" y="139"/>
      <point x="355" y="139" type="curve" smooth="yes"/>
      <point x="286" y="139"/>
      <point x="262" y="167"/>
      <point x="262" y="223" type="curve" smooth="yes"/>
      <point x="262" y="229"/>
      <point x="263" y="244"/>
      <point x="267" y="270" type="curve" smooth="yes"/>
      <point x="280" y="346"/>
      <point x="301" y="398"/>
      <point x="376" y="398" type="curve" smooth="yes"/>
      <point x="501" y="398" type="line"/>
      <point x="519" y="509" type="line"/>
      <point x="456" y="529"/>
      <point x="392" y="545"/>
      <point x="329" y="545" type="curve" smooth="yes"/>
      <point x="203" y="545"/>
      <point x="105" y="481"/>
      <point x="78" y="300" type="curve" smooth="yes"/>
      <point x="72" y="263"/>
      <point x="69" y="227"/>
      <point x="69" y="204" type="curve" smooth="yes"/>
      <point x="69" y="47"/>
      <point x="145" y="-6"/>
    </contour>
  </outline>
</glyph>
<glyph name="cedi.smcp" format="2">
  <advance width="509"/>
  <note>
GF Latin Plus glyph
</note>
  <outline>
    <contour>
      <point x="270" y="-5" type="curve" smooth="yes"/>
      <point x="369" y="-5"/>
      <point x="422" y="5"/>
      <point x="463" y="20" type="curve"/>
      <point x="483" y="146" type="line"/>
      <point x="462" y="145"/>
      <point x="414" y="142"/>
      <point x="335" y="142" type="curve" smooth="yes"/>
      <point x="262" y="142"/>
      <point x="243" y="161"/>
      <point x="242" y="210" type="curve" smooth="yes"/>
      <point x="240" y="287"/>
      <point x="274" y="411"/>
      <point x="392" y="411" type="curve" smooth="yes"/>
      <point x="422" y="411"/>
      <point x="486" y="411"/>
      <point x="525" y="409" type="curve"/>
      <point x="545" y="536" type="line"/>
      <point x="517" y="543"/>
      <point x="461" y="558"/>
      <point x="365" y="558" type="curve" smooth="yes"/>
      <point x="202" y="558"/>
      <point x="74" y="414"/>
      <point x="76" y="187" type="curve" smooth="yes"/>
      <point x="77" y="57"/>
      <point x="152" y="-5"/>
    </contour>
    <contour>
      <point x="267" y="-55" type="line"/>
      <point x="343" y="-55" type="line"/>
      <point x="446" y="596" type="line"/>
      <point x="370" y="596" type="line"/>
    </contour>
  </outline>
</glyph>
<glyph name="colonsign.smcp" format="2">
  <advance width="509"/>
  <note>
GF Latin Plus glyph
</note>
  <outline>
    <contour>
      <point x="277" y="-5" type="curve" smooth="yes"/>
      <point x="361" y="-5"/>
      <point x="415" y="5"/>
      <point x="457" y="20" type="curve"/>
      <point x="484" y="137" type="line"/>
      <point x="462" y="135"/>
      <point x="415" y="133"/>
      <point x="346" y="133" type="curve" smooth="yes"/>
      <point x="292" y="133"/>
      <point x="245" y="145"/>
      <point x="244" y="232" type="curve" smooth="yes"/>
      <point x="243" y="325"/>
      <point x="294" y="426"/>
      <point x="407" y="426" type="curve" smooth="yes"/>
      <point x="441" y="426"/>
      <point x="470" y="426"/>
      <point x="493" y="424" type="curve"/>
      <point x="576" y="533" type="line"/>
      <point x="548" y="545"/>
      <point x="491" y="563"/>
      <point x="391" y="563" type="curve" smooth="yes"/>
      <point x="231" y="563"/>
      <point x="78" y="440"/>
      <point x="81" y="186" type="curve" smooth="yes"/>
      <point x="82" y="46"/>
      <point x="164" y="-5"/>
    </contour>
    <contour>
      <point x="113" y="-83" type="line"/>
      <point x="190" y="-83" type="line"/>
      <point x="516" y="596" type="line"/>
      <point x="439" y="596" type="line"/>
    </contour>
    <contour>
      <point x="225" y="-83" type="line"/>
      <point x="302" y="-83" type="line"/>
      <point x="627" y="596" type="line"/>
      <point x="550" y="596" type="line"/>
    </contour>
  </outline>
</glyph>
<glyph name="d.salt" format="2">
  <advance width="575"/>
  <anchor x="660" y="650" name="altcaron"/>
  <anchor x="246" y="-150" name="bottom"/>
  <anchor x="573" y="850" name="top"/>
  <outline>
    <contour>
      <point x="289" y="-6" type="curve" smooth="yes"/>
      <point x="332" y="-6"/>
      <point x="414" y="4"/>
      <point x="540" y="32" type="curve"/>
      <point x="656" y="763" type="line"/>
      <point x="462" y="763" type="line"/>
      <point x="427" y="541" type="line"/>
      <point x="405" y="544"/>
      <point x="378" y="545"/>
      <point x="351" y="545" type="curve" smooth="yes"/>
      <point x="166" y="545"/>
      <point x="110" y="454"/>
      <point x="80" y="303" type="curve" smooth="yes"/>
      <point x="72" y="262"/>
      <point x="68" y="221"/>
      <point x="68" y="186" type="curve" smooth="yes"/>
      <point x="68" y="67"/>
      <point x="114" y="-6"/>
    </contour>
    <contour>
      <point x="305" y="149" type="curve" smooth="yes"/>
      <point x="281" y="149"/>
      <point x="261" y="163"/>
      <point x="261" y="217" type="curve" smooth="yes"/>
      <point x="261" y="236"/>
      <point x="263" y="252"/>
      <point x="266" y="271" type="curve" smooth="yes"/>
      <point x="286" y="381"/>
      <point x="328" y="390"/>
      <point x="361" y="390" type="curve" smooth="yes"/>
      <point x="380" y="390"/>
      <point x="395" y="386"/>
      <point x="402" y="383" type="curve"/>
      <point x="366" y="160" type="line"/>
      <point x="352" y="154"/>
      <point x="335" y="149"/>
    </contour>
  </outline>
</glyph>
<glyph name="d.superior" format="2">
  <advance width="431"/>
  <note>
GF Latin Plus glyph
</note>
  <anchor x="535" y="751" name="altcaron"/>
  <anchor x="243" y="171" name="bottom"/>
  <outline>
    <contour>
      <point x="199" y="276" type="curve" smooth="yes"/>
      <point x="233" y="276"/>
      <point x="265" y="291"/>
      <point x="291" y="317" type="curve"/>
      <point x="301" y="280" type="line"/>
      <point x="445" y="280" type="line"/>
      <point x="533" y="833" type="line"/>
      <point x="373" y="833" type="line"/>
      <point x="348" y="676" type="line"/>
      <point x="334" y="676"/>
      <point x="317" y="676"/>
      <point x="301" y="676" type="curve" smooth="yes"/>
      <point x="164" y="676"/>
      <point x="122" y="612"/>
      <point x="100" y="504" type="curve" smooth="yes"/>
      <point x="94" y="474"/>
      <point x="91" y="443"/>
      <point x="92" y="418" type="curve" smooth="yes"/>
      <point x="92" y="331"/>
      <point x="124" y="276"/>
    </contour>
    <contour>
      <point x="276" y="408" type="curve" smooth="yes"/>
      <point x="263" y="408"/>
      <point x="252" y="414"/>
      <point x="251" y="444" type="curve" smooth="yes"/>
      <point x="251" y="457"/>
      <point x="252" y="466"/>
      <point x="254" y="478" type="curve" smooth="yes"/>
      <point x="267" y="549"/>
      <point x="297" y="544"/>
      <point x="309" y="544" type="curve" smooth="yes"/>
      <point x="318" y="544"/>
      <point x="322" y="544"/>
      <point x="327" y="544" type="curve"/>
      <point x="308" y="424" type="line"/>
      <point x="302" y="416"/>
      <point x="293" y="408"/>
    </contour>
  </outline>
</glyph>
<glyph name="dcroat.salt" format="2">
  <advance width="575"/>
  <outline>
    <contour>
      <point x="335" y="606" type="line"/>
      <point x="683" y="606" type="line"/>
      <point x="695" y="680" type="line"/>
      <point x="347" y="680" type="line"/>
    </contour>
    <component base="d.salt"/>
  </outline>
</glyph>
<glyph name="degree.smcp" format="2">
  <advance width="267"/>
  <note>
GF Latin Plus glyph
</note>
  <outline>
    <contour>
      <point x="188" y="347" type="curve" smooth="yes"/>
      <point x="296" y="347"/>
      <point x="336" y="414"/>
      <point x="335" y="480" type="curve" smooth="yes"/>
      <point x="334" y="544"/>
      <point x="293" y="586"/>
      <point x="227" y="586" type="curve" smooth="yes"/>
      <point x="122" y="586"/>
      <point x="79" y="516"/>
      <point x="79" y="453" type="curve" smooth="yes"/>
      <point x="80" y="388"/>
      <point x="124" y="347"/>
    </contour>
    <contour>
      <point x="201" y="424" type="curve" smooth="yes"/>
      <point x="177" y="424"/>
      <point x="162" y="436"/>
      <point x="162" y="457" type="curve" smooth="yes"/>
      <point x="162" y="488"/>
      <point x="182" y="508"/>
      <point x="214" y="508" type="curve" smooth="yes"/>
      <point x="237" y="508"/>
      <point x="252" y="496"/>
      <point x="252" y="475" type="curve" smooth="yes"/>
      <point x="252" y="442"/>
      <point x="232" y="424"/>
    </contour>
  </outline>
</glyph>
<glyph name="e.smcp" format="2">
  <advance width="512"/>
  <note>
GF Latin Plus glyph
</note>
  <anchor x="225" y="-150" name="bottom"/>
  <anchor x="449" y="11" name="ogonek"/>
  <anchor x="359" y="650" name="top"/>
  <outline>
    <contour>
      <point x="218" y="-5" type="curve" smooth="yes"/>
      <point x="327" y="-5"/>
      <point x="369" y="3"/>
      <point x="459" y="11" type="curve"/>
      <point x="482" y="158" type="line"/>
      <point x="293" y="158" type="line" smooth="yes"/>
      <point x="267" y="158"/>
      <point x="263" y="173"/>
      <point x="265" y="188" type="curve" smooth="yes"/>
      <point x="268" y="204" type="line"/>
      <point x="447" y="213" type="line"/>
      <point x="469" y="351" type="line"/>
      <point x="293" y="360" type="line"/>
      <point x="293" y="365" type="line" smooth="yes"/>
      <point x="296" y="386"/>
      <point x="301" y="400"/>
      <point x="331" y="400" type="curve" smooth="yes"/>
      <point x="520" y="400" type="line"/>
      <point x="543" y="547" type="line"/>
      <point x="440" y="555"/>
      <point x="397" y="560"/>
      <point x="300" y="560" type="curve" smooth="yes"/>
      <point x="205" y="560"/>
      <point x="134" y="522"/>
      <point x="116" y="409" type="curve" smooth="yes"/>
      <point x="73" y="137" type="line" smooth="yes"/>
      <point x="54" y="16"/>
      <point x="158" y="-4"/>
    </contour>
  </outline>
</glyph>
<glyph name="e.superior" format="2">
  <advance width="405"/>
  <note>
GF Latin Plus glyph
</note>
  <anchor x="231" y="171" name="bottom"/>
  <anchor x="318" y="280" name="ogonek"/>
  <anchor x="323" y="751" name="top"/>
  <outline>
    <contour>
      <point x="246" y="276" type="curve" smooth="yes"/>
      <point x="320" y="276"/>
      <point x="385" y="286"/>
      <point x="432" y="299" type="curve"/>
      <point x="448" y="396" type="line"/>
      <point x="313" y="396" type="line" smooth="yes"/>
      <point x="269" y="396"/>
      <point x="249.199" y="404.414"/>
      <point x="248" y="420" type="curve" smooth="yes"/>
      <point x="248" y="421"/>
      <point x="248" y="424"/>
      <point x="249" y="425" type="curve"/>
      <point x="263" y="422"/>
      <point x="281" y="421"/>
      <point x="304" y="421" type="curve" smooth="yes"/>
      <point x="400" y="421"/>
      <point x="473" y="440.467"/>
      <point x="473" y="548" type="curve" smooth="yes"/>
      <point x="473" y="656"/>
      <point x="385" y="675"/>
      <point x="311" y="675" type="curve" smooth="yes"/>
      <point x="198" y="675"/>
      <point x="119" y="635"/>
      <point x="97" y="498" type="curve" smooth="yes"/>
      <point x="94" y="477"/>
      <point x="91" y="455"/>
      <point x="91" y="427" type="curve" smooth="yes"/>
      <point x="92" y="335"/>
      <point x="130" y="276"/>
    </contour>
    <contour>
      <point x="278" y="499" type="curve" smooth="yes"/>
      <point x="273" y="499"/>
      <point x="266" y="500"/>
      <point x="259" y="501" type="curve"/>
      <point x="266" y="534"/>
      <point x="279" y="550"/>
      <point x="300" y="550" type="curve" smooth="yes"/>
      <point x="317" y="550"/>
      <point x="325" y="540"/>
      <point x="325" y="529" type="curve" smooth="yes"/>
      <point x="325" y="514"/>
      <point x="320" y="499"/>
    </contour>
  </outline>
</glyph>
<glyph name="eight.oldstyle" format="2">
  <advance width="609"/>
  <outline>
    <contour>
      <point x="257" y="-6" type="curve" smooth="yes"/>
      <point x="372" y="-6" type="line" smooth="yes"/>
      <point x="474" y="-6"/>
      <point x="569" y="19"/>
      <point x="592" y="165" type="curve" smooth="yes"/>
      <point x="608" y="264" type="line" smooth="yes"/>
      <point x="609" y="275"/>
      <point x="611" y="288"/>
      <point x="611" y="303" type="curve" smooth="yes"/>
      <point x="611" y="340"/>
      <point x="601" y="382"/>
      <point x="553" y="394" type="curve"/>
      <point x="608" y="401"/>
      <point x="627" y="483"/>
      <point x="632" y="510" type="curve" smooth="yes"/>
      <point x="645" y="594" type="line" smooth="yes"/>
      <point x="647" y="605"/>
      <point x="648" y="615"/>
      <point x="648" y="625" type="curve" smooth="yes"/>
      <point x="648" y="716"/>
      <point x="574" y="749"/>
      <point x="489" y="749" type="curve" smooth="yes"/>
      <point x="367" y="749" type="line" smooth="yes"/>
      <point x="272" y="749"/>
      <point x="179" y="708"/>
      <point x="161" y="594" type="curve" smooth="yes"/>
      <point x="148" y="510" type="line" smooth="yes"/>
      <point x="145" y="491"/>
      <point x="142" y="473"/>
      <point x="142" y="456" type="curve" smooth="yes"/>
      <point x="142" y="426"/>
      <point x="151" y="400"/>
      <point x="186" y="380" type="curve"/>
      <point x="128" y="367"/>
      <point x="101" y="311"/>
      <point x="94" y="264" type="curve" smooth="yes"/>
      <point x="78" y="165" type="line" smooth="yes"/>
      <point x="76" y="151"/>
      <point x="75" y="137"/>
      <point x="75" y="125" type="curve" smooth="yes"/>
      <point x="75" y="14"/>
      <point x="165" y="-6"/>
    </contour>
    <contour>
      <point x="320" y="158" type="line" smooth="yes"/>
      <point x="290" y="158"/>
      <point x="277" y="166"/>
      <point x="277" y="190" type="curve" smooth="yes"/>
      <point x="277" y="194"/>
      <point x="277" y="199"/>
      <point x="278" y="204" type="curve" smooth="yes"/>
      <point x="286" y="251" type="line" smooth="yes"/>
      <point x="290" y="278"/>
      <point x="310" y="298"/>
      <point x="342" y="298" type="curve" smooth="yes"/>
      <point x="372" y="298" type="line" smooth="yes"/>
      <point x="398" y="298"/>
      <point x="412" y="281"/>
      <point x="412" y="259" type="curve" smooth="yes"/>
      <point x="412" y="257"/>
      <point x="412" y="254"/>
      <point x="412" y="251" type="curve" smooth="yes"/>
      <point x="404" y="204" type="line" smooth="yes"/>
      <point x="400" y="176"/>
      <point x="392" y="158"/>
      <point x="348" y="158" type="curve" smooth="yes"/>
    </contour>
    <contour>
      <point x="368" y="462" type="line" smooth="yes"/>
      <point x="347" y="462"/>
      <point x="335" y="465"/>
      <point x="335" y="491" type="curve" smooth="yes"/>
      <point x="335" y="497"/>
      <point x="336" y="505"/>
      <point x="338" y="515" type="curve" smooth="yes"/>
      <point x="342" y="546" type="line" smooth="yes"/>
      <point x="348" y="583"/>
      <point x="364" y="585"/>
      <point x="388" y="585" type="curve" smooth="yes"/>
      <point x="416" y="585" type="line" smooth="yes"/>
      <point x="432" y="585"/>
      <point x="450" y="584"/>
      <point x="450" y="559" type="curve" smooth="yes"/>
      <point x="450" y="555"/>
      <point x="449" y="551"/>
      <point x="448" y="546" type="curve" smooth="yes"/>
      <point x="444" y="515" type="line" smooth="yes"/>
      <point x="438" y="478"/>
      <point x="431" y="462"/>
      <point x="396" y="462" type="curve" smooth="yes"/>
    </contour>
  </outline>
</glyph>
<glyph name="endash.smcp" format="2">
  <advance width="430"/>
  <note>
GF Latin Plus glyph
</note>
  <outline>
    <contour>
      <point x="51" y="149" type="line"/>
      <point x="427" y="149" type="line"/>
      <point x="449" y="286" type="line"/>
      <point x="72" y="286" type="line"/>
    </contour>
  </outline>
</glyph>
<glyph name="eng.smcp" format="2">
  <advance width="599"/>
  <note>
GF Latin Plus glyph
</note>
  <outline>
    <contour>
      <point x="355" y="-183" type="curve" smooth="yes"/>
      <point x="484" y="-183"/>
      <point x="539" y="-118"/>
      <point x="554" y="-21" type="curve" smooth="yes"/>
      <point x="569" y="76" type="line"/>
      <point x="385" y="71" type="line"/>
      <point x="375" y="7" type="line" smooth="yes"/>
      <point x="372" y="-8"/>
      <point x="366" y="-27"/>
      <point x="342" y="-27" type="curve" smooth="yes"/>
      <point x="348" y="-27"/>
      <point x="270" y="-29"/>
      <point x="275" y="-30" type="curve"/>
      <point x="252" y="-170" type="line"/>
      <point x="276" y="-176"/>
      <point x="314" y="-183"/>
    </contour>
    <component base="n.smcp"/>
  </outline>
</glyph>
<glyph name="eth.smcp" format="2">
  <advance width="584"/>
  <note>
GF Latin Plus glyph
</note>
  <outline>
    <contour>
      <point x="51" y="225" type="line"/>
      <point x="319" y="225" type="line"/>
      <point x="336" y="335" type="line"/>
      <point x="68" y="335" type="line"/>
    </contour>
    <component base="d.smcp"/>
  </outline>
</glyph>
<glyph name="euro.smcp" format="2">
  <advance width="509"/>
  <note>
GF Latin Plus glyph
</note>
  <outline>
    <contour>
      <point x="123" y="277" type="line"/>
      <point x="270" y="277" type="line"/>
      <point x="475" y="283" type="line"/>
      <point x="486" y="359" type="line"/>
      <point x="285" y="366" type="line"/>
      <point x="148" y="366" type="line"/>
      <point x="78" y="358" type="line"/>
      <point x="66" y="284" type="line"/>
    </contour>
    <contour>
      <point x="117" y="173" type="line"/>
      <point x="254" y="173" type="line"/>
      <point x="458" y="180" type="line"/>
      <point x="470" y="257" type="line"/>
      <point x="269" y="264" type="line"/>
      <point x="121" y="264" type="line"/>
      <point x="62" y="257" type="line"/>
      <point x="49" y="180" type="line"/>
    </contour>
    <component base="c.smcp" xOffset="20"/>
  </outline>
</glyph>
<glyph name="exclam.smcp" format="2">
  <advance width="248"/>
  <note>
GF Latin Plus glyph
</note>
  <outline>
    <contour>
      <point x="86" y="196" type="line"/>
      <point x="223" y="196" type="line"/>
      <point x="304" y="559" type="line"/>
      <point x="120" y="559" type="line"/>
    </contour>
    <component base="period" xOffset="-4"/>
  </outline>
</glyph>
<glyph name="f.smcp" format="2">
  <advance width="484"/>
  <note>
GF Latin Plus glyph
</note>
  <anchor x="363" y="650" name="top"/>
  <outline>
    <contour>
      <point x="51" y="0" type="line"/>
      <point x="235" y="0" type="line"/>
      <point x="264" y="177" type="line"/>
      <point x="444" y="186" type="line"/>
      <point x="466" y="324" type="line"/>
      <point x="288" y="331" type="line"/>
      <point x="293" y="366" type="line" smooth="yes"/>
      <point x="295" y="385"/>
      <point x="302" y="399"/>
      <point x="332" y="399" type="curve" smooth="yes"/>
      <point x="518" y="399" type="line"/>
      <point x="541" y="546" type="line"/>
      <point x="449" y="555"/>
      <point x="414" y="560"/>
      <point x="298" y="560" type="curve" smooth="yes"/>
      <point x="222" y="560"/>
      <point x="135" y="530"/>
      <point x="117" y="417" type="curve" smooth="yes"/>
    </contour>
  </outline>
</glyph>
<glyph name="f.superior" format="2">
  <advance width="301"/>
  <note>
GF Latin Plus glyph
</note>
  <anchor x="179" y="171" name="bottom"/>
  <outline>
    <contour>
      <point x="99" y="280" type="line"/>
      <point x="259" y="280" type="line"/>
      <point x="301" y="541" type="line"/>
      <point x="374" y="541" type="line"/>
      <point x="394" y="672" type="line"/>
      <point x="321" y="672" type="line"/>
      <point x="321" y="677" type="line" smooth="yes"/>
      <point x="322" y="705"/>
      <point x="339" y="706"/>
      <point x="367" y="706" type="curve" smooth="yes"/>
      <point x="408" y="706" type="line"/>
      <point x="427" y="828" type="line"/>
      <point x="406" y="832"/>
      <point x="374" y="837"/>
      <point x="335" y="837" type="curve" smooth="yes"/>
      <point x="246" y="837"/>
      <point x="186" y="823"/>
      <point x="170" y="726" type="curve" smooth="yes"/>
      <point x="161" y="672" type="line"/>
      <point x="106" y="647" type="line"/>
      <point x="90" y="541" type="line"/>
      <point x="141" y="541" type="line"/>
    </contour>
  </outline>
</glyph>
<glyph name="five.smcp" format="2">
  <advance width="486"/>
  <note>
GF Latin Plus glyph
</note>
  <outline>
    <contour>
      <point x="238" y="-5" type="curve" smooth="yes"/>
      <point x="390" y="-5"/>
      <point x="461" y="36"/>
      <point x="478" y="143" type="curve" smooth="yes"/>
      <point x="488" y="206" type="line" smooth="yes"/>
      <point x="492" y="230"/>
      <point x="494" y="247"/>
      <point x="494" y="257" type="curve" smooth="yes"/>
      <point x="494" y="318"/>
      <point x="461" y="363"/>
      <point x="382" y="363" type="curve" smooth="yes"/>
      <point x="325" y="363" type="line" smooth="yes"/>
      <point x="316" y="363"/>
      <point x="300" y="363"/>
      <point x="281" y="356" type="curve"/>
      <point x="290" y="404" type="line"/>
      <point x="494" y="404" type="line"/>
      <point x="519" y="560" type="line"/>
      <point x="138" y="560" type="line"/>
      <point x="65" y="202" type="line"/>
      <point x="241" y="202" type="line"/>
      <point x="244" y="212"/>
      <point x="245" y="217"/>
      <point x="263" y="217" type="curve" smooth="yes"/>
      <point x="286" y="217" type="line" smooth="yes"/>
      <point x="299" y="217"/>
      <point x="304" y="212"/>
      <point x="304" y="203" type="curve" smooth="yes"/>
      <point x="304" y="199"/>
      <point x="303" y="191"/>
      <point x="300" y="176" type="curve" smooth="yes"/>
      <point x="298" y="167"/>
      <point x="292" y="151"/>
      <point x="263" y="151" type="curve" smooth="yes"/>
      <point x="54" y="151" type="line"/>
      <point x="32" y="12" type="line"/>
      <point x="104" y="5"/>
      <point x="181" y="-5"/>
    </contour>
  </outline>
</glyph>
<glyph name="five.tnum" format="2">
  <advance width="609"/>
  <outline>
    <contour>
      <point x="315" y="-6" type="curve" smooth="yes"/>
      <point x="492" y="-6"/>
      <point x="586" y="49"/>
      <point x="607" y="186" type="curve" smooth="yes"/>
      <point x="625" y="295" type="line" smooth="yes"/>
      <point x="627" y="309"/>
      <point x="628" y="323"/>
      <point x="628" y="336" type="curve" smooth="yes"/>
      <point x="628" y="417"/>
      <point x="585" y="476"/>
      <point x="485" y="476" type="curve" smooth="yes"/>
      <point x="409" y="476" type="line" smooth="yes"/>
      <point x="377" y="476"/>
      <point x="343" y="473"/>
      <point x="317" y="456" type="curve"/>
      <point x="340" y="569" type="line"/>
      <point x="637" y="569" type="line"/>
      <point x="665" y="743" type="line"/>
      <point x="202" y="743" type="line"/>
      <point x="107" y="277" type="line"/>
      <point x="291" y="277" type="line"/>
      <point x="298" y="300"/>
      <point x="311" y="312"/>
      <point x="343" y="312" type="curve" smooth="yes"/>
      <point x="387" y="312" type="line" smooth="yes"/>
      <point x="417" y="312"/>
      <point x="427" y="299"/>
      <point x="427" y="276" type="curve" smooth="yes"/>
      <point x="427" y="271"/>
      <point x="426" y="265"/>
      <point x="425" y="259" type="curve" smooth="yes"/>
      <point x="420" y="228" type="line" smooth="yes"/>
      <point x="417" y="207"/>
      <point x="414" y="168"/>
      <point x="352" y="168" type="curve" smooth="yes"/>
      <point x="88" y="168" type="line"/>
      <point x="63" y="14" type="line"/>
      <point x="147" y="5"/>
      <point x="240" y="-6"/>
    </contour>
  </outline>
</glyph>
<glyph name="four.smcp" format="2">
  <advance width="540"/>
  <note>
GF Latin Plus glyph
</note>
  <outline>
    <contour>
      <point x="295" y="0" type="line"/>
      <point x="479" y="0" type="line"/>
      <point x="493" y="91" type="line"/>
      <point x="534" y="117" type="line"/>
      <point x="554" y="237" type="line"/>
      <point x="517" y="237" type="line"/>
      <point x="538" y="378" type="line"/>
      <point x="389" y="378" type="line"/>
      <point x="342" y="299" type="line"/>
      <point x="333" y="237" type="line"/>
      <point x="285" y="237" type="line"/>
      <point x="459" y="560" type="line"/>
      <point x="271" y="560" type="line"/>
      <point x="53" y="166" type="line"/>
      <point x="73" y="91" type="line"/>
      <point x="309" y="91" type="line"/>
    </contour>
  </outline>
</glyph>
<glyph name="four.tnum" format="2">
  <advance width="609"/>
  <outline>
    <contour>
      <point x="348" y="0" type="line"/>
      <point x="542" y="0" type="line"/>
      <point x="564" y="137" type="line"/>
      <point x="628" y="167" type="line"/>
      <point x="650" y="301" type="line"/>
      <point x="590" y="301" type="line"/>
      <point x="622" y="507" type="line"/>
      <point x="465" y="507" type="line"/>
      <point x="413" y="411" type="line"/>
      <point x="396" y="301" type="line"/>
      <point x="284" y="301" type="line"/>
      <point x="536" y="743" type="line"/>
      <point x="338" y="743" type="line"/>
      <point x="40" y="224" type="line"/>
      <point x="61" y="137" type="line"/>
      <point x="370" y="137" type="line"/>
    </contour>
  </outline>
</glyph>
<glyph name="four.tosf" format="2">
  <advance width="609"/>
  <outline>
    <contour>
      <point x="316" y="-167" type="line"/>
      <point x="510" y="-167" type="line"/>
      <point x="536" y="0" type="line"/>
      <point x="601" y="30" type="line"/>
      <point x="622" y="163" type="line"/>
      <point x="562" y="163" type="line"/>
      <point x="593" y="359" type="line"/>
      <point x="436" y="359" type="line"/>
      <point x="380" y="243" type="line"/>
      <point x="368" y="163" type="line"/>
      <point x="286" y="163" type="line"/>
      <point x="458" y="545" type="line"/>
      <point x="260" y="545" type="line"/>
      <point x="43" y="87" type="line"/>
      <point x="63" y="0" type="line"/>
      <point x="342" y="0" type="line"/>
    </contour>
  </outline>
</glyph>
